Jura-Bold.ufo
<glyph name="exclam" format="2">
  <advance width="270"/>
  <unicode hex="0021"/>
  <outline>
    <contour>
      <point x="136" y="126" type="curve" smooth="yes"/>
      <point x="164" y="126"/>
      <point x="178" y="140"/>
      <point x="178" y="168" type="curve" smooth="yes"/>
      <point x="178" y="663" type="line" smooth="yes"/>
      <point x="178" y="691"/>
      <point x="164" y="705"/>
      <point x="136" y="705" type="curve" smooth="yes"/>
      <point x="108" y="705"/>
      <point x="94" y="691"/>
      <point x="94" y="663" type="curve" smooth="yes"/>
      <point x="94" y="168" type="line" smooth="yes"/>
      <point x="94" y="140"/>
      <point x="108" y="126"/>
    </contour>
    <component base="period"/>
  </outline>
</glyph>
<glyph name="numbersign" format="2">
  <advance width="621"/>
  <unicode hex="0023"/>
  <outline>
    <contour>
      <point x="130" y="-13" type="curve" smooth="yes"/>
      <point x="146" y="-13"/>
      <point x="161" y="-2"/>
      <point x="164" y="13" type="curve" smooth="yes"/>
      <point x="215" y="198" type="line"/>
      <point x="323" y="198" type="line"/>
      <point x="276" y="32" type="line" smooth="yes"/>
      <point x="275" y="29"/>
      <point x="275" y="25"/>
      <point x="275" y="22" type="curve" smooth="yes"/>
      <point x="275" y="3"/>
      <point x="291" y="-13"/>
      <point x="310" y="-13" type="curve" smooth="yes"/>
      <point x="326" y="-13"/>
      <point x="341" y="-2"/>
      <point x="344" y="13" type="curve" smooth="yes"/>
      <point x="395" y="198" type="line"/>
      <point x="506" y="198" type="line" smooth="yes"/>
      <point x="525" y="198"/>
      <point x="541" y="214"/>
      <point x="541" y="233" type="curve" smooth="yes"/>
      <point x="541" y="252"/>
      <point x="525" y="268"/>
      <point x="506" y="268" type="curve" smooth="yes"/>
      <point x="416" y="268" type="line"/>
      <point x="451" y="398" type="line"/>
      <point x="562" y="398" type="line" smooth="yes"/>
      <point x="581" y="398"/>
      <point x="597" y="414"/>
      <point x="597" y="433" type="curve" smooth="yes"/>
      <point x="597" y="452"/>
      <point x="581" y="468"/>
      <point x="562" y="468" type="curve" smooth="yes"/>
      <point x="470" y="468" type="line"/>
      <point x="514" y="623" type="line" smooth="yes"/>
      <point x="515" y="626"/>
      <point x="515" y="630"/>
      <point x="515" y="633" type="curve" smooth="yes"/>
      <point x="515" y="652"/>
      <point x="499" y="668"/>
      <point x="480" y="668" type="curve" smooth="yes"/>
      <point x="464" y="668"/>
      <point x="449" y="657"/>
      <point x="446" y="642" type="curve" smooth="yes"/>
      <point x="398" y="468" type="line"/>
      <point x="290" y="468" type="line"/>
      <point x="334" y="623" type="line" smooth="yes"/>
      <point x="335" y="626"/>
      <point x="335" y="630"/>
      <point x="335" y="633" type="curve" smooth="yes"/>
      <point x="335" y="652"/>
      <point x="319" y="668"/>
      <point x="300" y="668" type="curve" smooth="yes"/>
      <point x="284" y="668"/>
      <point x="269" y="657"/>
      <point x="266" y="642" type="curve" smooth="yes"/>
      <point x="218" y="468" type="line"/>
      <point x="135" y="468" type="line" smooth="yes"/>
      <point x="116" y="468"/>
      <point x="100" y="452"/>
      <point x="100" y="433" type="curve" smooth="yes"/>
      <point x="100" y="414"/>
      <point x="116" y="398"/>
      <point x="135" y="398" type="curve" smooth="yes"/>
      <point x="199" y="398" type="line"/>
      <point x="162" y="268" type="line"/>
      <point x="79" y="268" type="line" smooth="yes"/>
      <point x="60" y="268"/>
      <point x="44" y="252"/>
      <point x="44" y="233" type="curve" smooth="yes"/>
      <point x="44" y="214"/>
      <point x="60" y="198"/>
      <point x="79" y="198" type="curve" smooth="yes"/>
      <point x="143" y="198" type="line"/>
      <point x="96" y="32" type="line" smooth="yes"/>
      <point x="95" y="29"/>
      <point x="95" y="25"/>
      <point x="95" y="22" type="curve" smooth="yes"/>
      <point x="95" y="3"/>
      <point x="111" y="-13"/>
    </contour>
    <contour>
      <point x="236" y="268" type="line"/>
      <point x="271" y="398" type="line"/>
      <point x="379" y="398" type="line"/>
      <point x="342" y="268" type="line"/>
    </contour>
  </outline>
</glyph>
<glyph name="dollar" format="2">
  <advance width="672"/>
  <unicode hex="0024"/>
  <outline>
    <contour>
      <point x="267" y="0" type="curve" smooth="yes"/>
      <point x="405" y="0" type="line" smooth="yes"/>
      <point x="531" y="0"/>
      <point x="592" y="61"/>
      <point x="592" y="187" type="curve" smooth="yes"/>
      <point x="592" y="313"/>
      <point x="531" y="374"/>
      <point x="405" y="374" type="curve" smooth="yes"/>
      <point x="282" y="374" type="line" smooth="yes"/>
      <point x="207" y="374"/>
      <point x="187" y="391"/>
      <point x="187" y="464" type="curve" smooth="yes"/>
      <point x="187" y="538"/>
      <point x="207" y="558"/>
      <point x="281" y="558" type="curve" smooth="yes"/>
      <point x="402" y="558" type="line" smooth="yes"/>
      <point x="476" y="558"/>
      <point x="496" y="538"/>
      <point x="496" y="465" type="curve" smooth="yes"/>
      <point x="496" y="443"/>
      <point x="516" y="423"/>
      <point x="538" y="423" type="curve" smooth="yes"/>
      <point x="560" y="423"/>
      <point x="580" y="443"/>
      <point x="580" y="465" type="curve" smooth="yes"/>
      <point x="580" y="585"/>
      <point x="522" y="642"/>
      <point x="402" y="642" type="curve" smooth="yes"/>
      <point x="281" y="642" type="line" smooth="yes"/>
      <point x="161" y="642"/>
      <point x="103" y="585"/>
      <point x="103" y="464" type="curve" smooth="yes"/>
      <point x="103" y="344"/>
      <point x="161" y="290"/>
      <point x="282" y="290" type="curve" smooth="yes"/>
      <point x="405" y="290" type="line" smooth="yes"/>
      <point x="484" y="290"/>
      <point x="508" y="268"/>
      <point x="508" y="187" type="curve" smooth="yes"/>
      <point x="508" y="106"/>
      <point x="484" y="84"/>
      <point x="405" y="84" type="curve" smooth="yes"/>
      <point x="267" y="84" type="line" smooth="yes"/>
      <point x="188" y="84"/>
      <point x="164" y="106"/>
      <point x="164" y="187" type="curve" smooth="yes"/>
      <point x="164" y="209"/>
      <point x="144" y="229"/>
      <point x="122" y="229" type="curve" smooth="yes"/>
      <point x="100" y="229"/>
      <point x="80" y="209"/>
      <point x="80" y="187" type="curve" smooth="yes"/>
      <point x="80" y="61"/>
      <point x="139" y="0"/>
    </contour>
    <contour>
      <point x="371" y="-78"/>
      <point x="371" y="-55" type="curve" smooth="yes"/>
      <point x="371" y="313" type="line"/>
      <point x="377" y="351" type="line"/>
      <point x="377" y="710" type="line" smooth="yes"/>
      <point x="377" y="732"/>
      <point x="364" y="745"/>
      <point x="342" y="745" type="curve" smooth="yes"/>
      <point x="319" y="745"/>
      <point x="307" y="732"/>
      <point x="307" y="710" type="curve" smooth="yes"/>
      <point x="307" y="355" type="line"/>
      <point x="301" y="311" type="line"/>
      <point x="301" y="-55" type="line" smooth="yes"/>
      <point x="301" y="-78"/>
      <point x="314" y="-90"/>
      <point x="336" y="-90" type="curve" smooth="yes"/>
      <point x="359" y="-90"/>
    </contour>
  </outline>
</glyph>
<glyph name="percent" format="2">
  <advance width="878"/>
  <unicode hex="0025"/>
  <outline>
    <contour>
      <point x="207" y="316" type="curve" smooth="yes"/>
      <point x="223" y="316" type="line" smooth="yes"/>
      <point x="319" y="316"/>
      <point x="366" y="364"/>
      <point x="366" y="461" type="curve" smooth="yes"/>
      <point x="366" y="535" type="line" smooth="yes"/>
      <point x="366" y="630"/>
      <point x="319" y="678"/>
      <point x="223" y="678" type="curve" smooth="yes"/>
      <point x="207" y="678" type="line" smooth="yes"/>
      <point x="111" y="678"/>
      <point x="64" y="631"/>
      <point x="64" y="535" type="curve" smooth="yes"/>
      <point x="64" y="460" type="line" smooth="yes"/>
      <point x="64" y="364"/>
      <point x="111" y="316"/>
    </contour>
    <contour>
      <point x="142" y="407"/>
      <point x="142" y="460" type="curve" smooth="yes"/>
      <point x="142" y="535" type="line" smooth="yes"/>
      <point x="142" y="587"/>
      <point x="155" y="599"/>
      <point x="207" y="599" type="curve" smooth="yes"/>
      <point x="223" y="599" type="line" smooth="yes"/>
      <point x="275" y="599"/>
      <point x="288" y="587"/>
      <point x="288" y="535" type="curve" smooth="yes"/>
      <point x="288" y="461" type="line" smooth="yes"/>
      <point x="288" y="407"/>
      <point x="275" y="395"/>
      <point x="223" y="395" type="curve" smooth="yes"/>
      <point x="207" y="395" type="line" smooth="yes"/>
      <point x="155" y="395"/>
    </contour>
    <contour>
      <point x="655" y="0" type="curve" smooth="yes"/>
      <point x="671" y="0" type="line" smooth="yes"/>
      <point x="767" y="0"/>
      <point x="814" y="47"/>
      <point x="814" y="144" type="curve" smooth="yes"/>
      <point x="814" y="218" type="line" smooth="yes"/>
      <point x="814" y="314"/>
      <point x="767" y="361"/>
      <point x="671" y="361" type="curve" smooth="yes"/>
      <point x="655" y="361" type="line" smooth="yes"/>
      <point x="559" y="361"/>
      <point x="512" y="315"/>
      <point x="512" y="218" type="curve" smooth="yes"/>
      <point x="512" y="143" type="line" smooth="yes"/>
      <point x="512" y="47"/>
      <point x="559" y="0"/>
    </contour>
    <contour>
      <point x="590" y="91"/>
      <point x="590" y="143" type="curve" smooth="yes"/>
      <point x="590" y="218" type="line" smooth="yes"/>
      <point x="590" y="271"/>
      <point x="603" y="283"/>
      <point x="655" y="283" type="curve" smooth="yes"/>
      <point x="671" y="283" type="line" smooth="yes"/>
      <point x="723" y="283"/>
      <point x="736" y="270"/>
      <point x="736" y="218" type="curve" smooth="yes"/>
      <point x="736" y="144" type="line" smooth="yes"/>
      <point x="736" y="91"/>
      <point x="723" y="78"/>
      <point x="671" y="78" type="curve" smooth="yes"/>
      <point x="655" y="78" type="line" smooth="yes"/>
      <point x="603" y="78"/>
    </contour>
    <component base="fraction" xOffset="339"/>
  </outline>
</glyph>
<glyph name="ampersand" format="2">
  <advance width="650"/>
  <unicode hex="0026"/>
  <outline>
    <contour>
      <point x="600" y="3"/>
      <point x="617" y="23" type="curve" smooth="yes"/>
      <point x="636" y="44"/>
      <point x="635" y="64"/>
      <point x="614" y="83" type="curve" smooth="yes"/>
      <point x="277" y="382" type="line" smooth="yes"/>
      <point x="224" y="430"/>
      <point x="214" y="447"/>
      <point x="214" y="488" type="curve" smooth="yes"/>
      <point x="214" y="554"/>
      <point x="232" y="570"/>
      <point x="295" y="570" type="curve" smooth="yes"/>
      <point x="320" y="570" type="line" smooth="yes"/>
      <point x="368" y="570"/>
      <point x="389" y="562"/>
      <point x="397" y="530" type="curve" smooth="yes"/>
      <point x="404" y="503"/>
      <point x="415" y="489"/>
      <point x="442" y="489" type="curve" smooth="yes"/>
      <point x="470" y="489"/>
      <point x="486" y="504"/>
      <point x="483" y="533" type="curve" smooth="yes"/>
      <point x="468" y="615"/>
      <point x="416" y="654"/>
      <point x="320" y="654" type="curve" smooth="yes"/>
      <point x="295" y="654" type="line" smooth="yes"/>
      <point x="183" y="654"/>
      <point x="130" y="599"/>
      <point x="130" y="488" type="curve" smooth="yes"/>
      <point x="130" y="421"/>
      <point x="150" y="382"/>
      <point x="221" y="320" type="curve" smooth="yes"/>
      <point x="558" y="20" type="line" smooth="yes"/>
      <point x="579" y="1"/>
    </contour>
    <contour>
      <point x="283" y="-21" type="curve" smooth="yes"/>
      <point x="315" y="-21" type="line" smooth="yes"/>
      <point x="467" y="-21"/>
      <point x="538" y="50"/>
      <point x="538" y="202" type="curve" smooth="yes"/>
      <point x="538" y="237" type="line" smooth="yes"/>
      <point x="538" y="264"/>
      <point x="523" y="279"/>
      <point x="496" y="279" type="curve" smooth="yes"/>
      <point x="469" y="279"/>
      <point x="454" y="264"/>
      <point x="454" y="237" type="curve" smooth="yes"/>
      <point x="454" y="202" type="line" smooth="yes"/>
      <point x="454" y="96"/>
      <point x="421" y="63"/>
      <point x="315" y="63" type="curve" smooth="yes"/>
      <point x="283" y="63" type="line" smooth="yes"/>
      <point x="176" y="63"/>
      <point x="144" y="95"/>
      <point x="144" y="202" type="curve" smooth="yes"/>
      <point x="144" y="270"/>
      <point x="156" y="305"/>
      <point x="189" y="324" type="curve" smooth="yes"/>
      <point x="212" y="335"/>
      <point x="227" y="350"/>
      <point x="222" y="376" type="curve" smooth="yes"/>
      <point x="217" y="402"/>
      <point x="193" y="417"/>
      <point x="167" y="406" type="curve" smooth="yes"/>
      <point x="94" y="376"/>
      <point x="60" y="309"/>
      <point x="60" y="202" type="curve" smooth="yes"/>
      <point x="60" y="49"/>
      <point x="130" y="-21"/>
    </contour>
  </outline>
</glyph>
<glyph name="quotesingle" format="2">
  <advance width="238"/>
  <unicode hex="0027"/>
  <outline>
    <contour>
      <point x="119" y="449" type="curve" smooth="yes"/>
      <point x="138" y="449"/>
      <point x="154" y="465"/>
      <point x="154" y="484" type="curve" smooth="yes"/>
      <point x="154" y="688" type="line" smooth="yes"/>
      <point x="154" y="707"/>
      <point x="138" y="723"/>
      <point x="119" y="723" type="curve" smooth="yes"/>
      <point x="100" y="723"/>
      <point x="84" y="707"/>
      <point x="84" y="688" type="curve" smooth="yes"/>
      <point x="84" y="484" type="line" smooth="yes"/>
      <point x="84" y="465"/>
      <point x="100" y="449"/>
    </contour>
  </outline>
</glyph>
<glyph name="parenleft" format="2">
  <advance width="298"/>
  <unicode hex="0028"/>
  <outline>
    <contour>
      <point x="253" y="-175" type="curve" smooth="yes"/>
      <point x="272" y="-175"/>
      <point x="288" y="-159"/>
      <point x="288" y="-140" type="curve" smooth="yes"/>
      <point x="288" y="-121"/>
      <point x="272" y="-105"/>
      <point x="253" y="-105" type="curve" smooth="yes"/>
      <point x="164" y="-105"/>
      <point x="134" y="-67"/>
      <point x="134" y="54" type="curve" smooth="yes"/>
      <point x="134" y="439" type="line" smooth="yes"/>
      <point x="134" y="567"/>
      <point x="164" y="608"/>
      <point x="253" y="608" type="curve" smooth="yes"/>
      <point x="272" y="608"/>
      <point x="288" y="624"/>
      <point x="288" y="643" type="curve" smooth="yes"/>
      <point x="288" y="662"/>
      <point x="272" y="678"/>
      <point x="253" y="678" type="curve" smooth="yes"/>
      <point x="122" y="678"/>
      <point x="64" y="603"/>
      <point x="64" y="439" type="curve" smooth="yes"/>
      <point x="64" y="54" type="line" smooth="yes"/>
      <point x="64" y="-103"/>
      <point x="122" y="-175"/>
    </contour>
  </outline>
</glyph>
<glyph name="asterisk" format="2">
  <advance width="402"/>
  <unicode hex="002A"/>
  <outline>
    <contour>
      <point x="201" y="351" type="curve" smooth="yes"/>
      <point x="225" y="351"/>
      <point x="235" y="364"/>
      <point x="235" y="386" type="curve" smooth="yes"/>
      <point x="235" y="471" type="line"/>
      <point x="202" y="452" type="line"/>
      <point x="276" y="409" type="line" smooth="yes"/>
      <point x="295" y="398"/>
      <point x="310" y="401"/>
      <point x="323" y="422" type="curve" smooth="yes"/>
      <point x="335" y="441"/>
      <point x="332" y="457"/>
      <point x="311" y="469" type="curve" smooth="yes"/>
      <point x="237" y="512" type="line"/>
      <point x="237" y="475" type="line"/>
      <point x="311" y="516" type="line" smooth="yes"/>
      <point x="332" y="528"/>
      <point x="335" y="544"/>
      <point x="323" y="564" type="curve" smooth="yes"/>
      <point x="311" y="583"/>
      <point x="297" y="588"/>
      <point x="276" y="576" type="curve" smooth="yes"/>
      <point x="202" y="533" type="line"/>
      <point x="235" y="514" type="line"/>
      <point x="235" y="600" type="line" smooth="yes"/>
      <point x="235" y="623"/>
      <point x="224" y="635"/>
      <point x="201" y="635" type="curve" smooth="yes"/>
      <point x="177" y="635"/>
      <point x="165" y="622"/>
      <point x="165" y="600" type="curve" smooth="yes"/>
      <point x="165" y="515" type="line"/>
      <point x="198" y="534" type="line"/>
      <point x="126" y="576" type="line" smooth="yes"/>
      <point x="107" y="587"/>
      <point x="88" y="583"/>
      <point x="77" y="564" type="curve" smooth="yes"/>
      <point x="67" y="547"/>
      <point x="70" y="528"/>
      <point x="91" y="516" type="curve" smooth="yes"/>
      <point x="165" y="475" type="line"/>
      <point x="165" y="512" type="line"/>
      <point x="91" y="469" type="line" smooth="yes"/>
      <point x="71" y="458"/>
      <point x="66" y="441"/>
      <point x="77" y="422" type="curve" smooth="yes"/>
      <point x="88" y="403"/>
      <point x="107" y="398"/>
      <point x="126" y="409" type="curve" smooth="yes"/>
      <point x="198" y="451" type="line"/>
      <point x="165" y="470" type="line"/>
      <point x="165" y="386" type="line" smooth="yes"/>
      <point x="165" y="363"/>
      <point x="178" y="351"/>
    </contour>
  </outline>
</glyph>
<glyph name="comma" format="2">
  <advance width="258"/>
  <unicode hex="002C"/>
  <outline>
    <contour>
      <point x="79" y="-127" type="curve" smooth="yes"/>
      <point x="94" y="-127"/>
      <point x="105" y="-118"/>
      <point x="112" y="-105" type="curve" smooth="yes"/>
      <point x="171" y="21" type="line"/>
      <point x="73" y="73" type="line"/>
      <point x="44" y="-92" type="line" smooth="yes"/>
      <point x="40" y="-118"/>
      <point x="60" y="-127"/>
    </contour>
    <component base="period" xOffset="-12"/>
  </outline>
</glyph>
<glyph name="hyphen" format="2">
  <advance width="514"/>
  <unicode hex="002D"/>
  <outline>
    <contour>
      <point x="119" y="235" type="curve" smooth="yes"/>
      <point x="395" y="235" type="line" smooth="yes"/>
      <point x="414" y="235"/>
      <point x="430" y="251"/>
      <point x="430" y="270" type="curve" smooth="yes"/>
      <point x="430" y="289"/>
      <point x="414" y="305"/>
      <point x="395" y="305" type="curve" smooth="yes"/>
      <point x="119" y="305" type="line" smooth="yes"/>
      <point x="100" y="305"/>
      <point x="84" y="289"/>
      <point x="84" y="270" type="curve" smooth="yes"/>
      <point x="84" y="251"/>
      <point x="100" y="235"/>
    </contour>
  </outline>
</glyph>
<glyph name="period" format="2">
  <advance width="270"/>
  <unicode hex="002E"/>
  <outline>
    <contour>
      <point x="124" y="0" type="curve" smooth="yes"/>
      <point x="148" y="0" type="line" smooth="yes"/>
      <point x="173" y="0"/>
      <point x="186" y="15"/>
      <point x="186" y="40" type="curve" smooth="yes"/>
      <point x="186" y="65" type="line" smooth="yes"/>
      <point x="186" y="91"/>
      <point x="173" y="104"/>
      <point x="148" y="104" type="curve" smooth="yes"/>
      <point x="124" y="104" type="line" smooth="yes"/>
      <point x="99" y="104"/>
      <point x="84" y="91"/>
      <point x="84" y="65" type="curve" smooth="yes"/>
      <point x="84" y="40" type="line" smooth="yes"/>
      <point x="84" y="15"/>
      <point x="99" y="0"/>
    </contour>
  </outline>
</glyph>
<glyph name="slash" format="2">
  <advance width="322"/>
  <unicode hex="002F"/>
  <outline>
    <contour>
      <point x="79" y="-153" type="curve" smooth="yes"/>
      <point x="100" y="-153"/>
      <point x="114" y="-142"/>
      <point x="120" y="-120" type="curve" smooth="yes"/>
      <point x="324" y="676" type="line" smooth="yes"/>
      <point x="334" y="707"/>
      <point x="316" y="730"/>
      <point x="284" y="730" type="curve" smooth="yes"/>
      <point x="262" y="730"/>
      <point x="250" y="719"/>
      <point x="243" y="697" type="curve" smooth="yes"/>
      <point x="38" y="-99" type="line" smooth="yes"/>
      <point x="30" y="-131"/>
      <point x="47" y="-153"/>
    </contour>
  </outline>
</glyph>
<glyph name="one" format="2">
  <advance width="389"/>
  <unicode hex="0031"/>
  <outline>
    <contour>
      <point x="247" y="0" type="curve" smooth="yes"/>
      <point x="274" y="0"/>
      <point x="289" y="15"/>
      <point x="289" y="42" type="curve" smooth="yes"/>
      <point x="289" y="636" type="line" smooth="yes"/>
      <point x="289" y="663"/>
      <point x="276" y="678"/>
      <point x="253" y="678" type="curve" smooth="yes"/>
      <point x="231" y="678"/>
      <point x="216" y="672"/>
      <point x="201" y="657" type="curve" smooth="yes"/>
      <point x="67" y="525" type="line" smooth="yes"/>
      <point x="48" y="506"/>
      <point x="47" y="485"/>
      <point x="64" y="468" type="curve" smooth="yes"/>
      <point x="82" y="450"/>
      <point x="101" y="455"/>
      <point x="118" y="471" type="curve" smooth="yes"/>
      <point x="228" y="574" type="line"/>
      <point x="205" y="558" type="line"/>
      <point x="205" y="42" type="line" smooth="yes"/>
      <point x="205" y="15"/>
      <point x="219" y="0"/>
    </contour>
  </outline>
</glyph>
<glyph name="two" format="2">
  <advance width="575"/>
  <unicode hex="0032"/>
  <outline>
    <contour>
      <point x="471" y="0" type="line" smooth="yes"/>
      <point x="498" y="0"/>
      <point x="513" y="15"/>
      <point x="513" y="42" type="curve" smooth="yes"/>
      <point x="513" y="69"/>
      <point x="498" y="84"/>
      <point x="471" y="84" type="curve" smooth="yes"/>
      <point x="141" y="84" type="line"/>
      <point x="157" y="176"/>
      <point x="231" y="214"/>
      <point x="311" y="260" type="curve" smooth="yes"/>
      <point x="421" y="322"/>
      <point x="521" y="373"/>
      <point x="521" y="493" type="curve" smooth="yes"/>
      <point x="521" y="618"/>
      <point x="461" y="678"/>
      <point x="336" y="678" type="curve" smooth="yes"/>
      <point x="229" y="678" type="line" smooth="yes"/>
      <point x="119" y="678"/>
      <point x="60" y="632"/>
      <point x="46" y="538" type="curve" smooth="yes"/>
      <point x="43" y="509"/>
      <point x="59" y="494"/>
      <point x="87" y="494" type="curve" smooth="yes"/>
      <point x="114" y="494"/>
      <point x="126" y="508"/>
      <point x="131" y="535" type="curve" smooth="yes"/>
      <point x="139" y="580"/>
      <point x="166" y="594"/>
      <point x="229" y="594" type="curve" smooth="yes"/>
      <point x="336" y="594" type="line" smooth="yes"/>
      <point x="414" y="594"/>
      <point x="437" y="572"/>
      <point x="437" y="493" type="curve" smooth="yes"/>
      <point x="437" y="424"/>
      <point x="381" y="396"/>
      <point x="270" y="333" type="curve" smooth="yes"/>
      <point x="184" y="284"/>
      <point x="54" y="221"/>
      <point x="54" y="42" type="curve" smooth="yes"/>
      <point x="54" y="14"/>
      <point x="70" y="0"/>
      <point x="97" y="0" type="curve" smooth="yes"/>
    </contour>
  </outline>
</glyph>
<glyph name="three" format="2">
  <advance width="654"/>
  <unicode hex="0033"/>
  <outline>
    <contour>
      <point x="257" y="0" type="curve" smooth="yes"/>
      <point x="371" y="0" type="line" smooth="yes"/>
      <point x="504" y="0"/>
      <point x="566" y="62"/>
      <point x="566" y="194" type="curve" smooth="yes"/>
      <point x="566" y="277"/>
      <point x="544" y="332"/>
      <point x="498" y="362" type="curve"/>
      <point x="533" y="388"/>
      <point x="550" y="432"/>
      <point x="550" y="493" type="curve" smooth="yes"/>
      <point x="550" y="618"/>
      <point x="490" y="678"/>
      <point x="365" y="678" type="curve" smooth="yes"/>
      <point x="268" y="678" type="line" smooth="yes"/>
      <point x="159" y="678"/>
      <point x="99" y="632"/>
      <point x="86" y="538" type="curve" smooth="yes"/>
      <point x="82" y="509"/>
      <point x="98" y="494"/>
      <point x="126" y="494" type="curve" smooth="yes"/>
      <point x="153" y="494"/>
      <point x="166" y="508"/>
      <point x="170" y="535" type="curve" smooth="yes"/>
      <point x="178" y="580"/>
      <point x="205" y="594"/>
      <point x="268" y="594" type="curve" smooth="yes"/>
      <point x="365" y="594" type="line" smooth="yes"/>
      <point x="443" y="594"/>
      <point x="466" y="572"/>
      <point x="466" y="493" type="curve" smooth="yes"/>
      <point x="466" y="428"/>
      <point x="451" y="388"/>
      <point x="409" y="388" type="curve" smooth="yes"/>
      <point x="294" y="388" type="line" smooth="yes"/>
      <point x="267" y="388"/>
      <point x="252" y="373"/>
      <point x="252" y="346" type="curve" smooth="yes"/>
      <point x="252" y="318"/>
      <point x="267" y="304"/>
      <point x="294" y="304" type="curve" smooth="yes"/>
      <point x="371" y="304" type="line" smooth="yes"/>
      <point x="457" y="304"/>
      <point x="482" y="278"/>
      <point x="482" y="194" type="curve" smooth="yes"/>
      <point x="482" y="109"/>
      <point x="457" y="84"/>
      <point x="371" y="84" type="curve" smooth="yes"/>
      <point x="257" y="84" type="line" smooth="yes"/>
      <point x="186" y="84"/>
      <point x="157" y="100"/>
      <point x="148" y="152" type="curve" smooth="yes"/>
      <point x="145" y="179"/>
      <point x="132" y="194"/>
      <point x="105" y="194" type="curve" smooth="yes"/>
      <point x="77" y="194"/>
      <point x="61" y="178"/>
      <point x="64" y="150" type="curve" smooth="yes"/>
      <point x="77" y="48"/>
      <point x="140" y="0"/>
    </contour>
  </outline>
</glyph>
<glyph name="four" format="2">
  <advance width="623"/>
  <unicode hex="0034"/>
  <outline>
    <contour>
      <point x="437" y="0" type="curve" smooth="yes"/>
      <point x="465" y="0"/>
      <point x="479" y="15"/>
      <point x="479" y="42" type="curve" smooth="yes"/>
      <point x="480" y="636" type="line" smooth="yes"/>
      <point x="480" y="663"/>
      <point x="465" y="678"/>
      <point x="434" y="678" type="curve" smooth="yes"/>
      <point x="409" y="678"/>
      <point x="392" y="675"/>
      <point x="375" y="652" type="curve" smooth="yes"/>
      <point x="61" y="228" type="line" smooth="yes"/>
      <point x="49" y="211"/>
      <point x="44" y="199"/>
      <point x="44" y="184" type="curve" smooth="yes"/>
      <point x="44" y="157"/>
      <point x="59" y="142"/>
      <point x="86" y="142" type="curve" smooth="yes"/>
      <point x="537" y="142" type="line" smooth="yes"/>
      <point x="564" y="142"/>
      <point x="579" y="157"/>
      <point x="579" y="184" type="curve" smooth="yes"/>
      <point x="579" y="208"/>
      <point x="564" y="226"/>
      <point x="537" y="226" type="curve"/>
      <point x="126" y="224" type="line"/>
      <point x="133" y="203" type="line"/>
      <point x="429" y="604" type="line"/>
      <point x="396" y="580" type="line"/>
      <point x="395" y="42" type="line" smooth="yes"/>
      <point x="395" y="15"/>
      <point x="410" y="0"/>
    </contour>
  </outline>
</glyph>
<glyph name="five" format="2">
  <advance width="668"/>
  <unicode hex="0035"/>
  <outline>
    <contour>
      <point x="281.007" y="0" type="curve" smooth="yes"/>
      <point x="385.007" y="0" type="line" smooth="yes"/>
      <point x="517" y="0"/>
      <point x="580" y="63"/>
      <point x="580.007" y="195" type="curve" smooth="yes"/>
      <point x="580.007" y="264" type="line" smooth="yes"/>
      <point x="580" y="396"/>
      <point x="517" y="459"/>
      <point x="385.007" y="459" type="curve" smooth="yes"/>
      <point x="311.007" y="459" type="line" smooth="yes"/>
      <point x="262" y="459"/>
      <point x="221" y="453"/>
      <point x="187" y="441" type="curve"/>
      <point x="187" y="594" type="line"/>
      <point x="538" y="594" type="line" smooth="yes"/>
      <point x="565" y="594"/>
      <point x="580" y="609"/>
      <point x="580" y="636" type="curve" smooth="yes"/>
      <point x="580" y="663"/>
      <point x="565" y="678"/>
      <point x="538" y="678" type="curve" smooth="yes"/>
      <point x="145" y="678" type="line" smooth="yes"/>
      <point x="118" y="678"/>
      <point x="103" y="663"/>
      <point x="103" y="636" type="curve" smooth="yes"/>
      <point x="103" y="394" type="line" smooth="yes"/>
      <point x="103" y="369"/>
      <point x="114" y="354"/>
      <point x="138" y="347" type="curve" smooth="yes"/>
      <point x="148" y="344" type="line" smooth="yes"/>
      <point x="170" y="337"/>
      <point x="184" y="345"/>
      <point x="204" y="357" type="curve" smooth="yes"/>
      <point x="226" y="369"/>
      <point x="261" y="375"/>
      <point x="311.007" y="375" type="curve" smooth="yes"/>
      <point x="385.007" y="375" type="line" smooth="yes"/>
      <point x="470" y="375"/>
      <point x="496" y="350"/>
      <point x="496.007" y="264" type="curve" smooth="yes"/>
      <point x="496.007" y="195" type="line" smooth="yes"/>
      <point x="496" y="110"/>
      <point x="471" y="84"/>
      <point x="385.007" y="84" type="curve" smooth="yes"/>
      <point x="281.007" y="84" type="line" smooth="yes"/>
      <point x="210" y="84"/>
      <point x="181" y="101"/>
      <point x="172" y="153" type="curve" smooth="yes"/>
      <point x="169" y="180"/>
      <point x="156" y="194"/>
      <point x="129" y="194" type="curve" smooth="yes"/>
      <point x="101" y="194"/>
      <point x="85" y="178"/>
      <point x="88" y="150" type="curve" smooth="yes"/>
      <point x="101" y="48"/>
      <point x="164" y="0"/>
    </contour>
  </outline>
</glyph>
<glyph name="six" format="2">
  <advance width="670"/>
  <unicode hex="0036"/>
  <outline>
    <contour>
      <point x="283" y="0" type="curve" smooth="yes"/>
      <point x="387" y="0" type="line" smooth="yes"/>
      <point x="519" y="0"/>
      <point x="582" y="62"/>
      <point x="582" y="195" type="curve" smooth="yes"/>
      <point x="582" y="262" type="line" smooth="yes"/>
      <point x="582" y="394"/>
      <point x="519" y="457"/>
      <point x="387" y="457" type="curve" smooth="yes"/>
      <point x="283" y="457" type="line" smooth="yes"/>
      <point x="234" y="457"/>
      <point x="197" y="440"/>
      <point x="172" y="410" type="curve"/>
      <point x="172" y="493" type="line" smooth="yes"/>
      <point x="172" y="571"/>
      <point x="194" y="594"/>
      <point x="273" y="594" type="curve" smooth="yes"/>
      <point x="397" y="594" type="line" smooth="yes"/>
      <point x="460" y="594"/>
      <point x="487" y="580"/>
      <point x="495" y="535" type="curve" smooth="yes"/>
      <point x="499" y="508"/>
      <point x="512" y="494"/>
      <point x="539" y="494" type="curve" smooth="yes"/>
      <point x="567" y="494"/>
      <point x="583" y="509"/>
      <point x="579" y="538" type="curve" smooth="yes"/>
      <point x="566" y="632"/>
      <point x="506" y="678"/>
      <point x="397" y="678" type="curve" smooth="yes"/>
      <point x="273" y="678" type="line" smooth="yes"/>
      <point x="148" y="678"/>
      <point x="88" y="618"/>
      <point x="88" y="493" type="curve" smooth="yes"/>
      <point x="88" y="194" type="line" smooth="yes"/>
      <point x="88" y="62"/>
      <point x="150" y="0"/>
    </contour>
    <contour>
      <point x="283" y="84" type="line" smooth="yes"/>
      <point x="197" y="84"/>
      <point x="172" y="109"/>
      <point x="172" y="194" type="curve" smooth="yes"/>
      <point x="172" y="263" type="line" smooth="yes"/>
      <point x="172" y="347"/>
      <point x="197" y="373"/>
      <point x="283" y="373" type="curve" smooth="yes"/>
      <point x="387" y="373" type="line" smooth="yes"/>
      <point x="472" y="373"/>
      <point x="498" y="348"/>
      <point x="498" y="262" type="curve" smooth="yes"/>
      <point x="498" y="195" type="line" smooth="yes"/>
      <point x="498" y="110"/>
      <point x="473" y="84"/>
      <point x="387" y="84" type="curve" smooth="yes"/>
    </contour>
  </outline>
</glyph>
<glyph name="seven" format="2">
  <advance width="531"/>
  <unicode hex="0037"/>
  <outline>
    <contour>
      <point x="196" y="0" type="curve" smooth="yes"/>
      <point x="224" y="0"/>
      <point x="238" y="15"/>
      <point x="239" y="44" type="curve" smooth="yes"/>
      <point x="242" y="213"/>
      <point x="267" y="268"/>
      <point x="355" y="329" type="curve" smooth="yes"/>
      <point x="447" y="399"/>
      <point x="487" y="493"/>
      <point x="487" y="636" type="curve" smooth="yes"/>
      <point x="487" y="663"/>
      <point x="472" y="678"/>
      <point x="445" y="678" type="curve" smooth="yes"/>
      <point x="86" y="678" type="line" smooth="yes"/>
      <point x="59" y="678"/>
      <point x="44" y="663"/>
      <point x="44" y="636" type="curve" smooth="yes"/>
      <point x="44" y="609"/>
      <point x="59" y="594"/>
      <point x="86" y="594" type="curve" smooth="yes"/>
      <point x="402" y="594" type="line"/>
      <point x="396" y="502"/>
      <point x="366" y="444"/>
      <point x="306" y="397" type="curve" smooth="yes"/>
      <point x="197" y="321"/>
      <point x="159" y="249"/>
      <point x="155" y="44" type="curve" smooth="yes"/>
      <point x="154" y="15"/>
      <point x="169.002" y="0"/>
    </contour>
  </outline>
</glyph>
<glyph name="eight" format="2">
  <advance width="680"/>
  <unicode hex="0038"/>
  <outline>
    <contour>
      <point x="508" y="352" type="curve"/>
      <point x="554" y="384"/>
      <point x="576" y="432"/>
      <point x="576" y="496" type="curve" smooth="yes"/>
      <point x="576" y="619"/>
      <point x="516" y="678"/>
      <point x="391" y="678" type="curve" smooth="yes"/>
      <point x="294" y="678" type="line" smooth="yes"/>
      <point x="169" y="678"/>
      <point x="109" y="619"/>
      <point x="109" y="496" type="curve" smooth="yes"/>
      <point x="109" y="434"/>
      <point x="131" y="387"/>
      <point x="175" y="354" type="curve"/>
      <point x="116" y="323"/>
      <point x="88" y="270"/>
      <point x="88" y="194" type="curve" smooth="yes"/>
      <point x="88" y="62"/>
      <point x="150" y="0"/>
      <point x="283" y="0" type="curve" smooth="yes"/>
      <point x="397" y="0" type="line" smooth="yes"/>
      <point x="530" y="0"/>
      <point x="592" y="62"/>
      <point x="592" y="194" type="curve" smooth="yes"/>
      <point x="592" y="268"/>
      <point x="565" y="320"/>
    </contour>
    <contour>
      <point x="294" y="594" type="curve" smooth="yes"/>
      <point x="391" y="594" type="line" smooth="yes"/>
      <point x="470" y="594"/>
      <point x="492" y="571"/>
      <point x="492" y="496" type="curve" smooth="yes"/>
      <point x="492" y="426"/>
      <point x="478" y="387"/>
      <point x="392" y="387" type="curve"/>
      <point x="278" y="388" type="line"/>
      <point x="217" y="388"/>
      <point x="193" y="412"/>
      <point x="193" y="496" type="curve" smooth="yes"/>
      <point x="193" y="571"/>
      <point x="215" y="594"/>
    </contour>
    <contour>
      <point x="397" y="84" type="curve" smooth="yes"/>
      <point x="283" y="84" type="line" smooth="yes"/>
      <point x="197" y="84"/>
      <point x="172" y="109"/>
      <point x="172" y="194" type="curve" smooth="yes"/>
      <point x="172" y="279"/>
      <point x="197" y="304"/>
      <point x="283" y="304" type="curve"/>
      <point x="397" y="304" type="line"/>
      <point x="483" y="304"/>
      <point x="508" y="279"/>
      <point x="508" y="194" type="curve" smooth="yes"/>
      <point x="508" y="109"/>
      <point x="483" y="84"/>
    </contour>
  </outline>
</glyph>
<glyph name="less" format="2">
  <advance width="609"/>
  <unicode hex="003C"/>
  <outline>
    <contour>
      <point x="469" y="122"/>
      <point x="481" y="143" type="curve" smooth="yes"/>
      <point x="492" y="163"/>
      <point x="487" y="180"/>
      <point x="467" y="192" type="curve" smooth="yes"/>
      <point x="200" y="342" type="line"/>
      <point x="200" y="314" type="line"/>
      <point x="466" y="461" type="line" smooth="yes"/>
      <point x="487" y="473"/>
      <point x="492" y="490"/>
      <point x="481" y="511" type="curve" smooth="yes"/>
      <point x="469" y="531"/>
      <point x="452" y="536"/>
      <point x="431" y="525" type="curve" smooth="yes"/>
      <point x="149" y="368" type="line" smooth="yes"/>
      <point x="132" y="358"/>
      <point x="124" y="347"/>
      <point x="124" y="330" type="curve" smooth="yes"/>
      <point x="124" y="310"/>
      <point x="132" y="297"/>
      <point x="149" y="287" type="curve" smooth="yes"/>
      <point x="431" y="129" type="line" smooth="yes"/>
      <point x="452" y="118"/>
    </contour>
  </outline>
</glyph>
<glyph name="question" format="2">
  <advance width="511"/>
  <unicode hex="003F"/>
  <outline>
    <contour>
      <point x="238" y="166" type="curve" smooth="yes"/>
      <point x="266" y="166"/>
      <point x="280" y="180"/>
      <point x="280" y="208" type="curve" smooth="yes"/>
      <point x="280" y="264"/>
      <point x="304" y="277"/>
      <point x="348" y="303" type="curve" smooth="yes"/>
      <point x="391" y="327"/>
      <point x="457" y="363"/>
      <point x="457" y="469" type="curve" smooth="yes"/>
      <point x="457" y="594"/>
      <point x="397" y="654"/>
      <point x="272" y="654" type="curve" smooth="yes"/>
      <point x="205" y="654" type="line" smooth="yes"/>
      <point x="81" y="654"/>
      <point x="20" y="593"/>
      <point x="20" y="469" type="curve" smooth="yes"/>
      <point x="20" y="441"/>
      <point x="34" y="427"/>
      <point x="62" y="427" type="curve" smooth="yes"/>
      <point x="90" y="427"/>
      <point x="104" y="441"/>
      <point x="104" y="469" type="curve" smooth="yes"/>
      <point x="104" y="546"/>
      <point x="126" y="570"/>
      <point x="205" y="570" type="curve" smooth="yes"/>
      <point x="272" y="570" type="line" smooth="yes"/>
      <point x="351" y="570"/>
      <point x="373" y="548"/>
      <point x="373" y="469" type="curve" smooth="yes"/>
      <point x="373" y="413"/>
      <point x="349" y="400"/>
      <point x="305" y="374" type="curve" smooth="yes"/>
      <point x="262" y="350"/>
      <point x="196" y="314"/>
      <point x="196" y="208" type="curve" smooth="yes"/>
      <point x="196" y="180"/>
      <point x="210" y="166"/>
    </contour>
    <component base="period" xOffset="102"/>
  </outline>
</glyph>
<glyph name="at" format="2">
  <advance width="741"/>
  <unicode hex="0040"/>
  <outline>
    <contour>
      <point x="605" y="-1"/>
      <point x="641" y="29" type="curve" smooth="yes"/>
      <point x="649" y="36"/>
      <point x="653" y="45"/>
      <point x="653" y="56" type="curve" smooth="yes"/>
      <point x="653" y="75"/>
      <point x="637" y="91"/>
      <point x="618" y="91" type="curve" smooth="yes"/>
      <point x="609" y="91"/>
      <point x="601" y="88"/>
      <point x="596" y="83" type="curve" smooth="yes"/>
      <point x="571" y="63"/>
      <point x="552" y="56"/>
      <point x="515" y="56" type="curve" smooth="yes"/>
      <point x="240" y="56" type="line" smooth="yes"/>
      <point x="168" y="55"/>
      <point x="150" y="73"/>
      <point x="150" y="150" type="curve" smooth="yes"/>
      <point x="150" y="403" type="line" smooth="yes"/>
      <point x="150" y="480"/>
      <point x="168" y="498"/>
      <point x="240" y="497" type="curve" smooth="yes"/>
      <point x="500" y="497" type="line" smooth="yes"/>
      <point x="573" y="497"/>
      <point x="591" y="479"/>
      <point x="591" y="402" type="curve" smooth="yes"/>
      <point x="591" y="217" type="line" smooth="yes"/>
      <point x="591" y="193"/>
      <point x="590" y="190"/>
      <point x="555" y="190" type="curve" smooth="yes"/>
      <point x="521" y="190"/>
      <point x="520" y="191"/>
      <point x="520" y="217" type="curve" smooth="yes"/>
      <point x="520" y="381" type="line" smooth="yes"/>
      <point x="520" y="399"/>
      <point x="503" y="416"/>
      <point x="485" y="416" type="curve" smooth="yes"/>
      <point x="474" y="416"/>
      <point x="464" y="411"/>
      <point x="457" y="384" type="curve"/>
      <point x="437" y="411"/>
      <point x="414" y="416"/>
      <point x="384" y="416" type="curve" smooth="yes"/>
      <point x="343" y="416" type="line" smooth="yes"/>
      <point x="251" y="416"/>
      <point x="207" y="373"/>
      <point x="207" y="277" type="curve" smooth="yes"/>
      <point x="207" y="254" type="line" smooth="yes"/>
      <point x="207" y="162"/>
      <point x="251" y="118"/>
      <point x="344" y="118" type="curve" smooth="yes"/>
      <point x="351" y="118" type="line" smooth="yes"/>
      <point x="400" y="118"/>
      <point x="441" y="128"/>
      <point x="470" y="169" type="curve"/>
      <point x="487" y="130"/>
      <point x="515" y="120"/>
      <point x="555" y="120" type="curve" smooth="yes"/>
      <point x="627" y="120"/>
      <point x="661" y="150"/>
      <point x="661" y="217" type="curve" smooth="yes"/>
      <point x="661" y="402" type="line" smooth="yes"/>
      <point x="661" y="517"/>
      <point x="613" y="567"/>
      <point x="500" y="567" type="curve" smooth="yes"/>
      <point x="240" y="567" type="line" smooth="yes"/>
      <point x="129" y="568"/>
      <point x="80" y="517"/>
      <point x="80" y="403" type="curve" smooth="yes"/>
      <point x="80" y="150" type="line" smooth="yes"/>
      <point x="80" y="36"/>
      <point x="129" y="-15"/>
      <point x="240" y="-14" type="curve" smooth="yes"/>
      <point x="515" y="-14" type="line" smooth="yes"/>
      <point x="566" y="-14"/>
    </contour>
    <contour>
      <point x="277" y="200"/>
      <point x="277" y="254" type="curve" smooth="yes"/>
      <point x="277" y="277" type="line" smooth="yes"/>
      <point x="277" y="335"/>
      <point x="289" y="346"/>
      <point x="343" y="346" type="curve" smooth="yes"/>
      <point x="384" y="346" type="line" smooth="yes"/>
      <point x="439" y="346"/>
      <point x="450" y="335"/>
      <point x="450" y="276" type="curve" smooth="yes"/>
      <point x="450" y="254" type="line" smooth="yes"/>
      <point x="450" y="210"/>
      <point x="421" y="188"/>
      <point x="351" y="188" type="curve" smooth="yes"/>
      <point x="344" y="188" type="line" smooth="yes"/>
      <point x="290" y="188"/>
    </contour>
  </outline>
</glyph>
<glyph name="A" format="2">
  <advance width="666"/>
  <unicode hex="0041"/>
  <anchor x="333" y="0" name="bottom"/>
  <anchor x="562" y="0" name="ogonek"/>
  <anchor x="334" y="678" name="top"/>
  <outline>
    <contour>
      <point x="116" y="2"/>
      <point x="126" y="27" type="curve"/>
      <point x="330" y="545" type="line"/>
      <point x="543" y="27" type="line" smooth="yes"/>
      <point x="553" y="2"/>
      <point x="572" y="-6"/>
      <point x="598" y="4" type="curve" smooth="yes"/>
      <point x="623" y="14"/>
      <point x="631" y="34"/>
      <point x="621" y="59" type="curve" smooth="yes"/>
      <point x="379" y="645" type="line" smooth="yes"/>
      <point x="371" y="667"/>
      <point x="356" y="677"/>
      <point x="335" y="678" type="curve"/>
      <point x="333" y="678" type="line"/>
      <point x="311" y="678"/>
      <point x="296" y="667"/>
      <point x="286" y="645" type="curve" smooth="yes"/>
      <point x="48" y="59" type="line" smooth="yes"/>
      <point x="38" y="34"/>
      <point x="46" y="14"/>
      <point x="72" y="4" type="curve" smooth="yes"/>
      <point x="96" y="-6"/>
    </contour>
    <contour>
      <point x="154" y="158" type="curve" smooth="yes"/>
      <point x="511" y="158" type="line" smooth="yes"/>
      <point x="538" y="158"/>
      <point x="553" y="173"/>
      <point x="553" y="200" type="curve" smooth="yes"/>
      <point x="553" y="227"/>
      <point x="538" y="242"/>
      <point x="511" y="242" type="curve" smooth="yes"/>
      <point x="154" y="242" type="line" smooth="yes"/>
      <point x="126" y="242"/>
      <point x="112" y="227"/>
      <point x="112" y="200" type="curve" smooth="yes"/>
      <point x="112" y="173"/>
      <point x="126" y="158"/>
    </contour>
  </outline>
</glyph>
<glyph name="B" format="2">
  <advance width="673"/>
  <unicode hex="0042"/>
  <anchor x="341" y="0" name="bottom"/>
  <anchor x="338" y="678" name="top"/>
  <outline>
    <contour>
      <point x="146" y="0" type="curve" smooth="yes"/>
      <point x="420" y="0" type="line" smooth="yes"/>
      <point x="542" y="0"/>
      <point x="609" y="65"/>
      <point x="609" y="188" type="curve" smooth="yes"/>
      <point x="609" y="222" type="line" smooth="yes"/>
      <point x="609" y="343"/>
      <point x="544" y="409"/>
      <point x="420" y="409" type="curve" smooth="yes"/>
      <point x="188" y="409" type="line" smooth="yes"/>
      <point x="161" y="409"/>
      <point x="146" y="394"/>
      <point x="146" y="367" type="curve" smooth="yes"/>
      <point x="146" y="340"/>
      <point x="161" y="325"/>
      <point x="188" y="325" type="curve" smooth="yes"/>
      <point x="420" y="325" type="line" smooth="yes"/>
      <point x="497" y="325"/>
      <point x="525" y="296"/>
      <point x="525" y="222" type="curve" smooth="yes"/>
      <point x="525" y="188" type="line" smooth="yes"/>
      <point x="525" y="114"/>
      <point x="495" y="84"/>
      <point x="420" y="84" type="curve" smooth="yes"/>
      <point x="188" y="84" type="line"/>
      <point x="188" y="594" type="line"/>
      <point x="407" y="594" type="line" smooth="yes"/>
      <point x="467" y="594"/>
      <point x="488" y="574"/>
      <point x="488" y="516" type="curve" smooth="yes"/>
      <point x="488" y="489" type="line" smooth="yes"/>
      <point x="488" y="443"/>
      <point x="471" y="407"/>
      <point x="428" y="408" type="curve" smooth="yes"/>
      <point x="414" y="409"/>
      <point x="407" y="392"/>
      <point x="407" y="369" type="curve" smooth="yes"/>
      <point x="407" y="359"/>
      <point x="423" y="350"/>
      <point x="451" y="353" type="curve" smooth="yes"/>
      <point x="529" y="360"/>
      <point x="572" y="415"/>
      <point x="572" y="489" type="curve" smooth="yes"/>
      <point x="572" y="516" type="line" smooth="yes"/>
      <point x="572" y="620"/>
      <point x="513" y="678"/>
      <point x="407" y="678" type="curve" smooth="yes"/>
      <point x="146" y="678" type="line" smooth="yes"/>
      <point x="119" y="678"/>
      <point x="104" y="663"/>
      <point x="104" y="636" type="curve" smooth="yes"/>
      <point x="104" y="42" type="line" smooth="yes"/>
      <point x="104" y="15"/>
      <point x="119" y="0"/>
    </contour>
  </outline>
</glyph>
<glyph name="C" format="2">
  <advance width="696"/>
  <unicode hex="0043"/>
  <anchor x="364" y="0" name="bottom"/>
  <anchor x="372" y="678" name="top"/>
  <outline>
    <contour>
      <point x="304" y="0" type="curve" smooth="yes"/>
      <point x="424" y="0" type="line" smooth="yes"/>
      <point x="549" y="0"/>
      <point x="614" y="49"/>
      <point x="625" y="161" type="curve" smooth="yes"/>
      <point x="629" y="189"/>
      <point x="613" y="204"/>
      <point x="585" y="204" type="curve" smooth="yes"/>
      <point x="558" y="204"/>
      <point x="545" y="190"/>
      <point x="541" y="162" type="curve" smooth="yes"/>
      <point x="534" y="101"/>
      <point x="502" y="84"/>
      <point x="424" y="84" type="curve" smooth="yes"/>
      <point x="304" y="84" type="line" smooth="yes"/>
      <point x="197" y="84"/>
      <point x="164" y="117"/>
      <point x="164" y="224" type="curve" smooth="yes"/>
      <point x="164" y="454" type="line" smooth="yes"/>
      <point x="164" y="562"/>
      <point x="197" y="595"/>
      <point x="303" y="594" type="curve" smooth="yes"/>
      <point x="424" y="594" type="line" smooth="yes"/>
      <point x="502" y="594"/>
      <point x="534" y="577"/>
      <point x="541" y="516" type="curve" smooth="yes"/>
      <point x="545" y="488"/>
      <point x="558" y="474"/>
      <point x="585" y="474" type="curve" smooth="yes"/>
      <point x="613" y="474"/>
      <point x="629" y="489"/>
      <point x="625" y="517" type="curve" smooth="yes"/>
      <point x="614" y="628"/>
      <point x="549" y="678"/>
      <point x="424" y="678" type="curve" smooth="yes"/>
      <point x="303" y="678" type="line" smooth="yes"/>
      <point x="151" y="679"/>
      <point x="80" y="608"/>
      <point x="80" y="454" type="curve" smooth="yes"/>
      <point x="80" y="224" type="line" smooth="yes"/>
      <point x="80" y="71"/>
      <point x="151" y="0"/>
    </contour>
  </outline>
</glyph>
<glyph name="D" format="2">
  <advance width="721"/>
  <unicode hex="0044"/>
  <anchor x="341" y="0" name="bottom"/>
  <anchor x="192" y="338" name="center"/>
  <anchor x="353" y="678" name="top"/>
  <outline>
    <contour>
      <point x="146" y="0" type="curve" smooth="yes"/>
      <point x="387" y="0" type="line" smooth="yes"/>
      <point x="562" y="0"/>
      <point x="641" y="80"/>
      <point x="641" y="254" type="curve" smooth="yes"/>
      <point x="641" y="424" type="line" smooth="yes"/>
      <point x="641" y="598"/>
      <point x="561" y="678"/>
      <point x="387" y="678" type="curve" smooth="yes"/>
      <point x="146" y="678" type="line" smooth="yes"/>
      <point x="119" y="678"/>
      <point x="104" y="663"/>
      <point x="104" y="636" type="curve" smooth="yes"/>
      <point x="104" y="42" type="line" smooth="yes"/>
      <point x="104" y="15"/>
      <point x="119" y="0"/>
    </contour>
    <contour>
      <point x="188" y="84" type="line"/>
      <point x="188" y="594" type="line"/>
      <point x="387" y="594" type="line" smooth="yes"/>
      <point x="515" y="594"/>
      <point x="557" y="551"/>
      <point x="557" y="424" type="curve" smooth="yes"/>
      <point x="557" y="254" type="line" smooth="yes"/>
      <point x="557" y="126"/>
      <point x="515" y="84"/>
      <point x="387" y="84" type="curve" smooth="yes"/>
    </contour>
  </outline>
</glyph>
<glyph name="E" format="2">
  <advance width="603"/>
  <unicode hex="0045"/>
  <anchor x="348" y="0" name="bottom"/>
  <anchor x="506" y="41" name="ogonek"/>
  <anchor x="340" y="678" name="top"/>
  <anchor x="110" y="678" name="topleft"/>
  <outline>
    <contour>
      <point x="146" y="0" type="curve" smooth="yes"/>
      <point x="505" y="0" type="line" smooth="yes"/>
      <point x="532" y="0"/>
      <point x="547" y="15"/>
      <point x="547" y="42" type="curve" smooth="yes"/>
      <point x="547" y="69"/>
      <point x="532" y="84"/>
      <point x="505" y="84" type="curve" smooth="yes"/>
      <point x="188" y="84" type="line"/>
      <point x="188" y="594" type="line"/>
      <point x="505" y="594" type="line" smooth="yes"/>
      <point x="532" y="594"/>
      <point x="547" y="609"/>
      <point x="547" y="636" type="curve" smooth="yes"/>
      <point x="547" y="662"/>
      <point x="532" y="678"/>
      <point x="505" y="678" type="curve" smooth="yes"/>
      <point x="146" y="678" type="line" smooth="yes"/>
      <point x="119" y="678"/>
      <point x="104" y="662"/>
      <point x="104" y="636" type="curve" smooth="yes"/>
      <point x="104" y="42" type="line" smooth="yes"/>
      <point x="104" y="15"/>
      <point x="119" y="0"/>
    </contour>
    <contour>
      <point x="188" y="300" type="curve" smooth="yes"/>
      <point x="387" y="300" type="line" smooth="yes"/>
      <point x="414" y="300"/>
      <point x="429" y="315"/>
      <point x="429" y="342" type="curve" smooth="yes"/>
      <point x="429" y="369"/>
      <point x="414" y="384"/>
      <point x="387" y="384" type="curve" smooth="yes"/>
      <point x="188" y="384" type="line" smooth="yes"/>
      <point x="161" y="384"/>
      <point x="146" y="369"/>
      <point x="146" y="342" type="curve" smooth="yes"/>
      <point x="146" y="315"/>
      <point x="161" y="300"/>
    </contour>
  </outline>
</glyph>
<glyph name="F" format="2">
  <advance width="556"/>
  <unicode hex="0046"/>
  <anchor x="412" y="0" name="bottom"/>
  <anchor x="334" y="678" name="top"/>
  <outline>
    <contour>
      <point x="188" y="15"/>
      <point x="188" y="42" type="curve" smooth="yes"/>
      <point x="188" y="300" type="line"/>
      <point x="389" y="300" type="line" smooth="yes"/>
      <point x="415" y="300"/>
      <point x="431" y="315"/>
      <point x="431" y="342" type="curve" smooth="yes"/>
      <point x="431" y="369"/>
      <point x="415" y="384"/>
      <point x="389" y="384" type="curve" smooth="yes"/>
      <point x="188" y="384" type="line"/>
      <point x="188" y="594" type="line"/>
      <point x="514" y="594" type="line" smooth="yes"/>
      <point x="540" y="594"/>
      <point x="556" y="609"/>
      <point x="556" y="636" type="curve" smooth="yes"/>
      <point x="556" y="662"/>
      <point x="540" y="678"/>
      <point x="514" y="678" type="curve" smooth="yes"/>
      <point x="146" y="678" type="line" smooth="yes"/>
      <point x="119" y="678"/>
      <point x="104" y="662"/>
      <point x="104" y="636" type="curve" smooth="yes"/>
      <point x="104" y="42" type="line" smooth="yes"/>
      <point x="104" y="15"/>
      <point x="119" y="0"/>
      <point x="146" y="0" type="curve" smooth="yes"/>
      <point x="173" y="0"/>
    </contour>
  </outline>
</glyph>
<glyph name="G" format="2">
  <advance width="698"/>
  <unicode hex="0047"/>
  <anchor x="372" y="0" name="bottom"/>
  <anchor x="365" y="678" name="top"/>
  <outline>
    <contour>
      <point x="304" y="0" type="curve" smooth="yes"/>
      <point x="424" y="0" type="line" smooth="yes"/>
      <point x="564" y="0"/>
      <point x="628" y="62"/>
      <point x="628" y="204" type="curve" smooth="yes"/>
      <point x="628" y="293" type="line" smooth="yes"/>
      <point x="628" y="320"/>
      <point x="613" y="335"/>
      <point x="586" y="335" type="curve" smooth="yes"/>
      <point x="466" y="336" type="line" smooth="yes"/>
      <point x="439" y="336"/>
      <point x="424" y="321"/>
      <point x="424" y="294" type="curve" smooth="yes"/>
      <point x="424" y="267"/>
      <point x="438" y="252"/>
      <point x="466" y="252" type="curve" smooth="yes"/>
      <point x="544" y="251" type="line"/>
      <point x="544" y="204" type="line" smooth="yes"/>
      <point x="544" y="109"/>
      <point x="517" y="84"/>
      <point x="424" y="84" type="curve" smooth="yes"/>
      <point x="304" y="84" type="line" smooth="yes"/>
      <point x="197" y="84"/>
      <point x="164" y="117"/>
      <point x="164" y="224" type="curve" smooth="yes"/>
      <point x="164" y="454" type="line" smooth="yes"/>
      <point x="164" y="562"/>
      <point x="197" y="595"/>
      <point x="303" y="594" type="curve" smooth="yes"/>
      <point x="424" y="594" type="line" smooth="yes"/>
      <point x="502" y="594"/>
      <point x="534" y="577"/>
      <point x="541" y="516" type="curve" smooth="yes"/>
      <point x="545" y="488"/>
      <point x="558" y="474"/>
      <point x="585" y="474" type="curve" smooth="yes"/>
      <point x="613" y="474"/>
      <point x="629" y="489"/>
      <point x="625" y="517" type="curve" smooth="yes"/>
      <point x="614" y="628"/>
      <point x="549" y="678"/>
      <point x="424" y="678" type="curve" smooth="yes"/>
      <point x="303" y="678" type="line" smooth="yes"/>
      <point x="151" y="679"/>
      <point x="80" y="608"/>
      <point x="80" y="454" type="curve" smooth="yes"/>
      <point x="80" y="224" type="line" smooth="yes"/>
      <point x="80" y="71"/>
      <point x="151" y="0"/>
    </contour>
  </outline>
</glyph>
<glyph name="H" format="2">
  <advance width="784"/>
  <unicode hex="0048"/>
  <anchor x="392" y="0" name="bottom"/>
  <anchor x="392" y="513" name="center"/>
  <anchor x="392" y="678" name="top"/>
  <anchor x="104" y="678" name="topleft"/>
  <outline>
    <contour>
      <point x="188" y="20"/>
      <point x="188" y="42" type="curve" smooth="yes"/>
      <point x="188" y="301" type="line"/>
      <point x="596" y="301" type="line"/>
      <point x="596" y="42" type="line" smooth="yes"/>
      <point x="596" y="20"/>
      <point x="615" y="0"/>
      <point x="638" y="0" type="curve" smooth="yes"/>
      <point x="660" y="0"/>
      <point x="680" y="20"/>
      <point x="680" y="42" type="curve" smooth="yes"/>
      <point x="680" y="636" type="line" smooth="yes"/>
      <point x="680" y="658"/>
      <point x="660" y="678"/>
      <point x="638" y="678" type="curve" smooth="yes"/>
      <point x="615" y="678"/>
      <point x="596" y="658"/>
      <point x="596" y="636" type="curve" smooth="yes"/>
      <point x="596" y="385" type="line"/>
      <point x="188" y="385" type="line"/>
      <point x="188" y="636" type="line" smooth="yes"/>
      <point x="188" y="658"/>
      <point x="168" y="678"/>
      <point x="146" y="678" type="curve" smooth="yes"/>
      <point x="124" y="678"/>
      <point x="104" y="658"/>
      <point x="104" y="636" type="curve" smooth="yes"/>
      <point x="104" y="42" type="line" smooth="yes"/>
      <point x="104" y="20"/>
      <point x="124" y="0"/>
      <point x="146" y="0" type="curve" smooth="yes"/>
      <point x="168" y="0"/>
    </contour>
  </outline>
</glyph>
<glyph name="I" format="2">
  <advance width="292"/>
  <unicode hex="0049"/>
  <anchor x="146" y="0" name="bottom"/>
  <anchor x="118" y="7" name="ogonek"/>
  <anchor x="146" y="678" name="top"/>
  <anchor x="104" y="678" name="topleft"/>
  <outline>
    <contour>
      <point x="188" y="13"/>
      <point x="188" y="42" type="curve" smooth="yes"/>
      <point x="188" y="635" type="line" smooth="yes"/>
      <point x="188" y="664"/>
      <point x="175" y="677"/>
      <point x="146" y="677" type="curve" smooth="yes"/>
      <point x="117" y="677"/>
      <point x="104" y="664"/>
      <point x="104" y="635" type="curve" smooth="yes"/>
      <point x="104" y="42" type="line" smooth="yes"/>
      <point x="104" y="13"/>
      <point x="117" y="0"/>
      <point x="146" y="0" type="curve" smooth="yes"/>
      <point x="175" y="0"/>
    </contour>
  </outline>
</glyph>
<glyph name="J" format="2">
  <advance width="617"/>
  <unicode hex="004A"/>
  <anchor x="283" y="0" name="bottom"/>
  <anchor x="481" y="678" name="top"/>
  <outline>
    <contour>
      <point x="236" y="0" type="curve" smooth="yes"/>
      <point x="319" y="0" type="line" smooth="yes"/>
      <point x="459" y="0"/>
      <point x="523" y="63"/>
      <point x="523" y="204" type="curve" smooth="yes"/>
      <point x="523" y="636" type="line" smooth="yes"/>
      <point x="523" y="663"/>
      <point x="508" y="678"/>
      <point x="481" y="678" type="curve" smooth="yes"/>
      <point x="453" y="678"/>
      <point x="439" y="663"/>
      <point x="439" y="636" type="curve" smooth="yes"/>
      <point x="439" y="204" type="line" smooth="yes"/>
      <point x="439" y="110"/>
      <point x="412" y="84"/>
      <point x="319" y="84" type="curve" smooth="yes"/>
      <point x="236" y="84" type="line" smooth="yes"/>
      <point x="157" y="84"/>
      <point x="126" y="101"/>
      <point x="118" y="162" type="curve" smooth="yes"/>
      <point x="115" y="190"/>
      <point x="102" y="204"/>
      <point x="75" y="204" type="curve" smooth="yes"/>
      <point x="47" y="204"/>
      <point x="31" y="188"/>
      <point x="34" y="160" type="curve" smooth="yes"/>
      <point x="46" y="50"/>
      <point x="111" y="0"/>
    </contour>
  </outline>
</glyph>
<glyph name="K" format="2">
  <advance width="587"/>
  <unicode hex="004B"/>
  <anchor x="293" y="0" name="bottom"/>
  <anchor x="297" y="678" name="top"/>
  <outline>
    <contour>
      <point x="162" y="251"/>
      <point x="181" y="271" type="curve" smooth="yes"/>
      <point x="503" y="604" type="line" smooth="yes"/>
      <point x="522" y="623"/>
      <point x="522" y="644"/>
      <point x="502" y="663" type="curve" smooth="yes"/>
      <point x="483" y="682"/>
      <point x="462" y="682"/>
      <point x="443" y="662" type="curve" smooth="yes"/>
      <point x="121" y="329" type="line" smooth="yes"/>
      <point x="102" y="310"/>
      <point x="102" y="289"/>
      <point x="122" y="270" type="curve" smooth="yes"/>
      <point x="141" y="250"/>
    </contour>
    <contour>
      <point x="188" y="15"/>
      <point x="188" y="42" type="curve" smooth="yes"/>
      <point x="188" y="636" type="line" smooth="yes"/>
      <point x="188" y="663"/>
      <point x="173" y="678"/>
      <point x="146" y="678" type="curve" smooth="yes"/>
      <point x="119" y="678"/>
      <point x="104" y="663"/>
      <point x="104" y="636" type="curve" smooth="yes"/>
      <point x="104" y="42" type="line" smooth="yes"/>
      <point x="104" y="15"/>
      <point x="119" y="0"/>
      <point x="146" y="0" type="curve" smooth="yes"/>
      <point x="173" y="0"/>
    </contour>
    <contour>
      <point x="558" y="51"/>
      <point x="541" y="73" type="curve" smooth="yes"/>
      <point x="286" y="390" type="line" smooth="yes"/>
      <point x="268" y="411"/>
      <point x="248" y="413"/>
      <point x="227" y="396" type="curve" smooth="yes"/>
      <point x="205" y="379"/>
      <point x="203" y="358"/>
      <point x="220" y="337" type="curve" smooth="yes"/>
      <point x="476" y="20" type="line" smooth="yes"/>
      <point x="493" y="-1"/>
      <point x="514" y="-3"/>
      <point x="535" y="14" type="curve" smooth="yes"/>
      <point x="556" y="31"/>
    </contour>
  </outline>
</glyph>
<glyph name="L" format="2">
  <advance width="541"/>
  <unicode hex="004C"/>
  <anchor x="322" y="0" name="bottom"/>
  <anchor x="158" y="314" name="center"/>
  <anchor x="146" y="678" name="top"/>
  <anchor x="240" y="454" name="topright"/>
  <outline>
    <contour>
      <point x="146" y="0" type="curve" smooth="yes"/>
      <point x="465" y="0" type="line" smooth="yes"/>
      <point x="493" y="0"/>
      <point x="507" y="14"/>
      <point x="507" y="42" type="curve" smooth="yes"/>
      <point x="507" y="70"/>
      <point x="493" y="84"/>
      <point x="465" y="84" type="curve" smooth="yes"/>
      <point x="188" y="84" type="line"/>
      <point x="188" y="636" type="line" smooth="yes"/>
      <point x="188" y="664"/>
      <point x="174" y="678"/>
      <point x="146" y="678" type="curve" smooth="yes"/>
      <point x="118" y="678"/>
      <point x="104" y="664"/>
      <point x="104" y="636" type="curve" smooth="yes"/>
      <point x="104" y="42" type="line" smooth="yes"/>
      <point x="104" y="14"/>
      <point x="118" y="0"/>
    </contour>
  </outline>
</glyph>
<glyph name="M" format="2">
  <advance width="837"/>
  <unicode hex="004D"/>
  <anchor x="422" y="0" name="bottom"/>
  <anchor x="422" y="678" name="top"/>
  <outline>
    <contour>
      <point x="188" y="15"/>
      <point x="188" y="42" type="curve" smooth="yes"/>
      <point x="188" y="536" type="line" smooth="yes"/>
      <point x="188" y="569"/>
      <point x="146" y="592"/>
      <point x="155" y="559" type="curve" smooth="yes"/>
      <point x="156" y="554"/>
      <point x="159" y="548"/>
      <point x="163" y="543" type="curve" smooth="yes"/>
      <point x="373" y="234" type="line" smooth="yes"/>
      <point x="386" y="215"/>
      <point x="398" y="207"/>
      <point x="414" y="207" type="curve" smooth="yes"/>
      <point x="437" y="207"/>
      <point x="452" y="215"/>
      <point x="465" y="234" type="curve" smooth="yes"/>
      <point x="675" y="543" type="line" smooth="yes"/>
      <point x="694" y="572"/>
      <point x="701" y="594"/>
      <point x="691" y="594" type="curve" smooth="yes"/>
      <point x="664" y="594"/>
      <point x="649" y="579"/>
      <point x="649" y="552" type="curve" smooth="yes"/>
      <point x="649" y="42" type="line" smooth="yes"/>
      <point x="649" y="15"/>
      <point x="664" y="0"/>
      <point x="691" y="0" type="curve" smooth="yes"/>
      <point x="718" y="0"/>
      <point x="733" y="15"/>
      <point x="733" y="42" type="curve" smooth="yes"/>
      <point x="733" y="636" type="line" smooth="yes"/>
      <point x="733" y="663"/>
      <point x="722" y="678"/>
      <point x="699" y="678" type="curve" smooth="yes"/>
      <point x="676" y="678"/>
      <point x="660" y="670"/>
      <point x="648" y="651" type="curve" smooth="yes"/>
      <point x="410" y="293" type="line"/>
      <point x="428" y="296" type="line"/>
      <point x="192" y="651" type="line" smooth="yes"/>
      <point x="179" y="670"/>
      <point x="165" y="678"/>
      <point x="146" y="678" type="curve" smooth="yes"/>
      <point x="119" y="678"/>
      <point x="104" y="663"/>
      <point x="104" y="636" type="curve" smooth="yes"/>
      <point x="104" y="42" type="line" smooth="yes"/>
      <point x="104" y="15"/>
      <point x="119" y="0"/>
      <point x="146" y="0" type="curve" smooth="yes"/>
      <point x="173" y="0"/>
    </contour>
  </outline>
</glyph>
<glyph name="N" format="2">
  <advance width="757"/>
  <unicode hex="004E"/>
  <anchor x="375" y="0" name="bottom"/>
  <anchor x="375" y="678" name="top"/>
  <outline>
    <contour>
      <point x="188" y="15"/>
      <point x="188" y="42" type="curve" smooth="yes"/>
      <point x="188" y="534" type="line"/>
      <point x="167" y="543" type="line"/>
      <point x="569" y="25" type="line" smooth="yes"/>
      <point x="583" y="7"/>
      <point x="595" y="0"/>
      <point x="611" y="0" type="curve" smooth="yes"/>
      <point x="638" y="0"/>
      <point x="653" y="15"/>
      <point x="653" y="42" type="curve" smooth="yes"/>
      <point x="653" y="636" type="line" smooth="yes"/>
      <point x="653" y="663"/>
      <point x="638" y="678"/>
      <point x="611" y="678" type="curve" smooth="yes"/>
      <point x="584" y="678"/>
      <point x="569" y="663"/>
      <point x="569" y="636" type="curve" smooth="yes"/>
      <point x="569" y="144" type="line"/>
      <point x="590" y="135" type="line"/>
      <point x="188" y="653" type="line" smooth="yes"/>
      <point x="174" y="670"/>
      <point x="162" y="678"/>
      <point x="146" y="678" type="curve" smooth="yes"/>
      <point x="119" y="678"/>
      <point x="104" y="663"/>
      <point x="104" y="636" type="curve" smooth="yes"/>
      <point x="104" y="42" type="line" smooth="yes"/>
      <point x="104" y="15"/>
      <point x="119" y="0"/>
      <point x="146" y="0" type="curve" smooth="yes"/>
      <point x="173" y="0"/>
    </contour>
  </outline>
</glyph>
<glyph name="O" format="2">
  <advance width="728"/>
  <unicode hex="004F"/>
  <anchor x="353" y="0" name="bottom"/>
  <anchor x="353" y="339" name="center"/>
  <anchor x="472" y="20" name="ogonek"/>
  <anchor x="364" y="678" name="top"/>
  <anchor x="80" y="678" name="topleft"/>
  <anchor x="575" y="611" name="topright"/>
  <outline>
    <contour>
      <point x="304" y="0" type="curve" smooth="yes"/>
      <point x="424" y="0" type="line" smooth="yes"/>
      <point x="577" y="0"/>
      <point x="648" y="71"/>
      <point x="648" y="224" type="curve" smooth="yes"/>
      <point x="648" y="454" type="line" smooth="yes"/>
      <point x="648" y="607"/>
      <point x="577" y="678"/>
      <point x="424" y="678" type="curve" smooth="yes"/>
      <point x="304" y="678" type="line" smooth="yes"/>
      <point x="152" y="679"/>
      <point x="80" y="609"/>
      <point x="80" y="455" type="curve" smooth="yes"/>
      <point x="80" y="224" type="line" smooth="yes"/>
      <point x="80" y="71"/>
      <point x="151" y="0"/>
    </contour>
    <contour>
      <point x="164" y="117"/>
      <point x="164" y="224" type="curve" smooth="yes"/>
      <point x="164" y="455" type="line" smooth="yes"/>
      <point x="164" y="562"/>
      <point x="198" y="595"/>
      <point x="304" y="594" type="curve" smooth="yes"/>
      <point x="424" y="594" type="line" smooth="yes"/>
      <point x="531" y="594"/>
      <point x="564" y="560"/>
      <point x="564" y="454" type="curve" smooth="yes"/>
      <point x="564" y="224" type="line" smooth="yes"/>
      <point x="564" y="117"/>
      <point x="531" y="84"/>
      <point x="424" y="84" type="curve" smooth="yes"/>
      <point x="304" y="84" type="line" smooth="yes"/>
      <point x="197" y="84"/>
    </contour>
  </outline>
</glyph>
<glyph name="P" format="2">
  <advance width="613"/>
  <unicode hex="0050"/>
  <anchor x="379" y="0" name="bottom"/>
  <anchor x="315" y="678" name="top"/>
  <outline>
    <contour>
      <point x="188" y="15"/>
      <point x="188" y="42" type="curve" smooth="yes"/>
      <point x="188" y="594" type="line"/>
      <point x="380" y="594" type="line" smooth="yes"/>
      <point x="456" y="594"/>
      <point x="485" y="564"/>
      <point x="485" y="489" type="curve" smooth="yes"/>
      <point x="485" y="459" type="line" smooth="yes"/>
      <point x="485" y="383"/>
      <point x="456" y="354"/>
      <point x="380" y="354" type="curve" smooth="yes"/>
      <point x="188" y="354" type="line" smooth="yes"/>
      <point x="161" y="354"/>
      <point x="146" y="339"/>
      <point x="146" y="312" type="curve" smooth="yes"/>
      <point x="146" y="285"/>
      <point x="161" y="270"/>
      <point x="188" y="270" type="curve" smooth="yes"/>
      <point x="380" y="270" type="line" smooth="yes"/>
      <point x="502" y="270"/>
      <point x="569" y="337"/>
      <point x="569" y="459" type="curve" smooth="yes"/>
      <point x="569" y="489" type="line" smooth="yes"/>
      <point x="569" y="611"/>
      <point x="502" y="678"/>
      <point x="380" y="678" type="curve" smooth="yes"/>
      <point x="146" y="678" type="line" smooth="yes"/>
      <point x="119" y="678"/>
      <point x="104" y="663"/>
      <point x="104" y="636" type="curve" smooth="yes"/>
      <point x="104" y="42" type="line" smooth="yes"/>
      <point x="104" y="15"/>
      <point x="119" y="0"/>
      <point x="146" y="0" type="curve" smooth="yes"/>
      <point x="173" y="0"/>
    </contour>
  </outline>
</glyph>
<glyph name="Q" format="2">
  <advance width="733"/>
  <unicode hex="0051"/>
  <anchor x="364" y="0" name="bottom"/>
  <anchor x="364" y="678" name="top"/>
  <anchor x="353" y="339" name="center"/>
  <anchor x="472" y="20" name="ogonek"/>
  <anchor x="80" y="678" name="topleft"/>
  <anchor x="575" y="611" name="topright"/>
  <outline>
    <contour>
      <point x="657" y="-37"/>
      <point x="643" y="-22" type="curve" smooth="yes"/>
      <point x="470" y="160" type="line" smooth="yes"/>
      <point x="453" y="176"/>
      <point x="436" y="177"/>
      <point x="419" y="161" type="curve" smooth="yes"/>
      <point x="403" y="146"/>
      <point x="403" y="127"/>
      <point x="418" y="112" type="curve" smooth="yes"/>
      <point x="590" y="-70" type="line" smooth="yes"/>
      <point x="607" y="-86"/>
      <point x="624" y="-86"/>
      <point x="640" y="-71" type="curve" smooth="yes"/>
      <point x="657" y="-56"/>
    </contour>
    <component base="O"/>
  </outline>
</glyph>
<glyph name="R" format="2">
  <advance width="625"/>
  <unicode hex="0052"/>
  <anchor x="313" y="0" name="bottom"/>
  <anchor x="313" y="678" name="top"/>
  <outline>
    <contour>
      <point x="568" y="33"/>
      <point x="556" y="55" type="curve" smooth="yes"/>
      <point x="404" y="308" type="line" smooth="yes"/>
      <point x="388" y="333"/>
      <point x="370" y="337"/>
      <point x="347" y="323" type="curve" smooth="yes"/>
      <point x="323" y="309"/>
      <point x="317" y="288"/>
      <point x="331" y="265" type="curve" smooth="yes"/>
      <point x="483" y="12" type="line" smooth="yes"/>
      <point x="497" y="-10"/>
      <point x="518" y="-16"/>
      <point x="540" y="-2" type="curve" smooth="yes"/>
      <point x="562" y="12"/>
    </contour>
    <component base="P"/>
  </outline>
</glyph>
<glyph name="S" format="2">
  <advance width="692"/>
  <unicode hex="0053"/>
  <anchor x="353" y="0" name="bottom"/>
  <anchor x="353" y="678" name="top"/>
  <outline>
    <contour>
      <point x="273" y="0" type="curve" smooth="yes"/>
      <point x="417" y="0" type="line" smooth="yes"/>
      <point x="549" y="0"/>
      <point x="612" y="61"/>
      <point x="612" y="194" type="curve" smooth="yes"/>
      <point x="612" y="327"/>
      <point x="548" y="390"/>
      <point x="417" y="390" type="curve" smooth="yes"/>
      <point x="293" y="390" type="line" smooth="yes"/>
      <point x="213" y="390"/>
      <point x="191" y="414"/>
      <point x="191" y="493" type="curve" smooth="yes"/>
      <point x="191" y="571"/>
      <point x="212" y="594"/>
      <point x="292" y="594" type="curve" smooth="yes"/>
      <point x="411" y="594" type="line" smooth="yes"/>
      <point x="471" y="594"/>
      <point x="498" y="582"/>
      <point x="509" y="543" type="curve" smooth="yes"/>
      <point x="513" y="516"/>
      <point x="525" y="502"/>
      <point x="552" y="502" type="curve" smooth="yes"/>
      <point x="581" y="502"/>
      <point x="597" y="517"/>
      <point x="593" y="546" type="curve" smooth="yes"/>
      <point x="577" y="635"/>
      <point x="517" y="678"/>
      <point x="411" y="678" type="curve" smooth="yes"/>
      <point x="292" y="678" type="line" smooth="yes"/>
      <point x="166" y="678"/>
      <point x="107" y="618"/>
      <point x="107" y="493" type="curve" smooth="yes"/>
      <point x="107" y="367"/>
      <point x="167" y="306"/>
      <point x="293" y="306" type="curve" smooth="yes"/>
      <point x="417" y="306" type="line" smooth="yes"/>
      <point x="501" y="306"/>
      <point x="528" y="280"/>
      <point x="528" y="194" type="curve" smooth="yes"/>
      <point x="528" y="109"/>
      <point x="503" y="84"/>
      <point x="417" y="84" type="curve" smooth="yes"/>
      <point x="273" y="84" type="line" smooth="yes"/>
      <point x="205" y="84"/>
      <point x="175" y="98"/>
      <point x="165" y="144" type="curve" smooth="yes"/>
      <point x="160" y="172"/>
      <point x="149" y="185"/>
      <point x="121" y="185" type="curve" smooth="yes"/>
      <point x="93" y="185"/>
      <point x="77" y="170"/>
      <point x="80" y="141" type="curve" smooth="yes"/>
      <point x="96" y="45"/>
      <point x="159" y="0"/>
    </contour>
  </outline>
</glyph>
<glyph name="T" format="2">
  <advance width="614"/>
  <unicode hex="0054"/>
  <anchor x="274" y="0" name="bottom"/>
  <anchor x="307" y="339" name="center"/>
  <anchor x="307" y="678" name="top"/>
  <outline>
    <contour>
      <point x="349" y="15"/>
      <point x="349" y="42" type="curve" smooth="yes"/>
      <point x="349" y="593" type="line"/>
      <point x="543" y="593" type="line" smooth="yes"/>
      <point x="571" y="593"/>
      <point x="585" y="607"/>
      <point x="585" y="635" type="curve" smooth="yes"/>
      <point x="585" y="663"/>
      <point x="571" y="677"/>
      <point x="543" y="677" type="curve" smooth="yes"/>
      <point x="71" y="677" type="line" smooth="yes"/>
      <point x="43" y="677"/>
      <point x="29" y="663"/>
      <point x="29" y="635" type="curve" smooth="yes"/>
      <point x="29" y="607"/>
      <point x="43" y="593"/>
      <point x="71" y="593" type="curve" smooth="yes"/>
      <point x="265" y="593" type="line"/>
      <point x="265" y="42" type="line" smooth="yes"/>
      <point x="265" y="14"/>
      <point x="279" y="0"/>
      <point x="307" y="0" type="curve" smooth="yes"/>
      <point x="334" y="0"/>
    </contour>
  </outline>
</glyph>
<glyph name="U" format="2">
  <advance width="756"/>
  <unicode hex="0055"/>
  <anchor x="378" y="0" name="bottom"/>
  <anchor x="583" y="59" name="ogonek"/>
  <anchor x="378" y="678" name="top"/>
  <anchor x="620" y="678" name="topright"/>
  <outline>
    <contour>
      <point x="318" y="0" type="curve" smooth="yes"/>
      <point x="438" y="0" type="line" smooth="yes"/>
      <point x="591" y="0"/>
      <point x="662" y="71"/>
      <point x="662" y="224" type="curve" smooth="yes"/>
      <point x="662" y="636" type="line" smooth="yes"/>
      <point x="662" y="664"/>
      <point x="648" y="678"/>
      <point x="620" y="678" type="curve" smooth="yes"/>
      <point x="592" y="678"/>
      <point x="578" y="664"/>
      <point x="578" y="636" type="curve" smooth="yes"/>
      <point x="578" y="224" type="line" smooth="yes"/>
      <point x="578" y="117"/>
      <point x="545" y="84"/>
      <point x="438" y="84" type="curve" smooth="yes"/>
      <point x="318" y="84" type="line" smooth="yes"/>
      <point x="211" y="84"/>
      <point x="178" y="117"/>
      <point x="178" y="224" type="curve" smooth="yes"/>
      <point x="178" y="636" type="line" smooth="yes"/>
      <point x="178" y="664"/>
      <point x="164" y="678"/>
      <point x="136" y="678" type="curve" smooth="yes"/>
      <point x="108" y="678"/>
      <point x="94" y="664"/>
      <point x="94" y="636" type="curve" smooth="yes"/>
      <point x="94" y="224" type="line" smooth="yes"/>
      <point x="94" y="71"/>
      <point x="165" y="0"/>
    </contour>
  </outline>
</glyph>
<glyph name="V" format="2">
  <advance width="643"/>
  <unicode hex="0056"/>
  <anchor x="319" y="0" name="bottom"/>
  <anchor x="322" y="678" name="top"/>
  <outline>
    <contour>
      <point x="317" y="0" type="curve"/>
      <point x="321" y="0" type="line" smooth="yes"/>
      <point x="342" y="0"/>
      <point x="356" y="12"/>
      <point x="366" y="33" type="curve" smooth="yes"/>
      <point x="615" y="618" type="line" smooth="yes"/>
      <point x="624" y="641"/>
      <point x="619" y="660"/>
      <point x="596" y="672" type="curve" smooth="yes"/>
      <point x="569" y="685"/>
      <point x="549" y="678"/>
      <point x="538" y="651" type="curve"/>
      <point x="325" y="133" type="line"/>
      <point x="106" y="651" type="line" smooth="yes"/>
      <point x="95" y="678"/>
      <point x="74" y="685"/>
      <point x="48" y="672" type="curve" smooth="yes"/>
      <point x="22" y="660"/>
      <point x="19" y="641"/>
      <point x="29" y="618" type="curve" smooth="yes"/>
      <point x="276" y="33" type="line" smooth="yes"/>
      <point x="286" y="11"/>
      <point x="299" y="0"/>
    </contour>
  </outline>
</glyph>
<glyph name="W" format="2">
  <advance width="896"/>
  <unicode hex="0057"/>
  <anchor x="449" y="0" name="bottom"/>
  <anchor x="449" y="678" name="top"/>
  <outline>
    <contour>
      <point x="250" y="0" type="curve" smooth="yes"/>
      <point x="276" y="0"/>
      <point x="287" y="12"/>
      <point x="294" y="36" type="curve" smooth="yes"/>
      <point x="456" y="557" type="line"/>
      <point x="434" y="557" type="line"/>
      <point x="595" y="36" type="line" smooth="yes"/>
      <point x="602" y="12"/>
      <point x="617" y="0"/>
      <point x="639" y="0" type="curve" smooth="yes"/>
      <point x="641" y="0" type="line" smooth="yes"/>
      <point x="664" y="0"/>
      <point x="677" y="12"/>
      <point x="685" y="36" type="curve" smooth="yes"/>
      <point x="870" y="622" type="line" smooth="yes"/>
      <point x="879" y="651"/>
      <point x="858" y="678"/>
      <point x="829" y="678" type="curve" smooth="yes"/>
      <point x="813" y="678"/>
      <point x="798" y="669"/>
      <point x="791" y="647" type="curve" smooth="yes"/>
      <point x="628" y="128" type="line"/>
      <point x="650" y="128" type="line"/>
      <point x="495" y="642" type="line" smooth="yes"/>
      <point x="488" y="666"/>
      <point x="467" y="678"/>
      <point x="447" y="678" type="curve" smooth="yes"/>
      <point x="428" y="678"/>
      <point x="408" y="666"/>
      <point x="401" y="642" type="curve" smooth="yes"/>
      <point x="246" y="128" type="line"/>
      <point x="268" y="128" type="line"/>
      <point x="105" y="647" type="line" smooth="yes"/>
      <point x="98" y="669"/>
      <point x="82" y="679"/>
      <point x="66" y="679" type="curve" smooth="yes"/>
      <point x="36" y="679"/>
      <point x="18" y="647"/>
      <point x="26" y="622" type="curve" smooth="yes"/>
      <point x="211" y="36" type="line" smooth="yes"/>
      <point x="219" y="11"/>
      <point x="230" y="0"/>
    </contour>
  </outline>
</glyph>
<glyph name="X" format="2">
  <advance width="626"/>
  <unicode hex="0058"/>
  <anchor x="314" y="0" name="bottom"/>
  <anchor x="315" y="678" name="top"/>
  <outline>
    <contour>
      <point x="130" y="-2"/>
      <point x="145" y="19" type="curve" smooth="yes"/>
      <point x="311" y="265" type="line"/>
      <point x="485" y="20" type="line" smooth="yes"/>
      <point x="500" y="-2"/>
      <point x="521" y="-6"/>
      <point x="543" y="9" type="curve" smooth="yes"/>
      <point x="566" y="26"/>
      <point x="569" y="47"/>
      <point x="554" y="69" type="curve" smooth="yes"/>
      <point x="365" y="335" type="line"/>
      <point x="562" y="609" type="line" smooth="yes"/>
      <point x="578" y="631"/>
      <point x="574" y="651"/>
      <point x="552" y="667" type="curve" smooth="yes"/>
      <point x="530" y="684"/>
      <point x="511" y="680"/>
      <point x="494" y="658" type="curve" smooth="yes"/>
      <point x="314" y="407" type="line"/>
      <point x="135" y="658" type="line" smooth="yes"/>
      <point x="120" y="680"/>
      <point x="99" y="684"/>
      <point x="77" y="669" type="curve"/>
      <point x="55" y="652"/>
      <point x="51" y="632"/>
      <point x="66" y="610" type="curve" smooth="yes"/>
      <point x="259" y="338" type="line"/>
      <point x="76" y="68" type="line" smooth="yes"/>
      <point x="61" y="45"/>
      <point x="64" y="24"/>
      <point x="86" y="9" type="curve" smooth="yes"/>
      <point x="110" y="-6"/>
    </contour>
  </outline>
</glyph>
<glyph name="Y" format="2">
  <advance width="616"/>
  <unicode hex="0059"/>
  <anchor x="307" y="0" name="bottom"/>
  <anchor x="307" y="678" name="top"/>
  <anchor x="46" y="678" name="topleft"/>
  <outline>
    <contour>
      <point x="527" y="679"/>
      <point x="513" y="657" type="curve" smooth="yes"/>
      <point x="303" y="336" type="line"/>
      <point x="103" y="657" type="line" smooth="yes"/>
      <point x="89" y="679"/>
      <point x="68" y="684"/>
      <point x="45" y="670" type="curve"/>
      <point x="23" y="655"/>
      <point x="18" y="635"/>
      <point x="32" y="611" type="curve" smooth="yes"/>
      <point x="261" y="246" type="line"/>
      <point x="261" y="42" type="line" smooth="yes"/>
      <point x="261" y="15"/>
      <point x="277" y="0"/>
      <point x="303" y="0" type="curve" smooth="yes"/>
      <point x="330" y="0"/>
      <point x="345" y="15"/>
      <point x="345" y="42" type="curve" smooth="yes"/>
      <point x="345" y="246" type="line"/>
      <point x="583" y="611" type="line" smooth="yes"/>
      <point x="598" y="633"/>
      <point x="593" y="654"/>
      <point x="570" y="668" type="curve"/>
      <point x="548" y="684"/>
    </contour>
  </outline>
</glyph>
<glyph name="Z" format="2">
  <advance width="689"/>
  <unicode hex="005A"/>
  <anchor x="351" y="0" name="bottom"/>
  <anchor x="361" y="678" name="top"/>
  <outline>
    <contour>
      <point x="104" y="0" type="curve" smooth="yes"/>
      <point x="473" y="0" type="line" smooth="yes"/>
      <point x="564" y="0"/>
      <point x="619" y="42"/>
      <point x="635" y="120" type="curve" smooth="yes"/>
      <point x="639" y="148"/>
      <point x="622" y="164"/>
      <point x="594" y="164" type="curve" smooth="yes"/>
      <point x="567" y="164"/>
      <point x="556" y="150"/>
      <point x="549" y="125" type="curve" smooth="yes"/>
      <point x="541" y="95"/>
      <point x="518" y="84"/>
      <point x="473" y="84" type="curve" smooth="yes"/>
      <point x="180" y="84" type="line"/>
      <point x="177" y="80" type="line"/>
      <point x="574" y="598" type="line" smooth="yes"/>
      <point x="586" y="614"/>
      <point x="590" y="625"/>
      <point x="590" y="636" type="curve" smooth="yes"/>
      <point x="590" y="662"/>
      <point x="576" y="678"/>
      <point x="548" y="678" type="curve" smooth="yes"/>
      <point x="214" y="678" type="line" smooth="yes"/>
      <point x="124" y="678"/>
      <point x="70" y="635"/>
      <point x="54" y="558" type="curve" smooth="yes"/>
      <point x="49" y="530"/>
      <point x="67" y="514"/>
      <point x="95" y="514" type="curve" smooth="yes"/>
      <point x="122" y="514"/>
      <point x="133" y="528"/>
      <point x="139" y="553" type="curve" smooth="yes"/>
      <point x="148" y="582"/>
      <point x="171" y="594"/>
      <point x="214" y="594" type="curve" smooth="yes"/>
      <point x="483" y="594" type="line"/>
      <point x="481" y="604" type="line"/>
      <point x="79" y="78" type="line" smooth="yes"/>
      <point x="68" y="62"/>
      <point x="63" y="51"/>
      <point x="63" y="42" type="curve" smooth="yes"/>
      <point x="63" y="15"/>
      <point x="78" y="0"/>
    </contour>
  </outline>
</glyph>
<glyph name="bracketleft" format="2">
  <advance width="228"/>
  <unicode hex="005B"/>
  <outline>
    <contour>
      <point x="99" y="-175" type="curve" smooth="yes"/>
      <point x="183" y="-175" type="line" smooth="yes"/>
      <point x="202" y="-175"/>
      <point x="218" y="-159"/>
      <point x="218" y="-140" type="curve" smooth="yes"/>
      <point x="218" y="-121"/>
      <point x="202" y="-105"/>
      <point x="183" y="-105" type="curve" smooth="yes"/>
      <point x="134" y="-105" type="line"/>
      <point x="134" y="608" type="line"/>
      <point x="183" y="608" type="line" smooth="yes"/>
      <point x="202" y="608"/>
      <point x="218" y="624"/>
      <point x="218" y="643" type="curve" smooth="yes"/>
      <point x="218" y="662"/>
      <point x="202" y="678"/>
      <point x="183" y="678" type="curve" smooth="yes"/>
      <point x="99" y="678" type="line" smooth="yes"/>
      <point x="77" y="678"/>
      <point x="64" y="665"/>
      <point x="64" y="643" type="curve" smooth="yes"/>
      <point x="64" y="-140" type="line" smooth="yes"/>
      <point x="64" y="-162"/>
      <point x="77" y="-175"/>
    </contour>
  </outline>
</glyph>
<glyph name="asciicircum" format="2">
  <advance width="428"/>
  <unicode hex="005E"/>
  <outline>
    <contour>
      <point x="147" y="414"/>
      <point x="152" y="426" type="curve" smooth="yes"/>
      <point x="214" y="587" type="line"/>
      <point x="276" y="426" type="line" smooth="yes"/>
      <point x="281" y="414"/>
      <point x="294" y="404"/>
      <point x="309" y="404" type="curve" smooth="yes"/>
      <point x="328" y="404"/>
      <point x="344" y="420"/>
      <point x="344" y="439" type="curve" smooth="yes"/>
      <point x="344" y="443"/>
      <point x="343" y="448"/>
      <point x="342" y="453" type="curve" smooth="yes"/>
      <point x="263" y="656" type="line" smooth="yes"/>
      <point x="255" y="674"/>
      <point x="243" y="683"/>
      <point x="222" y="683" type="curve" smooth="yes"/>
      <point x="206" y="683" type="line" smooth="yes"/>
      <point x="185" y="683"/>
      <point x="173" y="674"/>
      <point x="165" y="656" type="curve" smooth="yes"/>
      <point x="86" y="453" type="line" smooth="yes"/>
      <point x="85" y="448"/>
      <point x="84" y="443"/>
      <point x="84" y="439" type="curve" smooth="yes"/>
      <point x="84" y="420"/>
      <point x="100" y="404"/>
      <point x="119" y="404" type="curve" smooth="yes"/>
      <point x="134" y="404"/>
    </contour>
  </outline>
</glyph>
<glyph name="grave" format="2">
  <advance width="250"/>
  <unicode hex="0060"/>
  <outline>
    <contour>
      <point x="185" y="523" type="curve" smooth="yes"/>
      <point x="203" y="538"/>
      <point x="204" y="556"/>
      <point x="189" y="574" type="curve" smooth="yes"/>
      <point x="116" y="662" type="line" smooth="yes"/>
      <point x="101" y="680"/>
      <point x="83" y="681"/>
      <point x="65" y="666" type="curve" smooth="yes"/>
      <point x="47" y="652"/>
      <point x="46" y="633"/>
      <point x="61" y="615" type="curve" smooth="yes"/>
      <point x="134" y="527" type="line" smooth="yes"/>
      <point x="148" y="509"/>
      <point x="166" y="508"/>
    </contour>
  </outline>
</glyph>
<glyph name="a" format="2">
  <advance width="640"/>
  <unicode hex="0061"/>
  <anchor x="311" y="0" name="bottom"/>
  <anchor x="476" y="7" name="ogonek"/>
  <anchor x="311" y="507" name="top"/>
  <outline>
    <contour>
      <point x="546" y="15"/>
      <point x="546" y="42" type="curve" smooth="yes"/>
      <point x="546" y="311" type="line" smooth="yes"/>
      <point x="546" y="444"/>
      <point x="483" y="507"/>
      <point x="350" y="507" type="curve" smooth="yes"/>
      <point x="292" y="507" type="line" smooth="yes"/>
      <point x="178" y="507"/>
      <point x="116" y="473"/>
      <point x="96" y="398" type="curve" smooth="yes"/>
      <point x="89" y="372"/>
      <point x="108" y="355"/>
      <point x="136" y="355" type="curve" smooth="yes"/>
      <point x="161" y="355"/>
      <point x="171" y="364"/>
      <point x="183" y="392" type="curve" smooth="yes"/>
      <point x="196" y="415"/>
      <point x="225" y="423"/>
      <point x="292" y="423" type="curve" smooth="yes"/>
      <point x="350" y="423" type="line" smooth="yes"/>
      <point x="437" y="423"/>
      <point x="462" y="398"/>
      <point x="462" y="311" type="curve" smooth="yes"/>
      <point x="462" y="42" type="line" smooth="yes"/>
      <point x="462" y="15"/>
      <point x="477" y="0"/>
      <point x="504" y="0" type="curve" smooth="yes"/>
      <point x="531" y="0"/>
    </contour>
    <contour>
      <point x="250" y="0" type="curve" smooth="yes"/>
      <point x="306" y="0" type="line" smooth="yes"/>
      <point x="420" y="0"/>
      <point x="492" y="63"/>
      <point x="508" y="178" type="curve" smooth="yes"/>
      <point x="510" y="188"/>
      <point x="507" y="193"/>
      <point x="503" y="193" type="curve" smooth="yes"/>
      <point x="475" y="193"/>
      <point x="465" y="179"/>
      <point x="457" y="153" type="curve" smooth="yes"/>
      <point x="441" y="107"/>
      <point x="393" y="84"/>
      <point x="306" y="84" type="curve" smooth="yes"/>
      <point x="250" y="84" type="line" smooth="yes"/>
      <point x="184" y="84"/>
      <point x="168" y="100"/>
      <point x="168" y="166" type="curve" smooth="yes"/>
      <point x="168" y="231"/>
      <point x="184" y="248"/>
      <point x="250" y="248" type="curve" smooth="yes"/>
      <point x="462" y="248" type="line" smooth="yes"/>
      <point x="489" y="248"/>
      <point x="504" y="263"/>
      <point x="504" y="290" type="curve" smooth="yes"/>
      <point x="504" y="316"/>
      <point x="489" y="332"/>
      <point x="462" y="332" type="curve" smooth="yes"/>
      <point x="250" y="332" type="line" smooth="yes"/>
      <point x="137" y="332"/>
      <point x="84" y="278"/>
      <point x="84" y="166" type="curve" smooth="yes"/>
      <point x="84" y="54"/>
      <point x="138" y="0"/>
    </contour>
  </outline>
</glyph>
<glyph name="b" format="2">
  <advance width="658"/>
  <unicode hex="0062"/>
  <anchor x="363" y="0" name="bottom"/>
  <anchor x="363" y="507" name="top"/>
  <outline>
    <contour>
      <point x="344" y="0" type="curve" smooth="yes"/>
      <point x="382" y="0" type="line" smooth="yes"/>
      <point x="515" y="0"/>
      <point x="578" y="63"/>
      <point x="578" y="196" type="curve" smooth="yes"/>
      <point x="578" y="311" type="line" smooth="yes"/>
      <point x="578" y="444"/>
      <point x="515" y="507"/>
      <point x="382" y="507" type="curve" smooth="yes"/>
      <point x="344" y="507" type="line" smooth="yes"/>
      <point x="227" y="507"/>
      <point x="159" y="455"/>
      <point x="142" y="358" type="curve" smooth="yes"/>
      <point x="140" y="331"/>
      <point x="139" y="315"/>
      <point x="149" y="315" type="curve" smooth="yes"/>
      <point x="175" y="315"/>
      <point x="188" y="327"/>
      <point x="188" y="354" type="curve" smooth="yes"/>
      <point x="188" y="401"/>
      <point x="256" y="423"/>
      <point x="344" y="423" type="curve" smooth="yes"/>
      <point x="382" y="423" type="line" smooth="yes"/>
      <point x="468" y="423"/>
      <point x="494" y="398"/>
      <point x="494" y="311" type="curve" smooth="yes"/>
      <point x="494" y="196" type="line" smooth="yes"/>
      <point x="494" y="110"/>
      <point x="469" y="84"/>
      <point x="382" y="84" type="curve" smooth="yes"/>
      <point x="344" y="84" type="line" smooth="yes"/>
      <point x="256" y="84"/>
      <point x="188" y="106"/>
      <point x="188" y="153" type="curve" smooth="yes"/>
      <point x="188" y="179"/>
      <point x="175" y="192"/>
      <point x="148" y="192" type="curve" smooth="yes"/>
      <point x="139" y="192"/>
      <point x="140" y="176"/>
      <point x="142" y="148" type="curve" smooth="yes"/>
      <point x="159" y="52"/>
      <point x="227" y="0"/>
    </contour>
    <contour>
      <point x="188" y="15"/>
      <point x="188" y="42" type="curve" smooth="yes"/>
      <point x="188" y="662" type="line" smooth="yes"/>
      <point x="188" y="689"/>
      <point x="173" y="704"/>
      <point x="146" y="704" type="curve" smooth="yes"/>
      <point x="119" y="704"/>
      <point x="104" y="689"/>
      <point x="104" y="662" type="curve" smooth="yes"/>
      <point x="104" y="42" type="line" smooth="yes"/>
      <point x="104" y="15"/>
      <point x="119" y="0"/>
      <point x="146" y="0" type="curve" smooth="yes"/>
      <point x="173" y="0"/>
    </contour>
  </outline>
</glyph>
<glyph name="c" format="2">
  <advance width="591"/>
  <unicode hex="0063"/>
  <anchor x="318" y="0" name="bottom"/>
  <anchor x="316" y="507" name="top"/>
  <outline>
    <contour>
      <point x="276" y="0" type="curve" smooth="yes"/>
      <point x="358" y="0" type="line" smooth="yes"/>
      <point x="457" y="0"/>
      <point x="514" y="33"/>
      <point x="530" y="102" type="curve" smooth="yes"/>
      <point x="536" y="130"/>
      <point x="518" y="146"/>
      <point x="490" y="146" type="curve" smooth="yes"/>
      <point x="463" y="146"/>
      <point x="454" y="133"/>
      <point x="444" y="108" type="curve" smooth="yes"/>
      <point x="434" y="90"/>
      <point x="409" y="84"/>
      <point x="358" y="84" type="curve" smooth="yes"/>
      <point x="276" y="84" type="line" smooth="yes"/>
      <point x="190" y="84"/>
      <point x="164" y="109"/>
      <point x="164" y="196" type="curve" smooth="yes"/>
      <point x="164" y="312" type="line"/>
      <point x="164" y="399"/>
      <point x="190" y="424"/>
      <point x="276" y="423" type="curve" smooth="yes"/>
      <point x="358" y="423" type="line" smooth="yes"/>
      <point x="409" y="423"/>
      <point x="434" y="417"/>
      <point x="444" y="399" type="curve" smooth="yes"/>
      <point x="454" y="375"/>
      <point x="463" y="361"/>
      <point x="489" y="361" type="curve" smooth="yes"/>
      <point x="518" y="361"/>
      <point x="536" y="377"/>
      <point x="530" y="405" type="curve" smooth="yes"/>
      <point x="514" y="474"/>
      <point x="457" y="507"/>
      <point x="358" y="507" type="curve" smooth="yes"/>
      <point x="276" y="507" type="line" smooth="yes"/>
      <point x="142" y="508"/>
      <point x="80" y="445"/>
      <point x="80" y="312" type="curve" smooth="yes"/>
      <point x="80" y="196" type="line" smooth="yes"/>
      <point x="80" y="63"/>
      <point x="143" y="0"/>
    </contour>
  </outline>
</glyph>
<glyph name="d" format="2">
  <advance width="648"/>
  <unicode hex="0064"/>
  <anchor x="326" y="0" name="bottom"/>
  <anchor x="468" y="595" name="center"/>
  <anchor x="353" y="507" name="top"/>
  <anchor x="602" y="507" name="topright"/>
  <outline>
    <contour>
      <point x="276" y="0" type="curve" smooth="yes"/>
      <point x="314" y="0" type="line" smooth="yes"/>
      <point x="447" y="0"/>
      <point x="497" y="52"/>
      <point x="516" y="148" type="curve" smooth="yes"/>
      <point x="521" y="176"/>
      <point x="538" y="192"/>
      <point x="509" y="192" type="curve" smooth="yes"/>
      <point x="483" y="192"/>
      <point x="470" y="179"/>
      <point x="470" y="153" type="curve" smooth="yes"/>
      <point x="470" y="106"/>
      <point x="402" y="84"/>
      <point x="314" y="84" type="curve" smooth="yes"/>
      <point x="276" y="84" type="line" smooth="yes"/>
      <point x="190" y="84"/>
      <point x="164" y="109"/>
      <point x="164" y="196" type="curve" smooth="yes"/>
      <point x="164" y="311" type="line" smooth="yes"/>
      <point x="164" y="397"/>
      <point x="189" y="423"/>
      <point x="276" y="423" type="curve" smooth="yes"/>
      <point x="470" y="423" type="line" smooth="yes"/>
      <point x="497" y="423"/>
      <point x="512" y="438"/>
      <point x="512" y="465" type="curve" smooth="yes"/>
      <point x="512" y="493"/>
      <point x="497" y="507"/>
      <point x="470" y="507" type="curve" smooth="yes"/>
      <point x="276" y="507" type="line" smooth="yes"/>
      <point x="143" y="507"/>
      <point x="80" y="444"/>
      <point x="80" y="311" type="curve" smooth="yes"/>
      <point x="80" y="196" type="line" smooth="yes"/>
      <point x="80" y="63"/>
      <point x="143" y="0"/>
    </contour>
    <contour>
      <point x="554" y="15"/>
      <point x="554" y="42" type="curve" smooth="yes"/>
      <point x="554" y="662" type="line" smooth="yes"/>
      <point x="554" y="689"/>
      <point x="539" y="704"/>
      <point x="512" y="704" type="curve" smooth="yes"/>
      <point x="485" y="704"/>
      <point x="470" y="689"/>
      <point x="470" y="662" type="curve" smooth="yes"/>
      <point x="470" y="42" type="line" smooth="yes"/>
      <point x="470" y="15"/>
      <point x="485" y="0"/>
      <point x="512" y="0" type="curve" smooth="yes"/>
      <point x="539" y="0"/>
    </contour>
  </outline>
</glyph>
<glyph name="e" format="2">
  <advance width="634"/>
  <unicode hex="0065"/>
  <anchor x="318" y="0" name="bottom"/>
  <anchor x="499" y="68" name="ogonek"/>
  <anchor x="318" y="507" name="top"/>
  <outline>
    <contour>
      <point x="276" y="0" type="curve" smooth="yes"/>
      <point x="358" y="0" type="line" smooth="yes"/>
      <point x="471" y="0"/>
      <point x="535" y="40"/>
      <point x="550" y="123" type="curve" smooth="yes"/>
      <point x="555" y="151"/>
      <point x="539" y="166"/>
      <point x="511" y="166" type="curve" smooth="yes"/>
      <point x="484" y="166"/>
      <point x="473" y="152"/>
      <point x="466" y="127" type="curve" smooth="yes"/>
      <point x="455" y="95"/>
      <point x="426" y="84"/>
      <point x="358" y="84" type="curve" smooth="yes"/>
      <point x="276" y="84" type="line" smooth="yes"/>
      <point x="189" y="84"/>
      <point x="164" y="109"/>
      <point x="164" y="195" type="curve" smooth="yes"/>
      <point x="164" y="311" type="line" smooth="yes"/>
      <point x="164" y="399"/>
      <point x="189" y="424"/>
      <point x="276" y="423" type="curve" smooth="yes"/>
      <point x="358" y="423" type="line" smooth="yes"/>
      <point x="445" y="423"/>
      <point x="470" y="398"/>
      <point x="470" y="311" type="curve" smooth="yes"/>
      <point x="470" y="303" type="line"/>
      <point x="164" y="303" type="line" smooth="yes"/>
      <point x="137" y="303"/>
      <point x="122" y="289"/>
      <point x="122" y="261" type="curve" smooth="yes"/>
      <point x="122" y="234"/>
      <point x="137" y="219"/>
      <point x="164" y="219" type="curve" smooth="yes"/>
      <point x="512" y="219" type="line" smooth="yes"/>
      <point x="539" y="219"/>
      <point x="554" y="234"/>
      <point x="554" y="261" type="curve" smooth="yes"/>
      <point x="554" y="311" type="line"/>
      <point x="554" y="445"/>
      <point x="491" y="507"/>
      <point x="358" y="507" type="curve" smooth="yes"/>
      <point x="276" y="507" type="line" smooth="yes"/>
      <point x="143" y="508"/>
      <point x="80" y="446"/>
      <point x="80" y="311" type="curve" smooth="yes"/>
      <point x="80" y="195" type="line" smooth="yes"/>
      <point x="80" y="63"/>
      <point x="143" y="0"/>
    </contour>
  </outline>
</glyph>
<glyph name="f" format="2">
  <advance width="386"/>
  <unicode hex="0066"/>
  <anchor x="193" y="0" name="bottom"/>
  <anchor x="245" y="654" name="top"/>
  <outline>
    <contour>
      <point x="207" y="15"/>
      <point x="207" y="42" type="curve" smooth="yes"/>
      <point x="207" y="511" type="line"/>
      <point x="207" y="596"/>
      <point x="232" y="620"/>
      <point x="316" y="620" type="curve" smooth="yes"/>
      <point x="338" y="620"/>
      <point x="352" y="635"/>
      <point x="352" y="662" type="curve" smooth="yes"/>
      <point x="352" y="690"/>
      <point x="339" y="704"/>
      <point x="316" y="704" type="curve" smooth="yes"/>
      <point x="185" y="704"/>
      <point x="123" y="642"/>
      <point x="123" y="511" type="curve" smooth="yes"/>
      <point x="123" y="42" type="line" smooth="yes"/>
      <point x="123" y="15"/>
      <point x="138" y="0"/>
      <point x="165" y="0" type="curve" smooth="yes"/>
      <point x="192" y="0"/>
    </contour>
    <contour>
      <point x="86" y="423" type="curve" smooth="yes"/>
      <point x="310" y="423" type="line" smooth="yes"/>
      <point x="337" y="423"/>
      <point x="352" y="438"/>
      <point x="352" y="465" type="curve" smooth="yes"/>
      <point x="352" y="493"/>
      <point x="337" y="507"/>
      <point x="310" y="507" type="curve" smooth="yes"/>
      <point x="86" y="507" type="line" smooth="yes"/>
      <point x="59" y="507"/>
      <point x="44" y="493"/>
      <point x="44" y="465" type="curve" smooth="yes"/>
      <point x="44" y="438"/>
      <point x="59" y="423"/>
    </contour>
  </outline>
</glyph>
<glyph name="g" format="2">
  <advance width="648"/>
  <unicode hex="0067"/>
  <anchor x="320" y="-200" name="bottom"/>
  <anchor x="312" y="507" name="top"/>
  <outline>
    <contour>
      <point x="224" y="-200" type="curve" smooth="yes"/>
      <point x="410" y="-200" type="line" smooth="yes"/>
      <point x="508" y="-200"/>
      <point x="554" y="-154"/>
      <point x="554" y="-56" type="curve" smooth="yes"/>
      <point x="554" y="465" type="line" smooth="yes"/>
      <point x="554" y="493"/>
      <point x="539" y="507"/>
      <point x="512" y="507" type="curve" smooth="yes"/>
      <point x="485" y="507"/>
      <point x="470" y="493"/>
      <point x="470" y="465" type="curve" smooth="yes"/>
      <point x="470" y="-56" type="line" smooth="yes"/>
      <point x="470" y="-105"/>
      <point x="460" y="-116"/>
      <point x="410" y="-116" type="curve" smooth="yes"/>
      <point x="224" y="-116" type="line" smooth="yes"/>
      <point x="190.995" y="-116"/>
      <point x="176" y="-112"/>
      <point x="168" y="-97" type="curve" smooth="yes"/>
      <point x="159" y="-70"/>
      <point x="150" y="-56"/>
      <point x="125" y="-56" type="curve" smooth="yes"/>
      <point x="95" y="-56"/>
      <point x="79" y="-73"/>
      <point x="84" y="-101" type="curve" smooth="yes"/>
      <point x="97" y="-168"/>
      <point x="143" y="-200"/>
    </contour>
    <contour>
      <point x="276" y="0" type="curve" smooth="yes"/>
      <point x="314" y="0" type="line" smooth="yes"/>
      <point x="423" y="0"/>
      <point x="500" y="57"/>
      <point x="516" y="162" type="curve" smooth="yes"/>
      <point x="516" y="181"/>
      <point x="509" y="192"/>
      <point x="510" y="192" type="curve" smooth="yes"/>
      <point x="483" y="192"/>
      <point x="470" y="179"/>
      <point x="470" y="153" type="curve" smooth="yes"/>
      <point x="470" y="105"/>
      <point x="402" y="84"/>
      <point x="314" y="84" type="curve" smooth="yes"/>
      <point x="276" y="84" type="line" smooth="yes"/>
      <point x="189" y="84"/>
      <point x="164" y="110"/>
      <point x="164" y="195" type="curve" smooth="yes"/>
      <point x="164" y="311" type="line" smooth="yes"/>
      <point x="164" y="399"/>
      <point x="190" y="424"/>
      <point x="276" y="423" type="curve" smooth="yes"/>
      <point x="358" y="423" type="line" smooth="yes"/>
      <point x="429" y="423"/>
      <point x="470" y="407"/>
      <point x="470" y="353" type="curve" smooth="yes"/>
      <point x="470" y="325"/>
      <point x="484" y="311"/>
      <point x="511" y="311" type="curve" smooth="yes"/>
      <point x="510" y="311"/>
      <point x="517" y="322"/>
      <point x="517" y="341" type="curve" smooth="yes"/>
      <point x="507" y="454"/>
      <point x="450" y="507"/>
      <point x="358" y="507" type="curve" smooth="yes"/>
      <point x="276" y="507" type="line" smooth="yes"/>
      <point x="142" y="508"/>
      <point x="80" y="445"/>
      <point x="80" y="311" type="curve" smooth="yes"/>
      <point x="80" y="195" type="line" smooth="yes"/>
      <point x="80" y="63"/>
      <point x="143" y="0"/>
    </contour>
  </outline>
</glyph>
<glyph name="h" format="2">
  <advance width="667"/>
  <unicode hex="0068"/>
  <anchor x="342" y="0" name="bottom"/>
  <anchor x="205" y="583" name="center"/>
  <anchor x="151" y="710" name="top"/>
  <outline>
    <contour>
      <point x="573" y="15"/>
      <point x="573" y="42" type="curve" smooth="yes"/>
      <point x="573" y="311" type="line" smooth="yes"/>
      <point x="573" y="444"/>
      <point x="510" y="507"/>
      <point x="377" y="507" type="curve" smooth="yes"/>
      <point x="349" y="507" type="line" smooth="yes"/>
      <point x="211" y="507"/>
      <point x="124" y="455"/>
      <point x="105" y="358" type="curve" smooth="yes"/>
      <point x="99" y="331"/>
      <point x="119" y="315"/>
      <point x="153" y="315" type="curve" smooth="yes"/>
      <point x="180" y="315"/>
      <point x="191" y="328"/>
      <point x="198" y="354" type="curve" smooth="yes"/>
      <point x="213" y="400"/>
      <point x="261" y="423"/>
      <point x="349" y="423" type="curve" smooth="yes"/>
      <point x="377" y="423" type="line" smooth="yes"/>
      <point x="463" y="423"/>
      <point x="489" y="398"/>
      <point x="489" y="311" type="curve" smooth="yes"/>
      <point x="489" y="42" type="line" smooth="yes"/>
      <point x="489" y="15"/>
      <point x="504" y="0"/>
      <point x="531" y="0" type="curve" smooth="yes"/>
      <point x="558" y="0"/>
    </contour>
    <contour>
      <point x="193" y="15"/>
      <point x="193" y="42" type="curve" smooth="yes"/>
      <point x="193" y="662" type="line" smooth="yes"/>
      <point x="193" y="689"/>
      <point x="178" y="704"/>
      <point x="151" y="704" type="curve" smooth="yes"/>
      <point x="124" y="704"/>
      <point x="109" y="689"/>
      <point x="109" y="662" type="curve" smooth="yes"/>
      <point x="109" y="42" type="line" smooth="yes"/>
      <point x="109" y="15"/>
      <point x="124" y="0"/>
      <point x="151" y="0" type="curve" smooth="yes"/>
      <point x="178" y="0"/>
    </contour>
  </outline>
</glyph>
<glyph name="l" format="2">
  <advance width="343"/>
  <unicode hex="006C"/>
  <anchor x="217" y="0" name="bottom"/>
  <anchor x="165" y="363" name="center"/>
  <anchor x="146" y="704" name="top"/>
  <anchor x="232" y="507" name="topright"/>
  <outline>
    <contour>
      <point x="299" y="15"/>
      <point x="298" y="42" type="curve" smooth="yes"/>
      <point x="298" y="69"/>
      <point x="284" y="84"/>
      <point x="255" y="84" type="curve" smooth="yes"/>
      <point x="201" y="84"/>
      <point x="188" y="98"/>
      <point x="188" y="152" type="curve" smooth="yes"/>
      <point x="188" y="662" type="line" smooth="yes"/>
      <point x="188" y="689"/>
      <point x="173" y="704"/>
      <point x="146" y="704" type="curve" smooth="yes"/>
      <point x="119" y="704"/>
      <point x="104" y="689"/>
      <point x="104" y="662" type="curve" smooth="yes"/>
      <point x="104" y="152" type="line" smooth="yes"/>
      <point x="104" y="50"/>
      <point x="153" y="0"/>
      <point x="255" y="0" type="curve" smooth="yes"/>
      <point x="284" y="0"/>
    </contour>
  </outline>
</glyph>
<glyph name="m" format="2">
  <advance width="930"/>
  <unicode hex="006D"/>
  <anchor x="472" y="0" name="bottom"/>
  <anchor x="469" y="507" name="top"/>
  <outline>
    <contour>
      <point x="188" y="14"/>
      <point x="188" y="42" type="curve" smooth="yes"/>
      <point x="188" y="315" type="line" smooth="yes"/>
      <point x="188" y="391"/>
      <point x="218" y="423"/>
      <point x="294" y="423" type="curve" smooth="yes"/>
      <point x="335" y="423" type="line" smooth="yes"/>
      <point x="401" y="423"/>
      <point x="428" y="391"/>
      <point x="428" y="315" type="curve" smooth="yes"/>
      <point x="428" y="42" type="line" smooth="yes"/>
      <point x="428" y="14"/>
      <point x="442" y="0"/>
      <point x="470" y="0" type="curve" smooth="yes"/>
      <point x="498" y="0"/>
      <point x="512" y="14"/>
      <point x="512" y="42" type="curve" smooth="yes"/>
      <point x="512" y="315" type="line" smooth="yes"/>
      <point x="512" y="391"/>
      <point x="542" y="423"/>
      <point x="618" y="423" type="curve" smooth="yes"/>
      <point x="659" y="423" type="line" smooth="yes"/>
      <point x="725" y="423"/>
      <point x="752" y="391"/>
      <point x="752" y="315" type="curve" smooth="yes"/>
      <point x="752" y="42" type="line" smooth="yes"/>
      <point x="752" y="14"/>
      <point x="766" y="0"/>
      <point x="794" y="0" type="curve" smooth="yes"/>
      <point x="822" y="0"/>
      <point x="836" y="14"/>
      <point x="836" y="42" type="curve" smooth="yes"/>
      <point x="836" y="315" type="line" smooth="yes"/>
      <point x="836" y="452"/>
      <point x="785" y="507"/>
      <point x="659" y="507" type="curve" smooth="yes"/>
      <point x="618" y="507" type="line" smooth="yes"/>
      <point x="556" y="507"/>
      <point x="521" y="486"/>
      <point x="485" y="432" type="curve"/>
      <point x="492" y="421" type="line"/>
      <point x="469" y="482"/>
      <point x="424" y="507"/>
      <point x="335" y="507" type="curve" smooth="yes"/>
      <point x="322" y="507" type="line" smooth="yes"/>
      <point x="263" y="507"/>
      <point x="223" y="488"/>
      <point x="188" y="442" type="curve"/>
      <point x="188" y="465" type="line" smooth="yes"/>
      <point x="188" y="493"/>
      <point x="173" y="507"/>
      <point x="146" y="507" type="curve" smooth="yes"/>
      <point x="118" y="507"/>
      <point x="104" y="493"/>
      <point x="104" y="465" type="curve" smooth="yes"/>
      <point x="104" y="42" type="line" smooth="yes"/>
      <point x="104" y="14"/>
      <point x="118" y="0"/>
      <point x="146" y="0" type="curve" smooth="yes"/>
      <point x="174" y="0"/>
    </contour>
  </outline>
</glyph>
<glyph name="o" format="2">
  <advance width="634"/>
  <unicode hex="006F"/>
  <anchor x="317" y="0" name="bottom"/>
  <anchor x="317" y="253" name="center"/>
  <anchor x="472" y="33" name="ogonek"/>
  <anchor x="317" y="507" name="top"/>
  <anchor x="481" y="451" name="topright"/>
  <outline>
    <contour>
      <point x="276" y="0" type="curve" smooth="yes"/>
      <point x="358" y="0" type="line" smooth="yes"/>
      <point x="491" y="0"/>
      <point x="554" y="63"/>
      <point x="554" y="196" type="curve" smooth="yes"/>
      <point x="554" y="311" type="line" smooth="yes"/>
      <point x="554" y="444"/>
      <point x="491" y="507"/>
      <point x="358" y="507" type="curve" smooth="yes"/>
      <point x="276" y="507" type="line" smooth="yes"/>
      <point x="143" y="507"/>
      <point x="80" y="445"/>
      <point x="80" y="311" type="curve" smooth="yes"/>
      <point x="80" y="195" type="line" smooth="yes"/>
      <point x="80" y="63"/>
      <point x="143" y="0"/>
    </contour>
    <contour>
      <point x="164" y="109"/>
      <point x="164" y="195" type="curve" smooth="yes"/>
      <point x="164" y="311" type="line" smooth="yes"/>
      <point x="164" y="399"/>
      <point x="189" y="423"/>
      <point x="276" y="423" type="curve" smooth="yes"/>
      <point x="358" y="423" type="line" smooth="yes"/>
      <point x="445" y="423"/>
      <point x="470" y="398"/>
      <point x="470" y="311" type="curve" smooth="yes"/>
      <point x="470" y="196" type="line" smooth="yes"/>
      <point x="470" y="109"/>
      <point x="445" y="84"/>
      <point x="358" y="84" type="curve" smooth="yes"/>
      <point x="276" y="84" type="line" smooth="yes"/>
      <point x="189" y="84"/>
    </contour>
  </outline>
</glyph>
<glyph name="p" format="2">
  <advance width="658"/>
  <unicode hex="0070"/>
  <anchor x="346" y="0" name="bottom"/>
  <anchor x="146" y="-200" name="bottomleft"/>
  <anchor x="352" y="234" name="center"/>
  <anchor x="365" y="507" name="top"/>
  <outline>
    <contour>
      <point x="188" y="0" type="curve" smooth="yes"/>
      <point x="382" y="0" type="line" smooth="yes"/>
      <point x="515" y="0"/>
      <point x="578" y="63"/>
      <point x="578" y="196" type="curve" smooth="yes"/>
      <point x="578" y="311" type="line" smooth="yes"/>
      <point x="578" y="444"/>
      <point x="515" y="507"/>
      <point x="382" y="507" type="curve" smooth="yes"/>
      <point x="344" y="507" type="line" smooth="yes"/>
      <point x="234" y="507"/>
      <point x="157" y="455"/>
      <point x="142" y="358" type="curve" smooth="yes"/>
      <point x="141" y="332"/>
      <point x="148" y="315"/>
      <point x="147" y="315" type="curve" smooth="yes"/>
      <point x="175" y="315"/>
      <point x="188" y="328"/>
      <point x="188" y="353" type="curve" smooth="yes"/>
      <point x="184" y="401"/>
      <point x="256" y="423"/>
      <point x="344" y="423" type="curve" smooth="yes"/>
      <point x="382" y="423" type="line" smooth="yes"/>
      <point x="469" y="423"/>
      <point x="494" y="398"/>
      <point x="494" y="311" type="curve" smooth="yes"/>
      <point x="494" y="196" type="line" smooth="yes"/>
      <point x="494" y="109"/>
      <point x="469" y="84"/>
      <point x="382" y="84" type="curve" smooth="yes"/>
      <point x="188" y="84" type="line" smooth="yes"/>
      <point x="161" y="84"/>
      <point x="146" y="69"/>
      <point x="146" y="42" type="curve" smooth="yes"/>
      <point x="146" y="15"/>
      <point x="161" y="0"/>
    </contour>
    <contour>
      <point x="188" y="-185"/>
      <point x="188" y="-158" type="curve" smooth="yes"/>
      <point x="188" y="465" type="line" smooth="yes"/>
      <point x="188" y="492"/>
      <point x="173" y="507"/>
      <point x="146" y="507" type="curve" smooth="yes"/>
      <point x="119" y="507"/>
      <point x="104" y="492"/>
      <point x="104" y="465" type="curve" smooth="yes"/>
      <point x="104" y="-158" type="line" smooth="yes"/>
      <point x="104" y="-185"/>
      <point x="119" y="-200"/>
      <point x="146" y="-200" type="curve" smooth="yes"/>
      <point x="173" y="-200"/>
    </contour>
  </outline>
</glyph>
<glyph name="q" format="2">
  <advance width="648"/>
  <unicode hex="0071"/>
  <anchor x="335" y="0" name="bottom"/>
  <anchor x="335" y="507" name="top"/>
  <outline>
    <contour>
      <point x="80" y="444"/>
      <point x="80" y="311" type="curve" smooth="yes"/>
      <point x="80" y="196" type="line" smooth="yes"/>
      <point x="80" y="63"/>
      <point x="143" y="0"/>
      <point x="276" y="0" type="curve" smooth="yes"/>
      <point x="470" y="0" type="line" smooth="yes"/>
      <point x="497" y="0"/>
      <point x="512" y="15"/>
      <point x="512" y="42" type="curve" smooth="yes"/>
      <point x="512" y="69"/>
      <point x="497" y="84"/>
      <point x="470" y="84" type="curve" smooth="yes"/>
      <point x="276" y="84" type="line" smooth="yes"/>
      <point x="189" y="84"/>
      <point x="164" y="109"/>
      <point x="164" y="196" type="curve" smooth="yes"/>
      <point x="164" y="311" type="line" smooth="yes"/>
      <point x="164" y="398"/>
      <point x="189" y="423"/>
      <point x="276" y="423" type="curve" smooth="yes"/>
      <point x="314" y="423" type="line" smooth="yes"/>
      <point x="402" y="423"/>
      <point x="470" y="401"/>
      <point x="470" y="353" type="curve" smooth="yes"/>
      <point x="470" y="328"/>
      <point x="483" y="315"/>
      <point x="509" y="315" type="curve" smooth="yes"/>
      <point x="539" y="315"/>
      <point x="502" y="316"/>
      <point x="502" y="344" type="curve" smooth="yes"/>
      <point x="506" y="441"/>
      <point x="447" y="507"/>
      <point x="314" y="507" type="curve" smooth="yes"/>
      <point x="276" y="507" type="line" smooth="yes"/>
      <point x="143" y="507"/>
    </contour>
    <contour>
      <point x="470" y="492"/>
      <point x="470" y="465" type="curve" smooth="yes"/>
      <point x="470" y="-158" type="line" smooth="yes"/>
      <point x="470" y="-185"/>
      <point x="485" y="-200"/>
      <point x="512" y="-200" type="curve" smooth="yes"/>
      <point x="539" y="-200"/>
      <point x="554" y="-185"/>
      <point x="554" y="-158" type="curve" smooth="yes"/>
      <point x="554" y="465" type="line" smooth="yes"/>
      <point x="554" y="492"/>
      <point x="539" y="507"/>
      <point x="512" y="507" type="curve" smooth="yes"/>
      <point x="485" y="507"/>
    </contour>
  </outline>
</glyph>
<glyph name="r" format="2">
  <advance width="427"/>
  <unicode hex="0072"/>
  <anchor x="146" y="0" name="bottom"/>
  <anchor x="250" y="507" name="top"/>
  <outline>
    <contour>
      <point x="188" y="269"/>
      <point x="188" y="296" type="curve" smooth="yes"/>
      <point x="185" y="372"/>
      <point x="247" y="423"/>
      <point x="368" y="423" type="curve" smooth="yes"/>
      <point x="395" y="423"/>
      <point x="410" y="438"/>
      <point x="410" y="465" type="curve" smooth="yes"/>
      <point x="410" y="492"/>
      <point x="395" y="507"/>
      <point x="368" y="507" type="curve" smooth="yes"/>
      <point x="235" y="507"/>
      <point x="153" y="428"/>
      <point x="138" y="285" type="curve" smooth="yes"/>
      <point x="137" y="266"/>
      <point x="140" y="255"/>
      <point x="144" y="255" type="curve" smooth="yes"/>
      <point x="171" y="255"/>
    </contour>
    <contour>
      <point x="188" y="15"/>
      <point x="188" y="42" type="curve" smooth="yes"/>
      <point x="188" y="465" type="line" smooth="yes"/>
      <point x="188" y="493"/>
      <point x="173" y="507"/>
      <point x="146" y="507" type="curve" smooth="yes"/>
      <point x="119" y="507"/>
      <point x="104" y="493"/>
      <point x="104" y="465" type="curve" smooth="yes"/>
      <point x="104" y="42" type="line" smooth="yes"/>
      <point x="104" y="15"/>
      <point x="119" y="0"/>
      <point x="146" y="0" type="curve" smooth="yes"/>
      <point x="173" y="0"/>
    </contour>
  </outline>
</glyph>
<glyph name="s" format="2">
  <advance width="611"/>
  <unicode hex="0073"/>
  <anchor x="316" y="0" name="bottom"/>
  <anchor x="316" y="507" name="top"/>
  <outline>
    <contour>
      <point x="223" y="0" type="curve" smooth="yes"/>
      <point x="387" y="0" type="line" smooth="yes"/>
      <point x="487" y="0"/>
      <point x="537" y="49"/>
      <point x="537" y="150" type="curve" smooth="yes"/>
      <point x="537" y="250"/>
      <point x="487" y="300"/>
      <point x="387" y="300" type="curve" smooth="yes"/>
      <point x="226" y="300" type="line" smooth="yes"/>
      <point x="177" y="300"/>
      <point x="165" y="313"/>
      <point x="165" y="361" type="curve" smooth="yes"/>
      <point x="165" y="413"/>
      <point x="175" y="423"/>
      <point x="226" y="423" type="curve" smooth="yes"/>
      <point x="382" y="423" type="line" smooth="yes"/>
      <point x="413" y="423"/>
      <point x="428" y="419"/>
      <point x="436" y="403" type="curve" smooth="yes"/>
      <point x="443" y="378"/>
      <point x="454" y="364"/>
      <point x="480" y="364" type="curve" smooth="yes"/>
      <point x="508" y="364"/>
      <point x="526" y="380"/>
      <point x="521" y="408" type="curve" smooth="yes"/>
      <point x="507" y="473"/>
      <point x="461" y="507"/>
      <point x="382" y="507" type="curve" smooth="yes"/>
      <point x="226" y="507" type="line" smooth="yes"/>
      <point x="128" y="507"/>
      <point x="81" y="459"/>
      <point x="81" y="361" type="curve" smooth="yes"/>
      <point x="81" y="265"/>
      <point x="130" y="216"/>
      <point x="226" y="216" type="curve" smooth="yes"/>
      <point x="387" y="216" type="line" smooth="yes"/>
      <point x="439" y="216"/>
      <point x="453" y="203"/>
      <point x="453" y="150" type="curve" smooth="yes"/>
      <point x="453" y="96"/>
      <point x="439" y="84"/>
      <point x="387" y="84" type="curve" smooth="yes"/>
      <point x="223" y="84" type="line" smooth="yes"/>
      <point x="186" y="84"/>
      <point x="169" y="89"/>
      <point x="161" y="109" type="curve" smooth="yes"/>
      <point x="153" y="136"/>
      <point x="143" y="150"/>
      <point x="116" y="150" type="curve" smooth="yes"/>
      <point x="88" y="150"/>
      <point x="70" y="133"/>
      <point x="75" y="105" type="curve" smooth="yes"/>
      <point x="89" y="35"/>
      <point x="138" y="0"/>
    </contour>
  </outline>
</glyph>
<glyph name="t" format="2">
  <advance width="419"/>
  <unicode hex="0074"/>
  <anchor x="187" y="0" name="bottom"/>
  <anchor x="196" y="311" name="center"/>
  <anchor x="167" y="622" name="top"/>
  <anchor x="242" y="507" name="topright"/>
  <outline>
    <contour>
      <point x="360" y="15"/>
      <point x="360" y="42" type="curve" smooth="yes"/>
      <point x="360" y="71"/>
      <point x="344" y="84"/>
      <point x="318" y="84" type="curve" smooth="yes"/>
      <point x="234" y="84"/>
      <point x="209" y="107"/>
      <point x="209" y="192" type="curve"/>
      <point x="209" y="580" type="line" smooth="yes"/>
      <point x="209" y="607"/>
      <point x="194" y="622"/>
      <point x="167" y="622" type="curve" smooth="yes"/>
      <point x="140" y="622"/>
      <point x="125" y="607"/>
      <point x="125" y="580" type="curve" smooth="yes"/>
      <point x="125" y="192" type="line" smooth="yes"/>
      <point x="125" y="61"/>
      <point x="186" y="0"/>
      <point x="318" y="0" type="curve" smooth="yes"/>
      <point x="344" y="0"/>
    </contour>
    <contour>
      <point x="76" y="423" type="curve" smooth="yes"/>
      <point x="324" y="423" type="line" smooth="yes"/>
      <point x="351" y="423"/>
      <point x="366" y="438"/>
      <point x="366" y="465" type="curve" smooth="yes"/>
      <point x="366" y="493"/>
      <point x="351" y="507"/>
      <point x="324" y="507" type="curve" smooth="yes"/>
      <point x="76" y="507" type="line" smooth="yes"/>
      <point x="49" y="507"/>
      <point x="34" y="493"/>
      <point x="34" y="465" type="curve" smooth="yes"/>
      <point x="34" y="438"/>
      <point x="49" y="423"/>
    </contour>
  </outline>
</glyph>
<glyph name="v" format="2">
  <advance width="526"/>
  <unicode hex="0076"/>
  <anchor x="265" y="0" name="bottom"/>
  <anchor x="263" y="507" name="top"/>
  <outline>
    <contour>
      <point x="293" y="10"/>
      <point x="302" y="31" type="curve" smooth="yes"/>
      <point x="486" y="446" type="line" smooth="yes"/>
      <point x="497" y="471"/>
      <point x="491" y="490"/>
      <point x="466" y="502" type="curve" smooth="yes"/>
      <point x="442" y="513"/>
      <point x="421" y="504"/>
      <point x="410" y="482" type="curve" smooth="yes"/>
      <point x="236" y="92" type="line"/>
      <point x="275" y="92" type="line"/>
      <point x="116" y="480" type="line" smooth="yes"/>
      <point x="105" y="505"/>
      <point x="85" y="513"/>
      <point x="61" y="502" type="curve" smooth="yes"/>
      <point x="35" y="492"/>
      <point x="28" y="472"/>
      <point x="39" y="447" type="curve" smooth="yes"/>
      <point x="209" y="33" type="line" smooth="yes"/>
      <point x="218" y="11"/>
      <point x="232" y="0"/>
      <point x="254" y="0" type="curve" smooth="yes"/>
      <point x="278" y="0"/>
    </contour>
  </outline>
</glyph>
<glyph name="w" format="2">
  <advance width="752"/>
  <unicode hex="0077"/>
  <anchor x="370" y="0" name="bottom"/>
  <anchor x="370" y="507" name="top"/>
  <outline>
    <contour>
      <point x="220" y="0" type="curve" smooth="yes"/>
      <point x="241" y="0"/>
      <point x="257" y="12"/>
      <point x="264" y="34" type="curve"/>
      <point x="391" y="426" type="line"/>
      <point x="365" y="379" type="line"/>
      <point x="468" y="35" type="line" smooth="yes"/>
      <point x="474" y="12"/>
      <point x="489" y="0"/>
      <point x="514" y="0" type="curve" smooth="yes"/>
      <point x="538" y="0"/>
      <point x="553" y="11"/>
      <point x="561" y="34" type="curve" smooth="yes"/>
      <point x="713" y="450" type="line" smooth="yes"/>
      <point x="723" y="476"/>
      <point x="713" y="495"/>
      <point x="688" y="504" type="curve" smooth="yes"/>
      <point x="662" y="513"/>
      <point x="643" y="505"/>
      <point x="634" y="478" type="curve" smooth="yes"/>
      <point x="519" y="145" type="line"/>
      <point x="521" y="149" type="line"/>
      <point x="423" y="475" type="line" smooth="yes"/>
      <point x="416" y="499"/>
      <point x="401" y="510"/>
      <point x="378" y="510" type="curve" smooth="yes"/>
      <point x="353" y="510"/>
      <point x="337" y="500"/>
      <point x="330" y="477" type="curve" smooth="yes"/>
      <point x="226" y="148" type="line"/>
      <point x="227" y="149" type="line"/>
      <point x="117" y="477" type="line" smooth="yes"/>
      <point x="108" y="504"/>
      <point x="90" y="513"/>
      <point x="64" y="504" type="curve" smooth="yes"/>
      <point x="38" y="496"/>
      <point x="29" y="477"/>
      <point x="37" y="452" type="curve" smooth="yes"/>
      <point x="176" y="34" type="line" smooth="yes"/>
      <point x="184" y="11"/>
      <point x="198" y="0"/>
    </contour>
  </outline>
</glyph>
<glyph name="x" format="2">
  <advance width="533"/>
  <unicode hex="0078"/>
  <anchor x="269" y="0" name="bottom"/>
  <anchor x="274" y="507" name="top"/>
  <outline>
    <contour>
      <point x="492" y="48"/>
      <point x="476" y="70" type="curve" smooth="yes"/>
      <point x="155" y="489" type="line" smooth="yes"/>
      <point x="139" y="510"/>
      <point x="118" y="513"/>
      <point x="97" y="496" type="curve" smooth="yes"/>
      <point x="75" y="480"/>
      <point x="72" y="459"/>
      <point x="89" y="438" type="curve" smooth="yes"/>
      <point x="410" y="19" type="line" smooth="yes"/>
      <point x="426" y="-3"/>
      <point x="447" y="-6"/>
      <point x="469" y="11" type="curve" smooth="yes"/>
      <point x="490" y="28"/>
    </contour>
    <contour>
      <point x="116" y="-2"/>
      <point x="132" y="20" type="curve" smooth="yes"/>
      <point x="280" y="228" type="line" smooth="yes"/>
      <point x="296" y="250"/>
      <point x="293" y="271"/>
      <point x="271" y="287" type="curve" smooth="yes"/>
      <point x="249" y="303"/>
      <point x="228" y="300"/>
      <point x="212" y="278" type="curve" smooth="yes"/>
      <point x="64" y="69" type="line" smooth="yes"/>
      <point x="48" y="47"/>
      <point x="51" y="27"/>
      <point x="73" y="10" type="curve" smooth="yes"/>
      <point x="95" y="-6"/>
    </contour>
    <contour>
      <point x="304" y="243"/>
      <point x="321" y="266" type="curve" smooth="yes"/>
      <point x="452" y="438" type="line" smooth="yes"/>
      <point x="468" y="460"/>
      <point x="465" y="481"/>
      <point x="444" y="497" type="curve" smooth="yes"/>
      <point x="422" y="514"/>
      <point x="401" y="511"/>
      <point x="385" y="489" type="curve" smooth="yes"/>
      <point x="255" y="317" type="line" smooth="yes"/>
      <point x="238" y="295"/>
      <point x="241" y="274"/>
      <point x="263" y="258" type="curve" smooth="yes"/>
      <point x="285" y="241"/>
    </contour>
  </outline>
</glyph>
<glyph name="y" format="2">
  <advance width="680"/>
  <unicode hex="0079"/>
  <anchor x="655" y="0" name="bottom"/>
  <anchor x="335" y="507" name="top"/>
  <outline>
    <contour>
      <point x="238" y="-200" type="curve" smooth="yes"/>
      <point x="432" y="-200" type="line" smooth="yes"/>
      <point x="528" y="-200"/>
      <point x="576" y="-152"/>
      <point x="576" y="-55" type="curve" smooth="yes"/>
      <point x="576" y="465" type="line" smooth="yes"/>
      <point x="576" y="493"/>
      <point x="562" y="507"/>
      <point x="534" y="507" type="curve" smooth="yes"/>
      <point x="506" y="507"/>
      <point x="492" y="493"/>
      <point x="492" y="465" type="curve" smooth="yes"/>
      <point x="492" y="192" type="line" smooth="yes"/>
      <point x="492" y="119"/>
      <point x="445" y="84"/>
      <point x="336" y="84" type="curve" smooth="yes"/>
      <point x="287" y="84" type="line" smooth="yes"/>
      <point x="202" y="84"/>
      <point x="178" y="108"/>
      <point x="178" y="192" type="curve" smooth="yes"/>
      <point x="178" y="465" type="line" smooth="yes"/>
      <point x="178" y="493"/>
      <point x="164" y="507"/>
      <point x="136" y="507" type="curve" smooth="yes"/>
      <point x="108" y="507"/>
      <point x="94" y="493"/>
      <point x="94" y="465" type="curve" smooth="yes"/>
      <point x="94" y="192" type="line" smooth="yes"/>
      <point x="94" y="61"/>
      <point x="155" y="0"/>
      <point x="287" y="0" type="curve" smooth="yes"/>
      <point x="336" y="0" type="line" smooth="yes"/>
      <point x="398" y="0"/>
      <point x="452" y="12"/>
      <point x="492" y="72" type="curve"/>
      <point x="492" y="-55" type="line" smooth="yes"/>
      <point x="492" y="-105"/>
      <point x="481" y="-116"/>
      <point x="432" y="-116" type="curve" smooth="yes"/>
      <point x="238" y="-116" type="line" smooth="yes"/>
      <point x="188" y="-116"/>
      <point x="178" y="-105"/>
      <point x="178" y="-55" type="curve" smooth="yes"/>
      <point x="178" y="-27"/>
      <point x="164" y="-13"/>
      <point x="136" y="-13" type="curve" smooth="yes"/>
      <point x="108" y="-13"/>
      <point x="94" y="-27"/>
      <point x="94" y="-55" type="curve" smooth="yes"/>
      <point x="94" y="-152"/>
      <point x="141" y="-200"/>
    </contour>
  </outline>
</glyph>
<glyph name="z" format="2">
  <advance width="545"/>
  <unicode hex="007A"/>
  <anchor x="272" y="0" name="bottom"/>
  <anchor x="284" y="507" name="top"/>
  <outline>
    <contour>
      <point x="109" y="0" type="curve" smooth="yes"/>
      <point x="368" y="0" type="line" smooth="yes"/>
      <point x="446" y="0"/>
      <point x="494" y="35"/>
      <point x="508" y="100" type="curve" smooth="yes"/>
      <point x="514" y="128"/>
      <point x="496" y="144"/>
      <point x="467" y="144" type="curve" smooth="yes"/>
      <point x="441" y="144"/>
      <point x="432" y="130"/>
      <point x="423" y="105" type="curve" smooth="yes"/>
      <point x="415" y="89"/>
      <point x="399" y="84"/>
      <point x="368" y="84" type="curve" smooth="yes"/>
      <point x="161" y="85" type="line"/>
      <point x="172" y="68" type="line"/>
      <point x="455" y="423" type="line" smooth="yes"/>
      <point x="468" y="439"/>
      <point x="473" y="451"/>
      <point x="473" y="465" type="curve" smooth="yes"/>
      <point x="473" y="493"/>
      <point x="458" y="507"/>
      <point x="431" y="507" type="curve" smooth="yes"/>
      <point x="186" y="507" type="line" smooth="yes"/>
      <point x="105" y="507"/>
      <point x="59" y="474"/>
      <point x="46" y="407" type="curve" smooth="yes"/>
      <point x="41" y="379"/>
      <point x="58" y="363"/>
      <point x="87" y="363" type="curve" smooth="yes"/>
      <point x="113" y="363"/>
      <point x="123" y="377"/>
      <point x="130" y="403" type="curve" smooth="yes"/>
      <point x="138" y="419"/>
      <point x="153" y="423"/>
      <point x="186" y="423" type="curve" smooth="yes"/>
      <point x="375" y="423" type="line"/>
      <point x="373" y="443" type="line"/>
      <point x="85" y="83" type="line" smooth="yes"/>
      <point x="72" y="67"/>
      <point x="67" y="55"/>
      <point x="67" y="42" type="curve" smooth="yes"/>
      <point x="67" y="15"/>
      <point x="83" y="0"/>
    </contour>
  </outline>
</glyph>
<glyph name="braceleft" format="2">
  <advance width="358"/>
  <unicode hex="007B"/>
  <outline>
    <contour>
      <point x="313" y="-175" type="curve" smooth="yes"/>
      <point x="332" y="-175"/>
      <point x="348" y="-159"/>
      <point x="348" y="-140" type="curve" smooth="yes"/>
      <point x="348" y="-121"/>
      <point x="332" y="-105"/>
      <point x="313" y="-105" type="curve" smooth="yes"/>
      <point x="230" y="-105"/>
      <point x="214" y="-87"/>
      <point x="214" y="4" type="curve" smooth="yes"/>
      <point x="214" y="189" type="line" smooth="yes"/>
      <point x="214" y="210"/>
      <point x="205" y="224"/>
      <point x="187" y="230" type="curve" smooth="yes"/>
      <point x="102" y="258" type="line"/>
      <point x="102" y="234" type="line"/>
      <point x="187" y="263" type="line" smooth="yes"/>
      <point x="205" y="269"/>
      <point x="214" y="283"/>
      <point x="214" y="304" type="curve" smooth="yes"/>
      <point x="214" y="489" type="line" smooth="yes"/>
      <point x="214" y="588"/>
      <point x="232" y="608"/>
      <point x="313" y="608" type="curve" smooth="yes"/>
      <point x="332" y="608"/>
      <point x="348" y="624"/>
      <point x="348" y="643" type="curve" smooth="yes"/>
      <point x="348" y="662"/>
      <point x="332" y="678"/>
      <point x="313" y="678" type="curve" smooth="yes"/>
      <point x="189" y="678"/>
      <point x="144" y="626"/>
      <point x="144" y="489" type="curve" smooth="yes"/>
      <point x="144" y="322" type="line"/>
      <point x="91" y="301" type="line" smooth="yes"/>
      <point x="73" y="293"/>
      <point x="64" y="281"/>
      <point x="64" y="260" type="curve" smooth="yes"/>
      <point x="64" y="232" type="line" smooth="yes"/>
      <point x="64" y="211"/>
      <point x="73" y="199"/>
      <point x="91" y="191" type="curve" smooth="yes"/>
      <point x="144" y="171" type="line"/>
      <point x="144" y="4" type="line" smooth="yes"/>
      <point x="144" y="-125"/>
      <point x="190" y="-175"/>
    </contour>
  </outline>
</glyph>
<glyph name="bar" format="2">
  <advance width="244"/>
  <unicode hex="007C"/>
  <outline>
    <contour>
      <point x="164" y="-147"/>
      <point x="164" y="-120" type="curve" smooth="yes"/>
      <point x="164" y="674" type="line" smooth="yes"/>
      <point x="164" y="702"/>
      <point x="149" y="716"/>
      <point x="122" y="716" type="curve" smooth="yes"/>
      <point x="95" y="716"/>
      <point x="80" y="702"/>
      <point x="80" y="674" type="curve" smooth="yes"/>
      <point x="80" y="-120" type="line" smooth="yes"/>
      <point x="80" y="-147"/>
      <point x="95" y="-162"/>
      <point x="122" y="-162" type="curve" smooth="yes"/>
      <point x="149" y="-162"/>
    </contour>
  </outline>
</glyph>
<glyph name="asciitilde" format="2">
  <advance width="609"/>
  <unicode hex="007E"/>
  <outline>
    <contour>
      <point x="139" y="268"/>
      <point x="144" y="273" type="curve" smooth="yes"/>
      <point x="189" y="320"/>
      <point x="194" y="322"/>
      <point x="216" y="322" type="curve" smooth="yes"/>
      <point x="282" y="322"/>
      <point x="307" y="263"/>
      <point x="388" y="263" type="curve" smooth="yes"/>
      <point x="432" y="263"/>
      <point x="466" y="284"/>
      <point x="512" y="334" type="curve" smooth="yes"/>
      <point x="530" y="355"/>
      <point x="514" y="388"/>
      <point x="488" y="388" type="curve" smooth="yes"/>
      <point x="479" y="388"/>
      <point x="470" y="384"/>
      <point x="463" y="378" type="curve" smooth="yes"/>
      <point x="426" y="339"/>
      <point x="412" y="329"/>
      <point x="388" y="329" type="curve" smooth="yes"/>
      <point x="336" y="329"/>
      <point x="300" y="388"/>
      <point x="216" y="388" type="curve" smooth="yes"/>
      <point x="173" y="388"/>
      <point x="154" y="376"/>
      <point x="97" y="319" type="curve" smooth="yes"/>
      <point x="78" y="299"/>
      <point x="93" y="263"/>
      <point x="121" y="263" type="curve" smooth="yes"/>
      <point x="129" y="263"/>
    </contour>
  </outline>
</glyph>
<glyph name="cent" format="2">
  <advance width="502"/>
  <unicode hex="00A2"/>
  <outline>
    <contour>
      <point x="242" y="49" type="curve" smooth="yes"/>
      <point x="298" y="49" type="line" smooth="yes"/>
      <point x="407" y="49"/>
      <point x="462" y="92"/>
      <point x="462" y="185" type="curve" smooth="yes"/>
      <point x="462" y="208"/>
      <point x="443" y="227"/>
      <point x="420" y="227" type="curve" smooth="yes"/>
      <point x="397" y="227"/>
      <point x="378" y="208"/>
      <point x="378" y="185" type="curve" smooth="yes"/>
      <point x="378" y="145"/>
      <point x="364" y="133"/>
      <point x="298" y="133" type="curve" smooth="yes"/>
      <point x="242" y="133" type="line" smooth="yes"/>
      <point x="164" y="133"/>
      <point x="144" y="155"/>
      <point x="144" y="229" type="curve" smooth="yes"/>
      <point x="144" y="312" type="line" smooth="yes"/>
      <point x="144" y="388"/>
      <point x="165" y="410"/>
      <point x="242" y="409" type="curve" smooth="yes"/>
      <point x="298" y="409" type="line" smooth="yes"/>
      <point x="364" y="409"/>
      <point x="378" y="397"/>
      <point x="378" y="357" type="curve" smooth="yes"/>
      <point x="378" y="334"/>
      <point x="397" y="315"/>
      <point x="420" y="315" type="curve" smooth="yes"/>
      <point x="443" y="315"/>
      <point x="462" y="334"/>
      <point x="462" y="357" type="curve" smooth="yes"/>
      <point x="462" y="450"/>
      <point x="407" y="493"/>
      <point x="298" y="493" type="curve" smooth="yes"/>
      <point x="242" y="493" type="line" smooth="yes"/>
      <point x="118" y="494"/>
      <point x="60" y="435"/>
      <point x="60" y="312" type="curve" smooth="yes"/>
      <point x="60" y="229" type="line" smooth="yes"/>
      <point x="60" y="107"/>
      <point x="119" y="49"/>
    </contour>
    <contour>
      <point x="305" y="-24"/>
      <point x="305" y="0" type="curve" smooth="yes"/>
      <point x="305" y="541" type="line" smooth="yes"/>
      <point x="305" y="565"/>
      <point x="294" y="576"/>
      <point x="270" y="576" type="curve" smooth="yes"/>
      <point x="246" y="576"/>
      <point x="235" y="565"/>
      <point x="235" y="541" type="curve" smooth="yes"/>
      <point x="235" y="0" type="line" smooth="yes"/>
      <point x="235" y="-24"/>
      <point x="246" y="-35"/>
      <point x="270" y="-35" type="curve" smooth="yes"/>
      <point x="294" y="-35"/>
    </contour>
  </outline>
</glyph>
<glyph name="sterling" format="2">
  <advance width="592"/>
  <unicode hex="00A3"/>
  <outline>
    <contour>
      <point x="44" y="0" type="line"/>
      <point x="512" y="0" type="line" smooth="yes"/>
      <point x="540" y="0"/>
      <point x="554" y="14"/>
      <point x="554" y="42" type="curve" smooth="yes"/>
      <point x="554" y="70"/>
      <point x="540" y="84"/>
      <point x="512" y="84" type="curve" smooth="yes"/>
      <point x="162" y="84" type="line"/>
      <point x="168" y="104"/>
      <point x="170" y="126"/>
      <point x="170" y="150" type="curve" smooth="yes"/>
      <point x="170" y="430" type="line" smooth="yes"/>
      <point x="170" y="538"/>
      <point x="204" y="570"/>
      <point x="309" y="570" type="curve" smooth="yes"/>
      <point x="330" y="570" type="line" smooth="yes"/>
      <point x="424" y="570"/>
      <point x="450" y="545"/>
      <point x="450" y="450" type="curve" smooth="yes"/>
      <point x="450" y="422"/>
      <point x="464" y="408"/>
      <point x="492" y="408" type="curve" smooth="yes"/>
      <point x="520" y="408"/>
      <point x="534" y="422"/>
      <point x="534" y="450" type="curve" smooth="yes"/>
      <point x="534" y="592"/>
      <point x="470" y="654"/>
      <point x="330" y="654" type="curve" smooth="yes"/>
      <point x="309" y="654" type="line" smooth="yes"/>
      <point x="157" y="654"/>
      <point x="86" y="584"/>
      <point x="86" y="430" type="curve" smooth="yes"/>
      <point x="86" y="150" type="line" smooth="yes"/>
      <point x="86" y="94"/>
      <point x="78" y="84"/>
      <point x="44" y="84" type="curve"/>
    </contour>
    <contour>
      <point x="33" y="208" type="curve" smooth="yes"/>
      <point x="358" y="208" type="line" smooth="yes"/>
      <point x="380" y="208"/>
      <point x="393" y="220"/>
      <point x="393" y="243" type="curve" smooth="yes"/>
      <point x="393" y="265"/>
      <point x="380" y="278"/>
      <point x="358" y="278" type="curve" smooth="yes"/>
      <point x="33" y="278" type="line" smooth="yes"/>
      <point x="11" y="278"/>
      <point x="-2" y="265"/>
      <point x="-2" y="243" type="curve" smooth="yes"/>
      <point x="-2" y="220"/>
      <point x="11" y="208"/>
    </contour>
  </outline>
</glyph>
<glyph name="currency" format="2">
  <advance width="636"/>
  <unicode hex="00A4"/>
  <outline>
    <contour>
      <point x="170" y="126"/>
      <point x="178" y="133" type="curve" smooth="yes"/>
      <point x="222" y="177" type="line"/>
      <point x="254" y="157"/>
      <point x="291" y="145"/>
      <point x="331" y="145" type="curve" smooth="yes"/>
      <point x="372" y="145"/>
      <point x="410" y="157"/>
      <point x="442" y="178" type="curve"/>
      <point x="485" y="134" type="line" smooth="yes"/>
      <point x="493" y="126"/>
      <point x="503" y="121"/>
      <point x="515" y="121" type="curve" smooth="yes"/>
      <point x="538" y="121"/>
      <point x="557" y="140"/>
      <point x="557" y="163" type="curve" smooth="yes"/>
      <point x="557" y="174"/>
      <point x="552" y="185"/>
      <point x="545" y="192" type="curve" smooth="yes"/>
      <point x="501" y="237" type="line"/>
      <point x="522" y="269"/>
      <point x="533" y="307"/>
      <point x="533" y="347" type="curve" smooth="yes"/>
      <point x="533" y="387"/>
      <point x="521" y="425"/>
      <point x="500" y="457" type="curve"/>
      <point x="545" y="502" type="line" smooth="yes"/>
      <point x="553" y="510"/>
      <point x="557" y="520"/>
      <point x="557" y="531" type="curve" smooth="yes"/>
      <point x="557" y="554"/>
      <point x="538" y="573"/>
      <point x="515" y="573" type="curve" smooth="yes"/>
      <point x="504" y="573"/>
      <point x="493" y="568"/>
      <point x="486" y="561" type="curve" smooth="yes"/>
      <point x="441" y="516" type="line"/>
      <point x="409" y="536"/>
      <point x="372" y="548"/>
      <point x="331" y="548" type="curve" smooth="yes"/>
      <point x="291.009" y="548"/>
      <point x="254" y="536"/>
      <point x="222" y="516" type="curve"/>
      <point x="179" y="559" type="line" smooth="yes"/>
      <point x="172" y="567"/>
      <point x="161" y="572"/>
      <point x="149" y="572" type="curve" smooth="yes"/>
      <point x="126" y="572"/>
      <point x="107" y="553"/>
      <point x="107" y="530" type="curve" smooth="yes"/>
      <point x="107" y="518"/>
      <point x="112" y="508"/>
      <point x="120" y="500" type="curve" smooth="yes"/>
      <point x="163" y="456" type="line"/>
      <point x="142" y="424"/>
      <point x="130" y="387"/>
      <point x="130" y="347" type="curve" smooth="yes"/>
      <point x="130" y="307"/>
      <point x="142" y="269"/>
      <point x="163" y="237" type="curve"/>
      <point x="118" y="193" type="line" smooth="yes"/>
      <point x="111" y="185"/>
      <point x="106" y="175"/>
      <point x="106" y="163" type="curve" smooth="yes"/>
      <point x="106" y="140"/>
      <point x="125" y="121"/>
      <point x="148" y="121" type="curve" smooth="yes"/>
      <point x="160" y="121"/>
    </contour>
    <contour>
      <point x="214" y="282"/>
      <point x="214" y="347" type="curve" smooth="yes"/>
      <point x="214" y="411"/>
      <point x="268" y="464"/>
      <point x="331" y="464" type="curve" smooth="yes"/>
      <point x="396.01" y="464"/>
      <point x="449" y="411"/>
      <point x="449" y="347" type="curve" smooth="yes"/>
      <point x="449" y="282"/>
      <point x="396" y="229"/>
      <point x="331" y="229" type="curve" smooth="yes"/>
      <point x="268" y="229"/>
    </contour>
  </outline>
</glyph>
<glyph name="yen" format="2">
  <advance width="616"/>
  <unicode hex="00A5"/>
  <outline>
    <contour>
      <point x="351" y="15"/>
      <point x="351" y="42" type="curve" smooth="yes"/>
      <point x="351" y="243" type="line"/>
      <point x="585" y="611" type="line" smooth="yes"/>
      <point x="598" y="635"/>
      <point x="594" y="654"/>
      <point x="572" y="670" type="curve" smooth="yes"/>
      <point x="548" y="685"/>
      <point x="527" y="680"/>
      <point x="513" y="657" type="curve" smooth="yes"/>
      <point x="279" y="277" type="line"/>
      <point x="340" y="277" type="line"/>
      <point x="103" y="655" type="line" smooth="yes"/>
      <point x="88" y="679"/>
      <point x="68" y="684"/>
      <point x="46" y="668" type="curve" smooth="yes"/>
      <point x="23" y="653"/>
      <point x="18" y="633"/>
      <point x="33" y="610" type="curve" smooth="yes"/>
      <point x="267" y="243" type="line"/>
      <point x="267" y="42" type="line" smooth="yes"/>
      <point x="267" y="15"/>
      <point x="281" y="0"/>
      <point x="309" y="0" type="curve" smooth="yes"/>
      <point x="336" y="0"/>
    </contour>
    <contour>
      <point x="172" y="203" type="curve" smooth="yes"/>
      <point x="444" y="203" type="line" smooth="yes"/>
      <point x="463" y="203"/>
      <point x="472" y="212"/>
      <point x="472" y="231" type="curve" smooth="yes"/>
      <point x="472" y="250"/>
      <point x="463" y="259"/>
      <point x="444" y="259" type="curve" smooth="yes"/>
      <point x="172" y="259" type="line" smooth="yes"/>
      <point x="153" y="259"/>
      <point x="144" y="250"/>
      <point x="144" y="231" type="curve" smooth="yes"/>
      <point x="144" y="212"/>
      <point x="153" y="203"/>
    </contour>
    <contour>
      <point x="172" y="111" type="curve" smooth="yes"/>
      <point x="444" y="111" type="line" smooth="yes"/>
      <point x="463" y="111"/>
      <point x="472" y="120"/>
      <point x="472" y="139" type="curve" smooth="yes"/>
      <point x="472" y="158"/>
      <point x="463" y="167"/>
      <point x="444" y="167" type="curve" smooth="yes"/>
      <point x="172" y="167" type="line" smooth="yes"/>
      <point x="153" y="167"/>
      <point x="144" y="158"/>
      <point x="144" y="139" type="curve" smooth="yes"/>
      <point x="144" y="120"/>
      <point x="153" y="111"/>
    </contour>
  </outline>
</glyph>
<glyph name="brokenbar" format="2">
  <advance width="244"/>
  <unicode hex="00A6"/>
  <outline>
    <contour>
      <point x="164" y="-143"/>
      <point x="164" y="-120" type="curve" smooth="yes"/>
      <point x="164" y="167" type="line" smooth="yes"/>
      <point x="164" y="190"/>
      <point x="145" y="209"/>
      <point x="122" y="209" type="curve" smooth="yes"/>
      <point x="99" y="209"/>
      <point x="80" y="190"/>
      <point x="80" y="167" type="curve" smooth="yes"/>
      <point x="80" y="-120" type="line" smooth="yes"/>
      <point x="80" y="-143"/>
      <point x="99" y="-162"/>
      <point x="122" y="-162" type="curve" smooth="yes"/>
      <point x="145" y="-162"/>
    </contour>
    <contour>
      <point x="164" y="366"/>
      <point x="164" y="389" type="curve" smooth="yes"/>
      <point x="164" y="674" type="line" smooth="yes"/>
      <point x="164" y="697"/>
      <point x="145" y="716"/>
      <point x="122" y="716" type="curve" smooth="yes"/>
      <point x="99" y="716"/>
      <point x="80" y="697"/>
      <point x="80" y="674" type="curve" smooth="yes"/>
      <point x="80" y="389" type="line" smooth="yes"/>
      <point x="80" y="366"/>
      <point x="99" y="347"/>
      <point x="122" y="347" type="curve" smooth="yes"/>
      <point x="145" y="347"/>
    </contour>
  </outline>
</glyph>
<glyph name="section" format="2">
  <advance width="572"/>
  <unicode hex="00A7"/>
  <outline>
    <contour>
      <point x="482" y="196"/>
      <point x="482" y="282" type="curve" smooth="yes"/>
      <point x="482" y="362"/>
      <point x="446" y="408"/>
      <point x="358" y="439" type="curve" smooth="yes"/>
      <point x="259" y="474" type="line" smooth="yes"/>
      <point x="208" y="492"/>
      <point x="192" y="509"/>
      <point x="192" y="546" type="curve" smooth="yes"/>
      <point x="192" y="574"/>
      <point x="203" y="583"/>
      <point x="246" y="583" type="curve" smooth="yes"/>
      <point x="344" y="583" type="line" smooth="yes"/>
      <point x="386" y="583"/>
      <point x="396" y="573"/>
      <point x="396" y="530" type="curve" smooth="yes"/>
      <point x="396" y="509"/>
      <point x="414" y="491"/>
      <point x="435" y="491" type="curve" smooth="yes"/>
      <point x="456" y="491"/>
      <point x="474" y="509"/>
      <point x="474" y="530" type="curve" smooth="yes"/>
      <point x="474" y="617"/>
      <point x="431" y="661"/>
      <point x="344" y="661" type="curve" smooth="yes"/>
      <point x="246" y="661" type="line" smooth="yes"/>
      <point x="161" y="661"/>
      <point x="114" y="621"/>
      <point x="114" y="546" type="curve" smooth="yes"/>
      <point x="114" y="474"/>
      <point x="153" y="428"/>
      <point x="234" y="400" type="curve" smooth="yes"/>
      <point x="333" y="365" type="line" smooth="yes"/>
      <point x="390" y="345"/>
      <point x="404" y="327"/>
      <point x="404" y="282" type="curve" smooth="yes"/>
      <point x="404" y="224"/>
      <point x="387" y="206"/>
      <point x="340" y="206" type="curve" smooth="yes"/>
      <point x="318" y="206"/>
      <point x="301" y="189"/>
      <point x="301" y="167" type="curve" smooth="yes"/>
      <point x="301" y="157"/>
      <point x="318" y="149"/>
      <point x="340" y="150" type="curve" smooth="yes"/>
      <point x="432" y="150"/>
    </contour>
    <contour>
      <point x="231" y="-90" type="curve" smooth="yes"/>
      <point x="345" y="-90" type="line" smooth="yes"/>
      <point x="444" y="-90"/>
      <point x="492" y="-42"/>
      <point x="492" y="57" type="curve" smooth="yes"/>
      <point x="492" y="136"/>
      <point x="460" y="169"/>
      <point x="357" y="202" type="curve" smooth="yes"/>
      <point x="233" y="242" type="line" smooth="yes"/>
      <point x="171" y="262"/>
      <point x="158" y="277"/>
      <point x="158" y="328" type="curve" smooth="yes"/>
      <point x="158" y="386"/>
      <point x="174" y="402"/>
      <point x="231" y="402" type="curve" smooth="yes"/>
      <point x="253" y="402"/>
      <point x="270" y="419"/>
      <point x="270" y="441" type="curve" smooth="yes"/>
      <point x="270" y="452"/>
      <point x="253" y="461"/>
      <point x="231" y="458" type="curve" smooth="yes"/>
      <point x="129" y="458"/>
      <point x="80" y="416"/>
      <point x="80" y="328" type="curve" smooth="yes"/>
      <point x="80" y="242"/>
      <point x="116" y="198"/>
      <point x="210" y="168" type="curve" smooth="yes"/>
      <point x="334" y="128" type="line" smooth="yes"/>
      <point x="407" y="104"/>
      <point x="414" y="94"/>
      <point x="414" y="57" type="curve" smooth="yes"/>
      <point x="414" y="2"/>
      <point x="400" y="-12"/>
      <point x="345" y="-12" type="curve" smooth="yes"/>
      <point x="231" y="-12" type="line" smooth="yes"/>
      <point x="176" y="-12"/>
      <point x="162" y="2"/>
      <point x="162" y="57" type="curve" smooth="yes"/>
      <point x="162" y="78"/>
      <point x="144" y="96"/>
      <point x="123" y="96" type="curve" smooth="yes"/>
      <point x="102" y="96"/>
      <point x="84" y="78"/>
      <point x="84" y="57" type="curve" smooth="yes"/>
      <point x="84" y="-42"/>
      <point x="132" y="-90"/>
    </contour>
  </outline>
</glyph>
<glyph name="copyright" format="2">
  <advance width="818"/>
  <unicode hex="00A9"/>
  <outline>
    <contour>
      <point x="738" y="144"/>
      <point x="738" y="335" type="curve" smooth="yes"/>
      <point x="738" y="526"/>
      <point x="600" y="664"/>
      <point x="409" y="664" type="curve" smooth="yes"/>
      <point x="218" y="664"/>
      <point x="80" y="526"/>
      <point x="80" y="335" type="curve" smooth="yes"/>
      <point x="80" y="144"/>
      <point x="218" y="7"/>
      <point x="409" y="7" type="curve" smooth="yes"/>
      <point x="600" y="7"/>
    </contour>
    <contour>
      <point x="150" y="182"/>
      <point x="150" y="335" type="curve" smooth="yes"/>
      <point x="150" y="488"/>
      <point x="256" y="594"/>
      <point x="409" y="594" type="curve" smooth="yes"/>
      <point x="562" y="594"/>
      <point x="668" y="488"/>
      <point x="668" y="335" type="curve" smooth="yes"/>
      <point x="668" y="182"/>
      <point x="562" y="77"/>
      <point x="409" y="77" type="curve" smooth="yes"/>
      <point x="256" y="77"/>
    </contour>
    <contour>
      <point x="385" y="146" type="curve" smooth="yes"/>
      <point x="434" y="146" type="line" smooth="yes"/>
      <point x="503" y="146"/>
      <point x="546" y="168"/>
      <point x="563" y="211" type="curve" smooth="yes"/>
      <point x="570" y="234"/>
      <point x="555" y="249"/>
      <point x="528" y="249" type="curve" smooth="yes"/>
      <point x="506" y="249"/>
      <point x="503" y="238"/>
      <point x="490" y="219" type="curve" smooth="yes"/>
      <point x="480" y="218"/>
      <point x="462" y="216"/>
      <point x="434" y="216" type="curve" smooth="yes"/>
      <point x="385" y="216" type="line" smooth="yes"/>
      <point x="324" y="216"/>
      <point x="308" y="232"/>
      <point x="308" y="292" type="curve" smooth="yes"/>
      <point x="308" y="375" type="line" smooth="yes"/>
      <point x="308" y="437"/>
      <point x="325" y="452"/>
      <point x="385" y="452" type="curve" smooth="yes"/>
      <point x="434" y="452" type="line" smooth="yes"/>
      <point x="462" y="452"/>
      <point x="479" y="451"/>
      <point x="490" y="449" type="curve" smooth="yes"/>
      <point x="504" y="431"/>
      <point x="506" y="420"/>
      <point x="528" y="420" type="curve" smooth="yes"/>
      <point x="557" y="420"/>
      <point x="569" y="434"/>
      <point x="563" y="457" type="curve" smooth="yes"/>
      <point x="549" y="501"/>
      <point x="503" y="522"/>
      <point x="434" y="522" type="curve" smooth="yes"/>
      <point x="385" y="522" type="line" smooth="yes"/>
      <point x="286" y="522"/>
      <point x="238" y="475"/>
      <point x="238" y="375" type="curve" smooth="yes"/>
      <point x="238" y="292" type="line" smooth="yes"/>
      <point x="238" y="194"/>
      <point x="286" y="146"/>
    </contour>
  </outline>
</glyph>
<glyph name="ordfeminine" format="2">
  <advance width="474"/>
  <unicode hex="00AA"/>
  <outline>
    <contour>
      <point x="373" y="298" type="curve" smooth="yes"/>
      <point x="397" y="298"/>
      <point x="410" y="311"/>
      <point x="410" y="334" type="curve" smooth="yes"/>
      <point x="410" y="527" type="line" smooth="yes"/>
      <point x="410" y="622"/>
      <point x="364" y="668"/>
      <point x="269" y="668" type="curve" smooth="yes"/>
      <point x="213" y="668" type="line" smooth="yes"/>
      <point x="135" y="668"/>
      <point x="90" y="645"/>
      <point x="75" y="595" type="curve" smooth="yes"/>
      <point x="69" y="570"/>
      <point x="84" y="556"/>
      <point x="109" y="556" type="curve" smooth="yes"/>
      <point x="127" y="556"/>
      <point x="129" y="558"/>
      <point x="150" y="585" type="curve" smooth="yes"/>
      <point x="160" y="592"/>
      <point x="178" y="595"/>
      <point x="213" y="595" type="curve" smooth="yes"/>
      <point x="269" y="595" type="line" smooth="yes"/>
      <point x="323" y="595"/>
      <point x="337" y="581"/>
      <point x="337" y="527" type="curve" smooth="yes"/>
      <point x="337" y="334" type="line" smooth="yes"/>
      <point x="337" y="311"/>
      <point x="350" y="298"/>
    </contour>
    <contour>
      <point x="184" y="298" type="curve" smooth="yes"/>
      <point x="239" y="298" type="line" smooth="yes"/>
      <point x="304" y="298"/>
      <point x="346" y="333"/>
      <point x="355" y="398" type="curve"/>
      <point x="337" y="404" type="line"/>
      <point x="337" y="379"/>
      <point x="295" y="371"/>
      <point x="239" y="371" type="curve" smooth="yes"/>
      <point x="184" y="371" type="line" smooth="yes"/>
      <point x="145" y="371"/>
      <point x="137" y="379"/>
      <point x="137" y="418" type="curve" smooth="yes"/>
      <point x="137" y="458"/>
      <point x="145" y="466"/>
      <point x="184" y="466" type="curve" smooth="yes"/>
      <point x="337" y="466" type="line" smooth="yes"/>
      <point x="361" y="466"/>
      <point x="373" y="479"/>
      <point x="373" y="502" type="curve" smooth="yes"/>
      <point x="373" y="526"/>
      <point x="361" y="539"/>
      <point x="337" y="539" type="curve" smooth="yes"/>
      <point x="184" y="539" type="line" smooth="yes"/>
      <point x="105" y="539"/>
      <point x="64" y="499"/>
      <point x="64" y="418" type="curve" smooth="yes"/>
      <point x="64" y="339"/>
      <point x="104" y="298"/>
    </contour>
  </outline>
</glyph>
<glyph name="logicalnot" format="2">
  <advance width="609"/>
  <unicode hex="00AC"/>
  <outline>
    <contour>
      <point x="521" y="219"/>
      <point x="521" y="236" type="curve" smooth="yes"/>
      <point x="521" y="351" type="line" smooth="yes"/>
      <point x="521" y="372"/>
      <point x="510" y="383"/>
      <point x="488" y="383" type="curve" smooth="yes"/>
      <point x="120" y="383" type="line" smooth="yes"/>
      <point x="103" y="383"/>
      <point x="88" y="368"/>
      <point x="88" y="351" type="curve" smooth="yes"/>
      <point x="88" y="334"/>
      <point x="103" y="319"/>
      <point x="120" y="319" type="curve" smooth="yes"/>
      <point x="456" y="319" type="line"/>
      <point x="456" y="236" type="line" smooth="yes"/>
      <point x="456" y="219"/>
      <point x="471" y="204"/>
      <point x="488" y="204" type="curve" smooth="yes"/>
      <point x="505" y="204"/>
    </contour>
  </outline>
</glyph>
<glyph name="registered" format="2">
  <advance width="818"/>
  <unicode hex="00AE"/>
  <outline>
    <contour>
      <point x="738" y="145"/>
      <point x="738" y="336" type="curve" smooth="yes"/>
      <point x="738" y="527"/>
      <point x="600" y="665"/>
      <point x="409" y="665" type="curve" smooth="yes"/>
      <point x="218" y="665"/>
      <point x="80" y="527"/>
      <point x="80" y="336" type="curve" smooth="yes"/>
      <point x="80" y="145"/>
      <point x="218" y="7"/>
      <point x="409" y="7" type="curve" smooth="yes"/>
      <point x="600" y="7"/>
    </contour>
    <contour>
      <point x="150" y="183"/>
      <point x="150" y="336" type="curve" smooth="yes"/>
      <point x="150" y="489"/>
      <point x="256" y="595"/>
      <point x="409" y="595" type="curve" smooth="yes"/>
      <point x="562" y="595"/>
      <point x="668" y="489"/>
      <point x="668" y="336" type="curve" smooth="yes"/>
      <point x="668" y="183"/>
      <point x="562" y="77"/>
      <point x="409" y="77" type="curve" smooth="yes"/>
      <point x="256" y="77"/>
    </contour>
    <contour>
      <point x="357" y="173"/>
      <point x="357" y="195" type="curve" smooth="yes"/>
      <point x="357" y="289" type="line"/>
      <point x="396" y="289" type="line"/>
      <point x="457" y="180" type="line" smooth="yes"/>
      <point x="469" y="161"/>
      <point x="485" y="155"/>
      <point x="505" y="165" type="curve" smooth="yes"/>
      <point x="525" y="175"/>
      <point x="531" y="192"/>
      <point x="520" y="213" type="curve" smooth="yes"/>
      <point x="469" y="301" type="line"/>
      <point x="502" y="318"/>
      <point x="520" y="351"/>
      <point x="520" y="399" type="curve" smooth="yes"/>
      <point x="520" y="414" type="line" smooth="yes"/>
      <point x="520" y="483"/>
      <point x="480" y="523"/>
      <point x="411" y="523" type="curve" smooth="yes"/>
      <point x="322" y="523" type="line" smooth="yes"/>
      <point x="299" y="523"/>
      <point x="287" y="510"/>
      <point x="287" y="488" type="curve" smooth="yes"/>
      <point x="287" y="195" type="line" smooth="yes"/>
      <point x="287" y="173"/>
      <point x="299" y="160"/>
      <point x="322" y="160" type="curve" smooth="yes"/>
      <point x="344" y="160"/>
    </contour>
    <contour>
      <point x="357" y="359" type="line"/>
      <point x="357" y="453" type="line"/>
      <point x="411" y="453" type="line" smooth="yes"/>
      <point x="440" y="453"/>
      <point x="450" y="444"/>
      <point x="450" y="414" type="curve" smooth="yes"/>
      <point x="450" y="399" type="line" smooth="yes"/>
      <point x="450" y="368"/>
      <point x="440" y="359"/>
      <point x="411" y="359" type="curve" smooth="yes"/>
    </contour>
  </outline>
</glyph>
<glyph name="degree" format="2">
  <advance width="289"/>
  <unicode hex="00B0"/>
  <outline>
    <contour>
      <point x="133" y="439" type="curve" smooth="yes"/>
      <point x="156" y="439" type="line" smooth="yes"/>
      <point x="209" y="439"/>
      <point x="239" y="469"/>
      <point x="239" y="522" type="curve" smooth="yes"/>
      <point x="239" y="594" type="line" smooth="yes"/>
      <point x="239" y="647"/>
      <point x="209" y="677"/>
      <point x="156" y="677" type="curve" smooth="yes"/>
      <point x="133" y="677" type="line" smooth="yes"/>
      <point x="80" y="677"/>
      <point x="50" y="647"/>
      <point x="50" y="594" type="curve" smooth="yes"/>
      <point x="50" y="522" type="line" smooth="yes"/>
      <point x="50" y="469"/>
      <point x="80" y="439"/>
    </contour>
    <contour>
      <point x="106" y="501"/>
      <point x="106" y="522" type="curve" smooth="yes"/>
      <point x="106" y="594" type="line" smooth="yes"/>
      <point x="106" y="615"/>
      <point x="112" y="621"/>
      <point x="133" y="621" type="curve" smooth="yes"/>
      <point x="156" y="621" type="line" smooth="yes"/>
      <point x="177" y="621"/>
      <point x="183" y="615"/>
      <point x="183" y="594" type="curve" smooth="yes"/>
      <point x="183" y="522" type="line" smooth="yes"/>
      <point x="183" y="501"/>
      <point x="177" y="495"/>
      <point x="156" y="495" type="curve" smooth="yes"/>
      <point x="133" y="495" type="line" smooth="yes"/>
      <point x="112" y="495"/>
    </contour>
  </outline>
</glyph>
<glyph name="plusminus" format="2">
  <advance width="609"/>
  <unicode hex="00B1"/>
  <outline>
    <contour>
      <point x="279" y="485" type="curve" smooth="yes"/>
      <point x="279" y="213" type="line" smooth="yes"/>
      <point x="279" y="190"/>
      <point x="291" y="178"/>
      <point x="314" y="178" type="curve" smooth="yes"/>
      <point x="337" y="178"/>
      <point x="349" y="190"/>
      <point x="349" y="213" type="curve" smooth="yes"/>
      <point x="349" y="485" type="line" smooth="yes"/>
      <point x="349" y="508"/>
      <point x="337" y="520"/>
      <point x="314" y="520" type="curve" smooth="yes"/>
      <point x="291" y="520"/>
      <point x="279" y="508"/>
    </contour>
    <component base="endash" yOffset="82"/>
    <component base="endash" yOffset="-153"/>
  </outline>
</glyph>
<glyph name="twosuperior" format="2">
  <advance width="374"/>
  <unicode hex="00B2"/>
  <outline>
    <contour>
      <point x="280" y="298" type="line" smooth="yes"/>
      <point x="306" y="298"/>
      <point x="320" y="312"/>
      <point x="320" y="337" type="curve" smooth="yes"/>
      <point x="320" y="363"/>
      <point x="306" y="376"/>
      <point x="280" y="376" type="curve" smooth="yes"/>
      <point x="141" y="376" type="line"/>
      <point x="152" y="400"/>
      <point x="174" y="414"/>
      <point x="211" y="437" type="curve" smooth="yes"/>
      <point x="259" y="467"/>
      <point x="312" y="495"/>
      <point x="312" y="567" type="curve" smooth="yes"/>
      <point x="312" y="636"/>
      <point x="276" y="672"/>
      <point x="207" y="672" type="curve" smooth="yes"/>
      <point x="157" y="672" type="line" smooth="yes"/>
      <point x="97" y="672"/>
      <point x="60" y="647"/>
      <point x="47" y="600" type="curve" smooth="yes"/>
      <point x="41" y="573"/>
      <point x="58" y="558"/>
      <point x="84" y="558" type="curve" smooth="yes"/>
      <point x="103" y="558"/>
      <point x="107" y="564"/>
      <point x="128" y="591" type="curve" smooth="yes"/>
      <point x="133" y="594"/>
      <point x="143" y="594"/>
      <point x="157" y="594" type="curve" smooth="yes"/>
      <point x="207" y="594" type="line" smooth="yes"/>
      <point x="233" y="594"/>
      <point x="234" y="592"/>
      <point x="234" y="567" type="curve" smooth="yes"/>
      <point x="234" y="543"/>
      <point x="220" y="535"/>
      <point x="169" y="503" type="curve" smooth="yes"/>
      <point x="119" y="472"/>
      <point x="57" y="436"/>
      <point x="57" y="337" type="curve" smooth="yes"/>
      <point x="57" y="311"/>
      <point x="73" y="298"/>
      <point x="97" y="298" type="curve" smooth="yes"/>
    </contour>
  </outline>
</glyph>
<glyph name="threesuperior" format="2">
  <advance width="396"/>
  <unicode hex="00B3"/>
  <outline>
    <contour>
      <point x="176" y="301" type="curve" smooth="yes"/>
      <point x="232" y="301" type="line" smooth="yes"/>
      <point x="308" y="301"/>
      <point x="348" y="340"/>
      <point x="348" y="416" type="curve" smooth="yes"/>
      <point x="348" y="493"/>
      <point x="309" y="532"/>
      <point x="232" y="532" type="curve" smooth="yes"/>
      <point x="211" y="532" type="line" smooth="yes"/>
      <point x="186" y="532"/>
      <point x="172" y="518"/>
      <point x="172" y="493" type="curve" smooth="yes"/>
      <point x="172" y="467"/>
      <point x="186" y="453"/>
      <point x="211" y="453" type="curve" smooth="yes"/>
      <point x="232" y="453" type="line" smooth="yes"/>
      <point x="266" y="453"/>
      <point x="270" y="449"/>
      <point x="270" y="416" type="curve" smooth="yes"/>
      <point x="270" y="385"/>
      <point x="266" y="379"/>
      <point x="232" y="379" type="curve" smooth="yes"/>
      <point x="176" y="379" type="line" smooth="yes"/>
      <point x="160" y="379"/>
      <point x="151" y="379"/>
      <point x="145" y="382" type="curve" smooth="yes"/>
      <point x="125" y="410"/>
      <point x="125" y="416"/>
      <point x="102" y="416" type="curve" smooth="yes"/>
      <point x="76" y="416"/>
      <point x="59" y="401"/>
      <point x="65" y="374" type="curve" smooth="yes"/>
      <point x="77" y="326"/>
      <point x="115" y="301"/>
    </contour>
    <contour>
      <point x="229" y="494" type="line"/>
      <point x="304" y="492"/>
      <point x="341" y="526"/>
      <point x="341" y="577" type="curve" smooth="yes"/>
      <point x="341" y="636"/>
      <point x="304" y="675"/>
      <point x="230" y="675" type="curve" smooth="yes"/>
      <point x="178" y="675" type="line" smooth="yes"/>
      <point x="121" y="675"/>
      <point x="83" y="651"/>
      <point x="71" y="604" type="curve" smooth="yes"/>
      <point x="65" y="579"/>
      <point x="79" y="563"/>
      <point x="111" y="563" type="curve" smooth="yes"/>
      <point x="133" y="563"/>
      <point x="136" y="577"/>
      <point x="153" y="595" type="curve"/>
      <point x="158" y="596"/>
      <point x="166" y="597"/>
      <point x="178" y="597" type="curve" smooth="yes"/>
      <point x="230" y="597" type="line" smooth="yes"/>
      <point x="258" y="597"/>
      <point x="263" y="594"/>
      <point x="263" y="563" type="curve" smooth="yes"/>
      <point x="263" y="546"/>
      <point x="254" y="532"/>
      <point x="229" y="532" type="curve"/>
    </contour>
  </outline>
</glyph>
<glyph name="micro" format="2">
  <advance width="703"/>
  <unicode hex="00B5"/>
  <outline>
    <contour>
      <point x="558" y="88"/>
      <point x="558" y="133" type="curve" smooth="yes"/>
      <point x="558" y="465" type="line" smooth="yes"/>
      <point x="558" y="492"/>
      <point x="542" y="507"/>
      <point x="516" y="507" type="curve" smooth="yes"/>
      <point x="489" y="507"/>
      <point x="474" y="492"/>
      <point x="474" y="465" type="curve" smooth="yes"/>
      <point x="474" y="152" type="line" smooth="yes"/>
      <point x="474" y="101"/>
      <point x="406" y="82"/>
      <point x="318" y="82" type="curve" smooth="yes"/>
      <point x="290" y="82" type="line" smooth="yes"/>
      <point x="203" y="82"/>
      <point x="178" y="107"/>
      <point x="178" y="194" type="curve" smooth="yes"/>
      <point x="178" y="465" type="line" smooth="yes"/>
      <point x="178" y="492"/>
      <point x="162" y="507"/>
      <point x="136" y="507" type="curve" smooth="yes"/>
      <point x="109" y="507"/>
      <point x="94" y="492"/>
      <point x="94" y="465" type="curve" smooth="yes"/>
      <point x="94" y="-50" type="line" smooth="yes"/>
      <point x="94" y="-77"/>
      <point x="109" y="-92"/>
      <point x="136" y="-92" type="curve" smooth="yes"/>
      <point x="162" y="-92"/>
      <point x="178" y="-71"/>
      <point x="178" y="-36" type="curve" smooth="yes"/>
      <point x="178" y="53" type="line"/>
      <point x="206" y="15"/>
      <point x="244" y="-2"/>
      <point x="290" y="-2" type="curve" smooth="yes"/>
      <point x="318" y="-2" type="line" smooth="yes"/>
      <point x="398" y="-2"/>
      <point x="457" y="22"/>
      <point x="493" y="60" type="curve"/>
      <point x="521" y="24"/>
      <point x="558" y="-1"/>
      <point x="615" y="0" type="curve" smooth="yes"/>
      <point x="643" y="0"/>
      <point x="658" y="15"/>
      <point x="658" y="42" type="curve" smooth="yes"/>
      <point x="658" y="73"/>
      <point x="646" y="85"/>
      <point x="615" y="84" type="curve" smooth="yes"/>
      <point x="567" y="82"/>
    </contour>
  </outline>
</glyph>
<glyph name="paragraph" format="2">
  <advance width="576"/>
  <unicode hex="00B6"/>
  <outline>
    <contour>
      <point x="342" y="-182"/>
      <point x="342" y="-163" type="curve" smooth="yes"/>
      <point x="342" y="588" type="line"/>
      <point x="402" y="588" type="line"/>
      <point x="402" y="-163" type="line" smooth="yes"/>
      <point x="402" y="-182"/>
      <point x="418" y="-198"/>
      <point x="437" y="-198" type="curve" smooth="yes"/>
      <point x="456" y="-198"/>
      <point x="472" y="-182"/>
      <point x="472" y="-163" type="curve" smooth="yes"/>
      <point x="472" y="623" type="line" smooth="yes"/>
      <point x="472" y="645"/>
      <point x="459" y="658"/>
      <point x="437" y="658" type="curve" smooth="yes"/>
      <point x="221" y="658" type="line" smooth="yes"/>
      <point x="106" y="658"/>
      <point x="44" y="596"/>
      <point x="44" y="481" type="curve" smooth="yes"/>
      <point x="44" y="452" type="line" smooth="yes"/>
      <point x="44" y="338"/>
      <point x="106" y="276"/>
      <point x="221" y="276" type="curve" smooth="yes"/>
      <point x="272" y="276" type="line"/>
      <point x="272" y="-163" type="line" smooth="yes"/>
      <point x="272" y="-182"/>
      <point x="288" y="-198"/>
      <point x="307" y="-198" type="curve" smooth="yes"/>
      <point x="326" y="-198"/>
    </contour>
  </outline>
</glyph>
<glyph name="cedilla" format="2">
  <advance width="314"/>
  <unicode hex="00B8"/>
  <outline>
    <contour>
      <point x="147" y="-214" type="curve" smooth="yes"/>
      <point x="225" y="-214"/>
      <point x="264" y="-175"/>
      <point x="264" y="-97" type="curve" smooth="yes"/>
      <point x="264" y="-49"/>
      <point x="231" y="-27"/>
      <point x="213" y="-15" type="curve" smooth="yes"/>
      <point x="193" y="-1"/>
      <point x="191" y="3"/>
      <point x="191" y="15" type="curve" smooth="yes"/>
      <point x="191" y="39"/>
      <point x="180" y="50"/>
      <point x="156" y="50" type="curve" smooth="yes"/>
      <point x="132" y="50"/>
      <point x="121" y="39"/>
      <point x="121" y="15" type="curve" smooth="yes"/>
      <point x="121" y="-37"/>
      <point x="156" y="-61"/>
      <point x="174" y="-72" type="curve" smooth="yes"/>
      <point x="192" y="-84"/>
      <point x="194" y="-88"/>
      <point x="194" y="-97" type="curve" smooth="yes"/>
      <point x="194" y="-137"/>
      <point x="186" y="-144"/>
      <point x="147" y="-144" type="curve" smooth="yes"/>
      <point x="123" y="-144"/>
      <point x="120" y="-141"/>
      <point x="120" y="-117" type="curve" smooth="yes"/>
      <point x="120" y="-93"/>
      <point x="109" y="-82"/>
      <point x="85" y="-82" type="curve" smooth="yes"/>
      <point x="61" y="-82"/>
      <point x="50" y="-93"/>
      <point x="50" y="-117" type="curve" smooth="yes"/>
      <point x="50" y="-180"/>
      <point x="84" y="-214"/>
    </contour>
  </outline>
</glyph>
<glyph name="onesuperior" format="2">
  <advance width="287"/>
  <unicode hex="00B9"/>
  <outline>
    <contour>
      <point x="185" y="298" type="curve" smooth="yes"/>
      <point x="212" y="298"/>
      <point x="227" y="312"/>
      <point x="227" y="340" type="curve" smooth="yes"/>
      <point x="227" y="650" type="line" smooth="yes"/>
      <point x="227" y="669"/>
      <point x="216" y="678"/>
      <point x="197" y="678" type="curve" smooth="yes"/>
      <point x="175" y="678"/>
      <point x="164" y="675"/>
      <point x="145" y="657" type="curve" smooth="yes"/>
      <point x="67" y="580" type="line" smooth="yes"/>
      <point x="47" y="562"/>
      <point x="47" y="541"/>
      <point x="66" y="521" type="curve" smooth="yes"/>
      <point x="85" y="502"/>
      <point x="106" y="501"/>
      <point x="125" y="520" type="curve" smooth="yes"/>
      <point x="158" y="552" type="line"/>
      <point x="143" y="544" type="line"/>
      <point x="143" y="340" type="line" smooth="yes"/>
      <point x="143" y="312"/>
      <point x="157" y="298"/>
    </contour>
  </outline>
</glyph>
<glyph name="ordmasculine" format="2">
  <advance width="430"/>
  <unicode hex="00BA"/>
  <outline>
    <contour>
      <point x="182" y="298" type="curve" smooth="yes"/>
      <point x="248" y="298" type="line" smooth="yes"/>
      <point x="345" y="298"/>
      <point x="394" y="347"/>
      <point x="394" y="445" type="curve" smooth="yes"/>
      <point x="394" y="504" type="line" smooth="yes"/>
      <point x="394" y="601"/>
      <point x="345" y="650"/>
      <point x="248" y="650" type="curve" smooth="yes"/>
      <point x="182" y="650" type="line" smooth="yes"/>
      <point x="85" y="649"/>
      <point x="36" y="602"/>
      <point x="36" y="504" type="curve" smooth="yes"/>
      <point x="36" y="444" type="line" smooth="yes"/>
      <point x="36" y="347"/>
      <point x="85" y="298"/>
    </contour>
    <contour>
      <point x="182" y="382" type="line" smooth="yes"/>
      <point x="131" y="382"/>
      <point x="120" y="393"/>
      <point x="120" y="444" type="curve" smooth="yes"/>
      <point x="120" y="504" type="line" smooth="yes"/>
      <point x="120" y="555"/>
      <point x="131" y="565"/>
      <point x="182" y="566" type="curve" smooth="yes"/>
      <point x="248" y="566" type="line" smooth="yes"/>
      <point x="299" y="566"/>
      <point x="310" y="554"/>
      <point x="310" y="504" type="curve" smooth="yes"/>
      <point x="310" y="445" type="line" smooth="yes"/>
      <point x="310" y="393"/>
      <point x="299" y="382"/>
      <point x="248" y="382" type="curve" smooth="yes"/>
    </contour>
  </outline>
</glyph>
<glyph name="AE" format="2">
  <advance width="860"/>
  <unicode hex="00C6"/>
  <anchor x="540" y="0" name="bottom"/>
  <anchor x="537" y="678" name="top"/>
  <outline>
    <contour>
      <point x="471" y="0" type="curve" smooth="yes"/>
      <point x="762" y="0" type="line" smooth="yes"/>
      <point x="789" y="0"/>
      <point x="804" y="15"/>
      <point x="804" y="42" type="curve" smooth="yes"/>
      <point x="804" y="69"/>
      <point x="789" y="84"/>
      <point x="762" y="84" type="curve" smooth="yes"/>
      <point x="513" y="84" type="line"/>
      <point x="513" y="300" type="line"/>
      <point x="644" y="300" type="line" smooth="yes"/>
      <point x="671" y="300"/>
      <point x="686" y="315"/>
      <point x="686" y="342" type="curve" smooth="yes"/>
      <point x="686" y="369"/>
      <point x="671" y="384"/>
      <point x="644" y="384" type="curve" smooth="yes"/>
      <point x="513" y="384" type="line"/>
      <point x="513" y="594" type="line"/>
      <point x="762" y="594" type="line" smooth="yes"/>
      <point x="789" y="594"/>
      <point x="804" y="609"/>
      <point x="804" y="636" type="curve" smooth="yes"/>
      <point x="804" y="662"/>
      <point x="789" y="678"/>
      <point x="762" y="678" type="curve" smooth="yes"/>
      <point x="434" y="678" type="line" smooth="yes"/>
      <point x="410" y="678"/>
      <point x="395" y="668"/>
      <point x="383" y="649" type="curve" smooth="yes"/>
      <point x="51" y="64" type="line" smooth="yes"/>
      <point x="38" y="41"/>
      <point x="44" y="21"/>
      <point x="67" y="7" type="curve" smooth="yes"/>
      <point x="90" y="-7"/>
      <point x="110" y="-1"/>
      <point x="124" y="24" type="curve" smooth="yes"/>
      <point x="201" y="158" type="line"/>
      <point x="429" y="158" type="line"/>
      <point x="429" y="42" type="line" smooth="yes"/>
      <point x="429" y="15"/>
      <point x="443" y="0"/>
    </contour>
    <contour>
      <point x="249" y="242" type="line"/>
      <point x="429" y="569" type="line"/>
      <point x="429" y="569" type="line"/>
      <point x="429" y="242" type="line"/>
    </contour>
  </outline>
</glyph>
<glyph name="Thorn" format="2">
  <advance width="565"/>
  <unicode hex="00DE"/>
  <outline>
    <contour>
      <point x="188" y="167" type="curve" smooth="yes"/>
      <point x="332" y="167" type="line" smooth="yes"/>
      <point x="454" y="167"/>
      <point x="521" y="234"/>
      <point x="521" y="356" type="curve" smooth="yes"/>
      <point x="521" y="386" type="line" smooth="yes"/>
      <point x="521" y="508"/>
      <point x="454" y="575"/>
      <point x="332" y="575" type="curve" smooth="yes"/>
      <point x="188" y="575" type="line" smooth="yes"/>
      <point x="161" y="575"/>
      <point x="146" y="559"/>
      <point x="146" y="533" type="curve" smooth="yes"/>
      <point x="146" y="506"/>
      <point x="161" y="491"/>
      <point x="188" y="491" type="curve" smooth="yes"/>
      <point x="332" y="491" type="line" smooth="yes"/>
      <point x="408" y="491"/>
      <point x="437" y="462"/>
      <point x="437" y="386" type="curve" smooth="yes"/>
      <point x="437" y="356" type="line" smooth="yes"/>
      <point x="437" y="280"/>
      <point x="408" y="251"/>
      <point x="332" y="251" type="curve" smooth="yes"/>
      <point x="188" y="251" type="line" smooth="yes"/>
      <point x="161" y="251"/>
      <point x="146" y="235"/>
      <point x="146" y="209" type="curve" smooth="yes"/>
      <point x="146" y="182"/>
      <point x="161" y="167"/>
    </contour>
    <contour>
      <point x="146" y="0" type="curve" smooth="yes"/>
      <point x="173" y="0"/>
      <point x="188" y="15"/>
      <point x="188" y="42" type="curve" smooth="yes"/>
      <point x="188" y="636" type="line" smooth="yes"/>
      <point x="188" y="662"/>
      <point x="173" y="678"/>
      <point x="146" y="678" type="curve" smooth="yes"/>
      <point x="119" y="678"/>
      <point x="104" y="662"/>
      <point x="104" y="636" type="curve" smooth="yes"/>
      <point x="104" y="42" type="line" smooth="yes"/>
      <point x="104" y="15"/>
      <point x="119" y="0"/>
    </contour>
  </outline>
</glyph>
<glyph name="germandbls" format="2">
  <advance width="587"/>
  <unicode hex="00DF"/>
  <outline>
    <contour>
      <point x="146" y="0" type="curve" smooth="yes"/>
      <point x="174" y="0"/>
      <point x="188" y="14"/>
      <point x="188" y="42" type="curve" smooth="yes"/>
      <point x="188" y="519" type="line" smooth="yes"/>
      <point x="188" y="598"/>
      <point x="210" y="620"/>
      <point x="289" y="620" type="curve" smooth="yes"/>
      <point x="367" y="620"/>
      <point x="389" y="598"/>
      <point x="389" y="520" type="curve" smooth="yes"/>
      <point x="389" y="458"/>
      <point x="376" y="430"/>
      <point x="330" y="422" type="curve" smooth="yes"/>
      <point x="302" y="419"/>
      <point x="289" y="405"/>
      <point x="289" y="379" type="curve" smooth="yes"/>
      <point x="289" y="350"/>
      <point x="303" y="336"/>
      <point x="331" y="336" type="curve" smooth="yes"/>
      <point x="339" y="336" type="line" smooth="yes"/>
      <point x="425" y="336"/>
      <point x="449" y="312"/>
      <point x="449" y="226" type="curve" smooth="yes"/>
      <point x="449" y="194" type="line" smooth="yes"/>
      <point x="449" y="108"/>
      <point x="425" y="84"/>
      <point x="339" y="84" type="curve" smooth="yes"/>
      <point x="278" y="84" type="line" smooth="yes"/>
      <point x="250" y="84"/>
      <point x="236" y="70"/>
      <point x="236" y="42" type="curve" smooth="yes"/>
      <point x="236" y="14"/>
      <point x="250" y="0"/>
      <point x="278" y="0" type="curve" smooth="yes"/>
      <point x="339" y="0" type="line" smooth="yes"/>
      <point x="471" y="0"/>
      <point x="533" y="61"/>
      <point x="533" y="194" type="curve" smooth="yes"/>
      <point x="533" y="226" type="line" smooth="yes"/>
      <point x="533" y="315"/>
      <point x="498" y="372"/>
      <point x="398" y="395" type="curve"/>
      <point x="457" y="425"/>
      <point x="473" y="471"/>
      <point x="473" y="520" type="curve" smooth="yes"/>
      <point x="473" y="644"/>
      <point x="413" y="704"/>
      <point x="289" y="704" type="curve" smooth="yes"/>
      <point x="164" y="704"/>
      <point x="104" y="644"/>
      <point x="104" y="519" type="curve" smooth="yes"/>
      <point x="104" y="42" type="line" smooth="yes"/>
      <point x="104" y="14"/>
      <point x="118" y="0"/>
    </contour>
  </outline>
</glyph>
<glyph name="ae" format="2">
  <advance width="966"/>
  <unicode hex="00E6"/>
  <anchor x="486" y="0" name="bottom"/>
  <anchor x="486" y="507" name="top"/>
  <outline>
    <contour>
      <point x="633" y="-22" type="curve" smooth="yes"/>
      <point x="694" y="-22" type="line" smooth="yes"/>
      <point x="823" y="-22"/>
      <point x="886" y="27"/>
      <point x="886" y="135" type="curve" smooth="yes"/>
      <point x="886" y="158"/>
      <point x="867" y="177"/>
      <point x="844" y="177" type="curve" smooth="yes"/>
      <point x="821" y="177"/>
      <point x="802" y="158"/>
      <point x="802" y="135" type="curve" smooth="yes"/>
      <point x="802" y="80"/>
      <point x="780" y="62"/>
      <point x="694" y="62" type="curve" smooth="yes"/>
      <point x="633" y="62" type="line" smooth="yes"/>
      <point x="552" y="62"/>
      <point x="526" y="87"/>
      <point x="526" y="176" type="curve" smooth="yes"/>
      <point x="526" y="228" type="line"/>
      <point x="843" y="228" type="line" smooth="yes"/>
      <point x="871" y="228"/>
      <point x="886" y="243"/>
      <point x="886" y="270" type="curve" smooth="yes"/>
      <point x="886" y="413"/>
      <point x="825" y="482"/>
      <point x="694" y="482" type="curve" smooth="yes"/>
      <point x="634" y="482" type="line" smooth="yes"/>
      <point x="565" y="483"/>
      <point x="516" y="458"/>
      <point x="484" y="406" type="curve"/>
      <point x="451" y="458"/>
      <point x="400" y="483"/>
      <point x="330" y="483" type="curve" smooth="yes"/>
      <point x="292" y="483" type="line" smooth="yes"/>
      <point x="157" y="483"/>
      <point x="92" y="436"/>
      <point x="92" y="331" type="curve" smooth="yes"/>
      <point x="92" y="308"/>
      <point x="111" y="289"/>
      <point x="134" y="289" type="curve" smooth="yes"/>
      <point x="157" y="289"/>
      <point x="176" y="308"/>
      <point x="176" y="331" type="curve" smooth="yes"/>
      <point x="176" y="382"/>
      <point x="199" y="399"/>
      <point x="292" y="399" type="curve" smooth="yes"/>
      <point x="330" y="399" type="line" smooth="yes"/>
      <point x="407" y="399"/>
      <point x="435" y="379"/>
      <point x="442" y="312" type="curve"/>
      <point x="250" y="312" type="line" smooth="yes"/>
      <point x="138" y="312"/>
      <point x="84" y="258"/>
      <point x="84" y="146" type="curve" smooth="yes"/>
      <point x="84" y="34"/>
      <point x="138" y="-20"/>
      <point x="250" y="-20" type="curve" smooth="yes"/>
      <point x="286" y="-20" type="line" smooth="yes"/>
      <point x="370" y="-20"/>
      <point x="435" y="9"/>
      <point x="476" y="64" type="curve"/>
      <point x="509" y="6"/>
      <point x="560" y="-22"/>
    </contour>
    <contour>
      <point x="250" y="64" type="line" smooth="yes"/>
      <point x="184" y="64"/>
      <point x="168" y="80"/>
      <point x="168" y="146" type="curve" smooth="yes"/>
      <point x="168" y="212"/>
      <point x="184" y="228"/>
      <point x="250" y="228" type="curve" smooth="yes"/>
      <point x="442" y="228" type="line"/>
      <point x="442" y="172" type="line" smooth="yes"/>
      <point x="442" y="99"/>
      <point x="395" y="64"/>
      <point x="286" y="64" type="curve" smooth="yes"/>
    </contour>
    <contour>
      <point x="527" y="312" type="line"/>
      <point x="533" y="379"/>
      <point x="560" y="399"/>
      <point x="634" y="398" type="curve" smooth="yes"/>
      <point x="694" y="398" type="line" smooth="yes"/>
      <point x="762" y="398"/>
      <point x="791" y="377"/>
      <point x="799" y="312" type="curve"/>
    </contour>
  </outline>
</glyph>
<glyph name="eth" format="2">
  <advance width="634"/>
  <unicode hex="00F0"/>
  <outline>
    <contour>
      <point x="410" y="674" type="curve" smooth="yes"/>
      <point x="175" y="733" type="line" smooth="yes"/>
      <point x="149" y="740"/>
      <point x="131" y="730"/>
      <point x="124" y="703" type="curve" smooth="yes"/>
      <point x="117" y="676"/>
      <point x="128" y="658"/>
      <point x="155" y="651" type="curve" smooth="yes"/>
      <point x="388" y="592" type="line" smooth="yes"/>
      <point x="426" y="584"/>
      <point x="451" y="561"/>
      <point x="462" y="463" type="curve"/>
      <point x="433" y="492"/>
      <point x="399" y="507"/>
      <point x="358" y="507" type="curve" smooth="yes"/>
      <point x="276" y="507" type="line" smooth="yes"/>
      <point x="143" y="506"/>
      <point x="80" y="445"/>
      <point x="80" y="311" type="curve" smooth="yes"/>
      <point x="80" y="195" type="line" smooth="yes"/>
      <point x="80" y="62"/>
      <point x="143" y="0"/>
      <point x="276" y="0" type="curve" smooth="yes"/>
      <point x="358" y="0" type="line" smooth="yes"/>
      <point x="491" y="0"/>
      <point x="554" y="62"/>
      <point x="554" y="196" type="curve" smooth="yes"/>
      <point x="554" y="339" type="line" smooth="yes"/>
      <point x="549" y="553"/>
      <point x="508" y="651"/>
    </contour>
    <contour>
      <point x="470" y="196" type="line" smooth="yes"/>
      <point x="470" y="109"/>
      <point x="445" y="84"/>
      <point x="358" y="84" type="curve" smooth="yes"/>
      <point x="276" y="84" type="line" smooth="yes"/>
      <point x="189" y="84"/>
      <point x="164" y="109"/>
      <point x="164" y="195" type="curve" smooth="yes"/>
      <point x="164" y="311" type="line" smooth="yes"/>
      <point x="164" y="399"/>
      <point x="189" y="422"/>
      <point x="276" y="423" type="curve" smooth="yes"/>
      <point x="358" y="423" type="line" smooth="yes"/>
      <point x="452" y="423"/>
      <point x="470" y="394"/>
      <point x="470" y="301" type="curve" smooth="yes"/>
    </contour>
    <contour>
      <point x="260" y="558" type="curve" smooth="yes"/>
      <point x="407" y="697" type="line" smooth="yes"/>
      <point x="424" y="713"/>
      <point x="424" y="731"/>
      <point x="408" y="748" type="curve" smooth="yes"/>
      <point x="392" y="765"/>
      <point x="374" y="766"/>
      <point x="357" y="749" type="curve" smooth="yes"/>
      <point x="210" y="610" type="line" smooth="yes"/>
      <point x="193" y="595"/>
      <point x="193" y="576"/>
      <point x="209" y="559" type="curve" smooth="yes"/>
      <point x="225" y="542"/>
      <point x="243" y="541"/>
    </contour>
  </outline>
</glyph>
<glyph name="oslash" format="2">
  <advance width="634"/>
  <unicode hex="00F8"/>
  <anchor x="317" y="507" name="top"/>
  <anchor x="317" y="0" name="bottom"/>
  <anchor x="317" y="253" name="center"/>
  <anchor x="472" y="33" name="ogonek"/>
  <anchor x="481" y="451" name="topright"/>
  <outline>
    <contour>
      <point x="117" y="-61" type="curve" smooth="yes"/>
      <point x="138" y="-75"/>
      <point x="156" y="-71"/>
      <point x="169" y="-49" type="curve" smooth="yes"/>
      <point x="218" y="30" type="line"/>
      <point x="228" y="50" type="line"/>
      <point x="461" y="421" type="line"/>
      <point x="476" y="438" type="line"/>
      <point x="510" y="493" type="line" smooth="yes"/>
      <point x="522" y="512"/>
      <point x="519" y="528"/>
      <point x="501" y="542" type="curve" smooth="yes"/>
      <point x="480" y="556"/>
      <point x="462" y="551"/>
      <point x="449" y="531" type="curve" smooth="yes"/>
      <point x="412" y="471" type="line"/>
      <point x="407" y="457" type="line"/>
      <point x="164" y="71" type="line"/>
      <point x="149" y="57" type="line"/>
      <point x="106" y="-12" type="line" smooth="yes"/>
      <point x="94" y="-32"/>
      <point x="98" y="-47"/>
    </contour>
    <component base="o"/>
  </outline>
</glyph>
<glyph name="thorn" format="2">
  <advance width="658"/>
  <unicode hex="00FE"/>
  <outline>
    <contour>
      <point x="146" y="-200" type="curve" smooth="yes"/>
      <point x="177" y="-200"/>
      <point x="188" y="-189"/>
      <point x="188" y="-158" type="curve" smooth="yes"/>
      <point x="188" y="1" type="line"/>
      <point x="382" y="1" type="line" smooth="yes"/>
      <point x="515" y="1"/>
      <point x="578" y="64"/>
      <point x="578" y="197" type="curve" smooth="yes"/>
      <point x="578" y="308" type="line" smooth="yes"/>
      <point x="578" y="441"/>
      <point x="515" y="504"/>
      <point x="382" y="504" type="curve" smooth="yes"/>
      <point x="344" y="504" type="line" smooth="yes"/>
      <point x="281" y="504"/>
      <point x="228" y="481"/>
      <point x="188" y="436" type="curve"/>
      <point x="188" y="644" type="line" smooth="yes"/>
      <point x="188" y="675"/>
      <point x="177" y="686"/>
      <point x="146" y="686" type="curve" smooth="yes"/>
      <point x="115" y="686"/>
      <point x="104" y="675"/>
      <point x="104" y="644" type="curve" smooth="yes"/>
      <point x="104" y="-158" type="line" smooth="yes"/>
      <point x="104" y="-189"/>
      <point x="115" y="-200"/>
    </contour>
    <contour>
      <point x="188" y="85" type="line"/>
      <point x="188" y="312" type="line" smooth="yes"/>
      <point x="188" y="385"/>
      <point x="235" y="420"/>
      <point x="344" y="420" type="curve" smooth="yes"/>
      <point x="382" y="420" type="line" smooth="yes"/>
      <point x="469" y="420"/>
      <point x="494" y="395"/>
      <point x="494" y="308" type="curve" smooth="yes"/>
      <point x="494" y="197" type="line" smooth="yes"/>
      <point x="494" y="110"/>
      <point x="469" y="85"/>
      <point x="382" y="85" type="curve" smooth="yes"/>
    </contour>
  </outline>
</glyph>
<glyph name="idotless" format="2">
  <advance width="292"/>
  <unicode hex="0131"/>
  <anchor x="145" y="0" name="bottom"/>
  <anchor x="118" y="7" name="ogonek"/>
  <anchor x="145" y="507" name="top"/>
  <outline>
    <contour>
      <point x="146" y="0" type="curve" smooth="yes"/>
      <point x="173" y="0"/>
      <point x="188" y="15"/>
      <point x="188" y="42" type="curve" smooth="yes"/>
      <point x="188" y="465" type="line" smooth="yes"/>
      <point x="188" y="492"/>
      <point x="173" y="507"/>
      <point x="146" y="507" type="curve" smooth="yes"/>
      <point x="119" y="507"/>
      <point x="104" y="492"/>
      <point x="104" y="465" type="curve" smooth="yes"/>
      <point x="104" y="42" type="line" smooth="yes"/>
      <point x="104" y="15"/>
      <point x="119" y="0"/>
    </contour>
  </outline>
</glyph>
<glyph name="kgreenlandic" format="2">
  <advance width="508"/>
  <unicode hex="0138"/>
  <anchor x="265" y="0" name="bottom"/>
  <anchor x="264" y="507" name="top"/>
  <outline>
    <contour>
      <point x="181" y="169" type="curve" smooth="yes"/>
      <point x="481" y="428" type="line" smooth="yes"/>
      <point x="501" y="445"/>
      <point x="503" y="467"/>
      <point x="486" y="486" type="curve" smooth="yes"/>
      <point x="467" y="507"/>
      <point x="447" y="510"/>
      <point x="426" y="491" type="curve" smooth="yes"/>
      <point x="126" y="233" type="line" smooth="yes"/>
      <point x="105" y="216"/>
      <point x="104" y="195"/>
      <point x="123" y="174" type="curve" smooth="yes"/>
      <point x="142" y="153"/>
      <point x="161" y="152"/>
    </contour>
    <contour>
      <point x="146" y="0" type="curve" smooth="yes"/>
      <point x="173" y="0"/>
      <point x="188" y="15"/>
      <point x="188" y="42" type="curve" smooth="yes"/>
      <point x="188" y="465" type="line" smooth="yes"/>
      <point x="188" y="492"/>
      <point x="173" y="507"/>
      <point x="146" y="507" type="curve" smooth="yes"/>
      <point x="119" y="507"/>
      <point x="104" y="492"/>
      <point x="104" y="465" type="curve" smooth="yes"/>
      <point x="104" y="42" type="line" smooth="yes"/>
      <point x="104" y="15"/>
      <point x="119" y="0"/>
    </contour>
    <contour>
      <point x="469" y="13" type="curve" smooth="yes"/>
      <point x="490" y="32"/>
      <point x="492" y="51"/>
      <point x="473" y="72" type="curve" smooth="yes"/>
      <point x="296" y="273" type="line" smooth="yes"/>
      <point x="278" y="293"/>
      <point x="257" y="294"/>
      <point x="236" y="277" type="curve" smooth="yes"/>
      <point x="215" y="259"/>
      <point x="214" y="238"/>
      <point x="233" y="217" type="curve" smooth="yes"/>
      <point x="410" y="16" type="line" smooth="yes"/>
      <point x="428" y="-3"/>
      <point x="450" y="-5"/>
    </contour>
  </outline>
</glyph>
<glyph name="lslash" format="2">
  <advance width="356"/>
  <unicode hex="0142"/>
  <anchor x="158" y="363" name="_center"/>
  <anchor x="217" y="0" name="bottom"/>
  <anchor x="165" y="363" name="center"/>
  <anchor x="146" y="704" name="top"/>
  <anchor x="232" y="507" name="topright"/>
  <outline>
    <contour>
      <point x="32" y="235" type="curve" smooth="yes"/>
      <point x="39" y="235"/>
      <point x="44" y="236"/>
      <point x="49" y="241" type="curve" smooth="yes"/>
      <point x="304" y="431" type="line" smooth="yes"/>
      <point x="312" y="436"/>
      <point x="316" y="444"/>
      <point x="316" y="454" type="curve" smooth="yes"/>
      <point x="316" y="469"/>
      <point x="303" y="482"/>
      <point x="288" y="482" type="curve" smooth="yes"/>
      <point x="282" y="482"/>
      <point x="276" y="481"/>
      <point x="271" y="476" type="curve" smooth="yes"/>
      <point x="16" y="286" type="line" smooth="yes"/>
      <point x="9" y="281"/>
      <point x="4" y="273"/>
      <point x="4" y="263" type="curve" smooth="yes"/>
      <point x="4" y="249"/>
      <point x="17" y="235"/>
    </contour>
    <component base="l"/>
  </outline>
</glyph>
<glyph name="Eng" format="2">
  <advance width="757"/>
  <unicode hex="014A"/>
  <anchor x="375" y="0" name="bottom"/>
  <anchor x="375" y="678" name="top"/>
  <outline>
    <contour>
      <point x="390" y="-200" type="curve" smooth="yes"/>
      <point x="509" y="-200" type="line" smooth="yes"/>
      <point x="607" y="-200"/>
      <point x="653" y="-154"/>
      <point x="653" y="-56" type="curve" smooth="yes"/>
      <point x="653" y="515" type="line" smooth="yes"/>
      <point x="653" y="542"/>
      <point x="638" y="557"/>
      <point x="611" y="557" type="curve" smooth="yes"/>
      <point x="584" y="557"/>
      <point x="569" y="542"/>
      <point x="569" y="515" type="curve" smooth="yes"/>
      <point x="569" y="-56" type="line" smooth="yes"/>
      <point x="569" y="-105"/>
      <point x="558" y="-116"/>
      <point x="509" y="-116" type="curve" smooth="yes"/>
      <point x="390" y="-116" type="line" smooth="yes"/>
      <point x="357" y="-116"/>
      <point x="343" y="-112"/>
      <point x="334" y="-97" type="curve" smooth="yes"/>
      <point x="325" y="-70"/>
      <point x="316" y="-56"/>
      <point x="291" y="-56" type="curve" smooth="yes"/>
      <point x="261" y="-56"/>
      <point x="245" y="-72"/>
      <point x="250" y="-100" type="curve" smooth="yes"/>
      <point x="263" y="-168"/>
      <point x="309" y="-200"/>
    </contour>
    <component base="N"/>
  </outline>
</glyph>
